<svg width="127" height="39" viewBox="0 0 127 39" fill="none" xmlns="http://www.w3.org/2000/svg">
<path d="M19.5 2C17.2019 2 14.9262 2.4527 12.803 3.3321C10.6798 4.2116 8.7507 5.5006 7.1256 7.1256C5.5006 8.7507 4.2116 10.6798 3.3321 12.803C2.4527 14.9262 2 17.2019 2 19.5C2 21.7981 2.4527 24.0738 3.3321 26.197C4.2116 28.3202 5.5006 30.2493 7.1256 31.8744C8.7507 33.4994 10.6798 34.7884 12.803 35.6679C14.9262 36.5473 17.2019 37 19.5 37V28.25C18.3509 28.25 17.2131 28.0237 16.1515 27.5839C15.0899 27.1442 14.1253 26.4997 13.3128 25.6872C12.5003 24.8747 11.8558 23.9101 11.4161 22.8485C10.9763 21.7869 10.75 20.6491 10.75 19.5C10.75 18.3509 10.9763 17.2131 11.4161 16.1515C11.8558 15.0899 12.5003 14.1253 13.3128 13.3128C14.1253 12.5003 15.0899 11.8558 16.1515 11.4161C17.2131 10.9763 18.3509 10.75 19.5 10.75V2Z" fill="#F1F4F6"/>
<path d="M19.5003 25.3333C22.722 25.3333 25.3336 22.7217 25.3336 19.5C25.3336 16.2783 22.722 13.6667 19.5003 13.6667C16.2786 13.6667 13.667 16.2783 13.667 19.5C13.667 22.7217 16.2786 25.3333 19.5003 25.3333Z" fill="white"/>
<path d="M2 19.5C2 21.7981 2.4527 24.0738 3.3321 26.197C4.2116 28.3202 5.5006 30.2493 7.1256 31.8744C8.7507 33.4994 10.6798 34.7884 12.803 35.6679C14.9262 36.5473 17.2019 37 19.5 37C21.7981 37 24.0738 36.5473 26.197 35.6679C28.3202 34.7884 30.2493 33.4994 31.8744 31.8744C33.4994 30.2493 34.7884 28.3202 35.6679 26.197C36.5473 24.0738 37 21.7981 37 19.5H28.25C28.25 20.6491 28.0237 21.7869 27.5839 22.8485C27.1442 23.9101 26.4997 24.8747 25.6872 25.6872C24.8747 26.4997 23.9101 27.1442 22.8485 27.5839C21.7869 28.0237 20.6491 28.25 19.5 28.25C18.3509 28.25 17.2131 28.0237 16.1515 27.5839C15.0899 27.1442 14.1253 26.4997 13.3128 25.6872C12.5003 24.8747 11.8558 23.9101 11.4161 22.8485C10.9763 21.7869 10.75 20.6491 10.75 19.5H2Z" fill="white"/>
<path d="M25.3332 19.4999C25.3332 17.9528 24.7186 16.4691 23.6247 15.3751C22.5307 14.2811 21.047 13.6665 19.4999 13.6665C17.9528 13.6665 16.4691 14.2811 15.3751 15.3751C14.2811 16.4691 13.6665 17.9528 13.6665 19.4999H19.4999H25.3332Z" fill="white"/>
<path d="M46.1398 12.925H43.9663V25H46.1398V12.925Z" fill="white"/>
<path d="M47.5591 20.7219C47.5591 23.5164 49.4911 25.2414 52.0441 25.2414C54.5971 25.2414 56.5291 23.5164 56.5291 20.7219C56.5291 17.9274 54.5971 16.2024 52.0441 16.2024C49.4911 16.2024 47.5591 17.9274 47.5591 20.7219ZM49.7326 20.7219C49.7326 19.0659 50.6986 18.0999 52.0441 18.0999C53.3896 18.0999 54.3556 19.0659 54.3556 20.7219C54.3556 22.3779 53.3896 23.3439 52.0441 23.3439C50.6986 23.3439 49.7326 22.3779 49.7326 20.7219Z" fill="white"/>
<path d="M64.2962 16.4439V17.5996H64.1237C63.6062 16.8579 62.7782 16.2024 61.2947 16.2024C59.2592 16.2024 57.4307 17.9274 57.4307 20.5839C57.4307 23.2404 59.2592 24.9654 61.2947 24.9654C62.7782 24.9654 63.6062 24.2926 64.0892 23.6199H64.2617V24.4479C64.2617 26.1039 63.2957 26.8629 61.8812 26.8629C60.4667 26.8629 59.7422 26.1039 59.4489 25.1206L57.4997 25.9659C57.9482 27.2596 59.2592 28.6914 61.9157 28.6914C64.6412 28.6914 66.4352 27.2596 66.4352 24.4996V16.4439H64.2962ZM61.9502 23.1024C60.6047 23.1024 59.6042 22.1364 59.6042 20.5839C59.6042 19.0314 60.6047 18.0654 61.9502 18.0654C63.2957 18.0654 64.2962 19.0314 64.2962 20.5839C64.2962 22.1364 63.2957 23.1024 61.9502 23.1024Z" fill="white"/>
<path d="M67.8413 20.7219C67.8413 23.5164 69.7733 25.2414 72.3263 25.2414C74.8793 25.2414 76.8112 23.5164 76.8112 20.7219C76.8112 17.9274 74.8793 16.2024 72.3263 16.2024C69.7733 16.2024 67.8413 17.9274 67.8413 20.7219ZM70.0148 20.7219C70.0148 19.0659 70.9808 18.0999 72.3263 18.0999C73.6718 18.0999 74.6378 19.0659 74.6378 20.7219C74.6378 22.3779 73.6718 23.3439 72.3263 23.3439C70.9808 23.3439 70.0148 22.3779 70.0148 20.7219Z" fill="white"/>
<path d="M78.5171 13.9601C78.5171 14.8399 79.1901 15.4436 80.0531 15.4436C80.9151 15.4436 81.5881 14.8399 81.5881 13.9601C81.5881 13.0804 80.9151 12.4766 80.0531 12.4766C79.1901 12.4766 78.5171 13.0804 78.5171 13.9601ZM81.1391 16.4441H78.9661V25.0001H81.1391V16.4441Z" fill="white"/>
<path d="M83.0762 28.4499H85.2502V23.8959H85.4222C85.9052 24.5859 86.7332 25.2414 88.2172 25.2414C90.2522 25.2414 92.0812 23.5164 92.0812 20.7219C92.0812 17.9274 90.2522 16.2024 88.2172 16.2024C86.7332 16.2024 85.9052 16.8579 85.3882 17.5997H85.2152V16.4439H83.0762V28.4499ZM87.5612 23.3784C86.2162 23.3784 85.2152 22.4124 85.2152 20.7219C85.2152 19.0314 86.2162 18.0654 87.5612 18.0654C88.9072 18.0654 89.9072 19.0314 89.9072 20.7219C89.9072 22.4124 88.9072 23.3784 87.5612 23.3784Z" fill="white"/>
<path d="M93.3491 18.8417C93.3491 20.5322 94.7631 21.1532 96.5571 21.4982L97.0061 21.5844C98.0751 21.7914 98.5581 22.0502 98.5581 22.6022C98.5581 23.1542 98.0751 23.5854 97.0751 23.5854C96.0741 23.5854 95.2641 23.1714 95.0391 21.9294L93.0381 22.4469C93.3321 24.2409 94.8321 25.2414 97.0751 25.2414C99.2481 25.2414 100.663 24.2237 100.663 22.4297C100.663 20.6356 99.2141 20.1527 97.2821 19.7732L96.8331 19.6869C95.9361 19.5144 95.4531 19.2729 95.4531 18.7037C95.4531 18.1862 95.9021 17.8584 96.7301 17.8584C97.5581 17.8584 98.1441 18.2034 98.3511 19.1349L100.318 18.5312C99.9041 17.1512 98.6451 16.2024 96.7301 16.2024C94.6941 16.2024 93.3491 17.1512 93.3491 18.8417Z" fill="white"/>
<path d="M110.426 25.0001V16.4441H108.253V20.8601C108.253 22.4471 107.477 23.3786 106.148 23.3786C104.975 23.3786 104.32 22.7404 104.32 21.4466V16.4441H102.146V21.5501C102.146 23.6719 103.475 25.1381 105.476 25.1381C107.045 25.1381 107.77 24.4481 108.115 23.7236H108.287V25.0001H110.426Z" fill="white"/>
<path d="M112.354 16.4439V24.9999H114.528V19.8939C114.528 18.7209 115.08 18.0654 116.08 18.0654C116.943 18.0654 117.46 18.5484 117.46 19.4799V24.9999H119.634V19.8939C119.634 18.7209 120.186 18.0654 121.186 18.0654C122.049 18.0654 122.566 18.5484 122.566 19.4799V24.9999H124.74V19.3764C124.74 17.3064 123.463 16.3059 121.876 16.3059C120.479 16.3059 119.841 16.9269 119.427 17.6514H119.254C118.857 16.8407 118.15 16.3059 116.908 16.3059C115.666 16.3059 114.993 16.8579 114.666 17.5134H114.493V16.4439H112.354Z" fill="white"/>
</svg>
