<svg width="150" height="30" viewBox="0 0 150 30" fill="none" xmlns="http://www.w3.org/2000/svg">
<path d="M43.1094 20.6914C43.1094 21.4336 42.957 22.0039 42.6523 22.4023C42.3555 22.8008 41.8594 23 41.1641 23C40.5078 23 40.043 22.8008 39.7695 22.4023C39.5039 22.0039 39.3711 21.4336 39.3711 20.6914V8.3047C39.3711 7.5625 39.5039 6.99219 39.7695 6.59375C40.043 6.19531 40.5078 5.99609 41.1641 5.99609C41.8594 5.99609 42.3555 6.19531 42.6523 6.59375C42.957 6.99219 43.1094 7.5625 43.1094 8.3047V20.6914Z" fill="white"/>
<path d="M44.2441 17.0938C44.2441 16.2656 44.3769 15.4844 44.6426 14.75C44.916 14.0078 45.3222 13.3594 45.8613 12.8047C46.4082 12.25 47.0879 11.8086 47.9004 11.4805C48.7207 11.1523 49.6816 10.9883 50.7832 10.9883C51.8379 10.9883 52.7715 11.1406 53.584 11.4453C54.3965 11.75 55.0801 12.1758 55.6347 12.7227C56.1894 13.2617 56.6113 13.9062 56.9004 14.6562C57.1894 15.3984 57.334 16.2109 57.334 17.0938C57.334 17.9141 57.1972 18.6914 56.9238 19.4258C56.6504 20.1523 56.2402 20.793 55.6933 21.3477C55.1465 21.8945 54.4629 22.332 53.6426 22.6602C52.8222 22.9805 51.8691 23.1406 50.7832 23.1406C49.7129 23.1406 48.7676 22.9883 47.9472 22.6836C47.1347 22.3711 46.4512 21.9453 45.8965 21.4062C45.3496 20.8594 44.9355 20.2188 44.6543 19.4844C44.3808 18.7422 44.2441 17.9453 44.2441 17.0938ZM48.1465 17.0938C48.1465 17.6094 48.1933 18.1016 48.2871 18.5703C48.3808 19.0312 48.5293 19.4375 48.7324 19.7891C48.9433 20.1406 49.2168 20.4219 49.5527 20.6328C49.8887 20.8359 50.2988 20.9375 50.7832 20.9375C51.2285 20.9375 51.6152 20.8438 51.9433 20.6562C52.2793 20.4688 52.5527 20.207 52.7637 19.8711C52.9824 19.5352 53.1465 19.1328 53.2558 18.6641C53.3652 18.1875 53.4199 17.6641 53.4199 17.0938C53.4199 16.5781 53.3691 16.0898 53.2676 15.6289C53.1738 15.1602 53.0215 14.75 52.8105 14.3984C52.5996 14.0391 52.3262 13.7578 51.9902 13.5547C51.6621 13.3438 51.2597 13.2383 50.7832 13.2383C50.3066 13.2383 49.9004 13.3398 49.5644 13.543C49.2285 13.7461 48.9551 14.0234 48.7441 14.375C48.5332 14.7266 48.3808 15.1367 48.2871 15.6055C48.1933 16.0742 48.1465 16.5703 48.1465 17.0938Z" fill="white"/>
<path d="M66.9532 20.7383C66.7422 21.1289 66.4844 21.4609 66.1797 21.7344C65.8829 22.0078 65.5508 22.2344 65.1837 22.4141C64.8243 22.5859 64.4376 22.7148 64.0235 22.8008C63.6172 22.8789 63.1993 22.918 62.7696 22.918C62.0508 22.918 61.3946 22.7891 60.8008 22.5312C60.2071 22.2734 59.6954 21.9023 59.2657 21.418C58.8438 20.9258 58.5157 20.3242 58.2813 19.6133C58.0469 18.9023 57.9297 18.0898 57.9297 17.1758C57.9297 16.3164 58.0391 15.5117 58.2579 14.7617C58.4766 14.0117 58.793 13.3594 59.2071 12.8047C59.629 12.25 60.1446 11.8125 60.754 11.4922C61.3633 11.1719 62.0587 11.0117 62.8399 11.0117C63.7305 11.0117 64.5196 11.1836 65.2071 11.5273C65.9024 11.8711 66.5001 12.4336 67.0001 13.2148V12.9102C67.0001 12.3477 67.1524 11.9258 67.4571 11.6445C67.7696 11.3555 68.1993 11.2109 68.7462 11.2109C69.0743 11.2109 69.3516 11.2656 69.5782 11.375C69.8047 11.4766 69.9844 11.6328 70.1172 11.8438C70.2501 12.0469 70.3438 12.3008 70.3985 12.6055C70.461 12.9023 70.4922 13.2422 70.4922 13.625V21.4766C70.4922 22.4297 70.3712 23.2812 70.129 24.0312C69.8946 24.7812 69.5274 25.4141 69.0274 25.9297C68.5274 26.4453 67.8868 26.8359 67.1055 27.1016C66.3243 27.375 65.3946 27.5117 64.3165 27.5117C63.5587 27.5117 62.8868 27.4766 62.3008 27.4062C61.7227 27.3438 61.2227 27.2461 60.8008 27.1133C60.379 26.9648 60.0587 26.8008 59.8399 26.6211C59.629 26.4414 59.5235 26.207 59.5235 25.918C59.5235 25.7539 59.5469 25.5977 59.5938 25.4492C59.6407 25.3008 59.711 25.168 59.8047 25.0508C59.9063 24.9414 60.0352 24.8516 60.1915 24.7812C60.3555 24.7188 60.5547 24.6875 60.7891 24.6875C61.0391 24.6875 61.2891 24.7031 61.5391 24.7344C61.7969 24.7656 62.0626 24.7969 62.336 24.8281C62.6172 24.8672 62.9102 24.9023 63.2149 24.9336C63.5274 24.9648 63.8633 24.9805 64.2227 24.9805C64.6524 24.9805 65.0352 24.9375 65.3712 24.8516C65.7071 24.7656 65.9922 24.6133 66.2266 24.3945C66.461 24.1758 66.6407 23.8828 66.7657 23.5156C66.8907 23.1562 66.9532 22.6953 66.9532 22.1328V20.7383ZM66.9532 17.0938C66.9532 16.5234 66.9102 16.0039 66.8243 15.5352C66.7462 15.0664 66.6094 14.668 66.4141 14.3398C66.2188 14.0039 65.9571 13.7461 65.629 13.5664C65.3008 13.3789 64.8907 13.2852 64.3985 13.2852C63.9141 13.2852 63.5118 13.3828 63.1915 13.5781C62.879 13.7734 62.629 14.043 62.4415 14.3867C62.254 14.7305 62.1212 15.1328 62.043 15.5938C61.9727 16.0547 61.9376 16.5469 61.9376 17.0703C61.9376 18.2656 62.1485 19.1641 62.5704 19.7656C62.9922 20.3672 63.6055 20.668 64.4102 20.668C64.7852 20.6602 65.1251 20.5898 65.4297 20.457C65.7422 20.3164 66.0118 20.1016 66.2383 19.8125C66.4649 19.5234 66.6407 19.1562 66.7657 18.7109C66.8907 18.2656 66.9532 17.7266 66.9532 17.0938Z" fill="white"/>
<path d="M71.5684 17.0938C71.5684 16.2656 71.7012 15.4844 71.9668 14.75C72.2403 14.0078 72.6465 13.3594 73.1856 12.8047C73.7325 12.25 74.4121 11.8086 75.2246 11.4805C76.045 11.1523 77.0059 10.9883 78.1075 10.9883C79.1621 10.9883 80.0957 11.1406 80.9082 11.4453C81.7207 11.75 82.4043 12.1758 82.959 12.7227C83.5137 13.2617 83.9356 13.9062 84.2246 14.6562C84.5137 15.3984 84.6582 16.2109 84.6582 17.0938C84.6582 17.9141 84.5215 18.6914 84.2481 19.4258C83.9746 20.1523 83.5645 20.793 83.0176 21.3477C82.4707 21.8945 81.7871 22.332 80.9668 22.6602C80.1465 22.9805 79.1934 23.1406 78.1075 23.1406C77.0371 23.1406 76.0918 22.9883 75.2715 22.6836C74.459 22.3711 73.7754 21.9453 73.2207 21.4062C72.6739 20.8594 72.2598 20.2188 71.9785 19.4844C71.7051 18.7422 71.5684 17.9453 71.5684 17.0938ZM75.4707 17.0938C75.4707 17.6094 75.5176 18.1016 75.6114 18.5703C75.7051 19.0312 75.8535 19.4375 76.0567 19.7891C76.2676 20.1406 76.541 20.4219 76.877 20.6328C77.2129 20.8359 77.6231 20.9375 78.1075 20.9375C78.5528 20.9375 78.9395 20.8438 79.2676 20.6562C79.6035 20.4688 79.877 20.207 80.0879 19.8711C80.3067 19.5352 80.4707 19.1328 80.5801 18.6641C80.6895 18.1875 80.7442 17.6641 80.7442 17.0938C80.7442 16.5781 80.6934 16.0898 80.5918 15.6289C80.4981 15.1602 80.3457 14.75 80.1348 14.3984C79.9239 14.0391 79.6504 13.7578 79.3145 13.5547C78.9864 13.3438 78.584 13.2383 78.1075 13.2383C77.6309 13.2383 77.2246 13.3398 76.8887 13.543C76.5528 13.7461 76.2793 14.0234 76.0684 14.375C75.8575 14.7266 75.7051 15.1367 75.6114 15.6055C75.5176 16.0742 75.4707 16.5703 75.4707 17.0938Z" fill="white"/>
<path d="M89.6841 7.03906C89.6841 7.29688 89.6255 7.52734 89.5083 7.73047C89.3911 7.92578 89.2388 8.0898 89.0513 8.2227C88.8638 8.3555 88.645 8.457 88.395 8.5273C88.1529 8.5898 87.9029 8.6211 87.645 8.6211C87.3716 8.6211 87.1099 8.5859 86.8599 8.5156C86.6177 8.4453 86.4029 8.3438 86.2154 8.2109C86.0279 8.0703 85.8794 7.90234 85.77 7.70703C85.6607 7.51172 85.606 7.28906 85.606 7.03906C85.606 6.8125 85.6568 6.60547 85.7583 6.41797C85.8677 6.22266 86.0122 6.05469 86.1919 5.91406C86.3716 5.77344 86.5865 5.66406 86.8365 5.58594C87.0865 5.50781 87.3599 5.46875 87.6568 5.46875C87.9146 5.46875 88.1646 5.50391 88.4068 5.57422C88.6568 5.64453 88.8755 5.74609 89.063 5.87891C89.2505 6.01172 89.399 6.17578 89.5083 6.37109C89.6255 6.56641 89.6841 6.78906 89.6841 7.03906ZM89.5083 20.6914C89.5083 21.4336 89.356 22.0039 89.0513 22.4023C88.7544 22.8008 88.2583 23 87.563 23C86.9068 23 86.4419 22.8008 86.1685 22.4023C85.9029 22.0039 85.77 21.4336 85.77 20.6914V13.5195C85.77 12.7773 85.9029 12.207 86.1685 11.8086C86.4419 11.4102 86.9068 11.2109 87.563 11.2109C88.2583 11.2109 88.7544 11.4102 89.0513 11.8086C89.356 12.207 89.5083 12.7773 89.5083 13.5195V20.6914Z" fill="white"/>
<path d="M94.897 17.0703C94.897 17.5938 94.936 18.082 95.0142 18.5352C95.1001 18.9883 95.2407 19.3867 95.436 19.7305C95.6392 20.0664 95.9048 20.332 96.2329 20.5273C96.5688 20.7227 96.9829 20.8203 97.4751 20.8203C97.9282 20.8203 98.3071 20.7266 98.6121 20.5391C98.9241 20.3438 99.1741 20.0781 99.3621 19.7422C99.5491 19.3984 99.6821 18.9961 99.7601 18.5352C99.8461 18.0742 99.8891 17.5742 99.8891 17.0352C99.8891 16.6055 99.8581 16.168 99.7951 15.7227C99.7331 15.2695 99.6161 14.8594 99.4441 14.4922C99.2721 14.125 99.0341 13.8242 98.7291 13.5898C98.4241 13.3555 98.0261 13.2383 97.5337 13.2383C97.0415 13.2383 96.6235 13.3164 96.2798 13.4727C95.9438 13.6289 95.6704 13.8672 95.4595 14.1875C95.2563 14.5078 95.1118 14.9102 95.0259 15.3945C94.9399 15.8711 94.897 16.4297 94.897 17.0703ZM94.8853 13.5195C95.0806 13.1055 95.3306 12.7422 95.6353 12.4297C95.9399 12.1172 96.2759 11.8555 96.6431 11.6445C97.0103 11.4336 97.3931 11.2773 97.7915 11.1758C98.1981 11.0664 98.6001 11.0117 98.9981 11.0117C99.7171 11.0117 100.366 11.1719 100.944 11.4922C101.522 11.8125 102.014 12.25 102.42 12.8047C102.834 13.3516 103.151 14 103.37 14.75C103.588 15.4922 103.698 16.2891 103.698 17.1406C103.698 18.0234 103.58 18.832 103.346 19.5664C103.12 20.3008 102.795 20.9336 102.373 21.4648C101.959 21.9883 101.459 22.3984 100.873 22.6953C100.295 22.9922 99.6511 23.1406 98.9401 23.1406C98.0651 23.1406 97.2837 22.9375 96.5962 22.5312C95.9087 22.125 95.3384 21.5547 94.8853 20.8203V25.0391C94.8853 25.7812 94.7329 26.3516 94.4282 26.75C94.1313 27.1484 93.6353 27.3477 92.9399 27.3477C92.2837 27.3477 91.8188 27.1484 91.5454 26.75C91.2798 26.3516 91.147 25.7812 91.147 25.0391V13.5195C91.147 12.7773 91.2798 12.207 91.5454 11.8086C91.8188 11.4102 92.2837 11.2109 92.9399 11.2109C93.6353 11.2109 94.1313 11.4102 94.4282 11.8086C94.7329 12.207 94.8853 12.7773 94.8853 13.5195Z" fill="white"/>
<path d="M107.821 14.3516C107.821 14.6562 107.954 14.8945 108.219 15.0664C108.485 15.2305 108.852 15.3672 109.321 15.4766C109.766 15.5781 110.223 15.6758 110.692 15.7695C111.161 15.8633 111.618 15.9727 112.063 16.0977C112.508 16.2148 112.926 16.3555 113.317 16.5195C113.707 16.6836 114.051 16.8906 114.348 17.1406C114.645 17.3828 114.879 17.6797 115.051 18.0312C115.223 18.375 115.309 18.7891 115.309 19.2734C115.309 19.8828 115.184 20.4258 114.934 20.9023C114.684 21.3711 114.329 21.7695 113.868 22.0977C113.415 22.4258 112.872 22.6797 112.239 22.8594C111.606 23.0391 110.907 23.1328 110.141 23.1406C109.415 23.1406 108.715 23.0938 108.043 23C107.372 22.9141 106.774 22.7773 106.25 22.5898C105.735 22.4023 105.321 22.1719 105.008 21.8984C104.696 21.6172 104.54 21.2891 104.54 20.9141C104.54 20.5859 104.645 20.332 104.856 20.1523C105.067 19.9727 105.336 19.8828 105.665 19.8828C105.79 19.8828 105.938 19.9062 106.11 19.9531C106.282 20 106.469 20.0586 106.672 20.1289C106.875 20.1992 107.09 20.2773 107.317 20.3633C107.551 20.4414 107.793 20.5117 108.043 20.5742C108.356 20.6602 108.676 20.7305 109.004 20.7852C109.34 20.832 109.684 20.8555 110.036 20.8555C110.254 20.8555 110.469 20.8359 110.68 20.7969C110.891 20.75 111.079 20.6836 111.243 20.5977C111.415 20.5039 111.555 20.3867 111.665 20.2461C111.774 20.1055 111.84 19.9336 111.864 19.7305C111.887 19.6836 111.907 19.6367 111.922 19.5898C111.938 19.543 111.946 19.4883 111.946 19.4258C111.946 19.207 111.844 19.0117 111.641 18.8398C111.446 18.668 111.168 18.5312 110.809 18.4297C110.207 18.2891 109.633 18.1602 109.086 18.043C108.54 17.9258 108.032 17.8008 107.563 17.668C107.102 17.5352 106.68 17.3828 106.297 17.2109C105.922 17.0391 105.602 16.8281 105.336 16.5781C105.079 16.3281 104.875 16.0273 104.727 15.6758C104.586 15.3242 104.516 14.8984 104.516 14.3984C104.516 13.8594 104.637 13.3789 104.879 12.957C105.129 12.5273 105.485 12.168 105.946 11.8789C106.407 11.5898 106.965 11.3711 107.622 11.2227C108.278 11.0664 109.02 10.9883 109.848 10.9883C111.332 10.9883 112.461 11.168 113.235 11.5273C114.016 11.8789 114.407 12.3398 114.407 12.9102C114.407 13.2305 114.301 13.4766 114.09 13.6484C113.879 13.8125 113.625 13.8945 113.329 13.8945C113.172 13.8945 113.008 13.8672 112.836 13.8125C112.672 13.75 112.473 13.6836 112.239 13.6133C112.004 13.5352 111.723 13.4688 111.395 13.4141C111.075 13.3516 110.676 13.3203 110.2 13.3203C109.84 13.3203 109.512 13.3359 109.215 13.3672C108.926 13.3984 108.676 13.4531 108.465 13.5312C108.262 13.6094 108.102 13.7148 107.985 13.8477C107.875 13.9805 107.821 14.1484 107.821 14.3516Z" fill="white"/>
<path d="M120.065 18.6523C120.065 19.0195 120.112 19.3398 120.206 19.6133C120.307 19.8867 120.444 20.1172 120.616 20.3047C120.788 20.4844 120.987 20.6211 121.213 20.7148C121.448 20.8008 121.698 20.8438 121.963 20.8438C122.276 20.8438 122.577 20.7969 122.866 20.7031C123.155 20.6094 123.409 20.4648 123.628 20.2695C123.854 20.0742 124.034 19.8281 124.167 19.5312C124.299 19.2344 124.366 18.8867 124.366 18.4883V13.5195C124.366 12.7773 124.499 12.207 124.764 11.8086C125.038 11.4102 125.503 11.2109 126.159 11.2109C126.854 11.2109 127.35 11.4102 127.647 11.8086C127.952 12.207 128.104 12.7773 128.104 13.5195V20.6914C128.104 21.4336 127.952 22.0039 127.647 22.4023C127.35 22.8008 126.854 23 126.159 23C125.503 23 125.038 22.8008 124.764 22.4023C124.499 22.0039 124.366 21.4336 124.366 20.6914C124.202 21.0508 123.987 21.3789 123.721 21.6758C123.463 21.9727 123.159 22.2305 122.807 22.4492C122.463 22.6602 122.081 22.8242 121.659 22.9414C121.245 23.0586 120.795 23.1172 120.311 23.1172C119.788 23.1172 119.284 23.0273 118.799 22.8477C118.323 22.6602 117.901 22.3867 117.534 22.0273C117.167 21.6602 116.874 21.207 116.655 20.668C116.436 20.1289 116.327 19.5 116.327 18.7812V13.5195C116.327 12.7773 116.46 12.207 116.725 11.8086C116.999 11.4102 117.463 11.2109 118.12 11.2109C118.815 11.2109 119.311 11.4102 119.608 11.8086C119.913 12.207 120.065 12.7773 120.065 13.5195V18.6523Z" fill="white"/>
<path d="M129.801 13.5195C129.801 12.7773 129.934 12.207 130.2 11.8086C130.473 11.4102 130.938 11.2109 131.594 11.2109C132.29 11.2109 132.786 11.4102 133.083 11.8086C133.387 12.207 133.54 12.7773 133.54 13.5195C133.696 13.1445 133.907 12.8047 134.173 12.5C134.446 12.1875 134.755 11.9219 135.098 11.7031C135.45 11.4844 135.829 11.3164 136.235 11.1992C136.641 11.0742 137.063 11.0117 137.501 11.0117C137.907 11.0117 138.305 11.0664 138.696 11.1758C139.094 11.2773 139.462 11.4453 139.798 11.6797C140.141 11.9062 140.442 12.1953 140.7 12.5469C140.958 12.8984 141.157 13.3203 141.298 13.8125C141.54 13.2891 141.825 12.8477 142.153 12.4883C142.481 12.1289 142.837 11.8398 143.219 11.6211C143.602 11.4023 144.001 11.2461 144.415 11.1523C144.837 11.0586 145.258 11.0117 145.68 11.0117C146.18 11.0117 146.657 11.1016 147.11 11.2812C147.571 11.4609 147.973 11.7344 148.317 12.1016C148.669 12.4609 148.946 12.918 149.149 13.4727C149.36 14.0195 149.465 14.6602 149.465 15.3945V20.6914C149.465 21.4336 149.313 22.0039 149.008 22.4023C148.712 22.8008 148.215 23 147.52 23C146.864 23 146.399 22.8008 146.126 22.4023C145.86 22.0039 145.727 21.4336 145.727 20.6914V15.5586C145.727 15.207 145.68 14.8945 145.587 14.6211C145.493 14.3398 145.36 14.1055 145.188 13.918C145.024 13.7227 144.829 13.5781 144.602 13.4844C144.376 13.3828 144.133 13.332 143.876 13.332C143.555 13.332 143.251 13.3828 142.962 13.4844C142.673 13.5859 142.419 13.7422 142.2 13.9531C141.989 14.1641 141.817 14.4336 141.684 14.7617C141.559 15.0898 141.497 15.4844 141.497 15.9453V20.6914C141.497 21.4336 141.344 22.0039 141.04 22.4023C140.743 22.8008 140.247 23 139.551 23C138.895 23 138.43 22.8008 138.157 22.4023C137.891 22.0039 137.758 21.4336 137.758 20.6914V15.7812C137.758 14.9766 137.59 14.3672 137.255 13.9531C136.926 13.5391 136.477 13.332 135.907 13.332C135.571 13.332 135.258 13.3867 134.969 13.4961C134.68 13.6055 134.43 13.7656 134.219 13.9766C134.008 14.1875 133.84 14.4492 133.715 14.7617C133.598 15.0742 133.54 15.4336 133.54 15.8398V20.6914C133.54 21.4336 133.387 22.0039 133.083 22.4023C132.786 22.8008 132.29 23 131.594 23C130.938 23 130.473 22.8008 130.2 22.4023C129.934 22.0039 129.801 21.4336 129.801 20.6914V13.5195Z" fill="white"/>
<path d="M15 21C11.6863 21 9 18.3137 9 15C9 11.6863 11.6863 9 15 9C18.3137 9 21 11.6863 21 15C21 18.3137 18.3137 21 15 21Z" fill="white"/>
<path d="M3.37605 17.0497C1.6373 17.3563 0.445476 19.0359 1.11293 20.6705C2.04477 22.9525 3.5314 24.9857 5.45871 26.5745C8.21462 28.8462 11.6906 30.0601 15.2616 29.9978C18.8326 29.9355 22.2642 28.601 24.9392 26.2344C26.8098 24.5794 28.2246 22.4955 29.0763 20.1824C29.6863 18.5255 28.4365 16.8885 26.6881 16.6428C24.9398 16.3971 23.37 17.6697 22.5064 19.2097C22.0383 20.0444 21.4306 20.8017 20.7026 21.4458C19.1678 22.8037 17.1989 23.5693 15.1501 23.6051C13.1012 23.6408 11.1068 22.9444 9.52562 21.6409C8.77552 21.0226 8.14182 20.287 7.64483 19.4691C6.72804 17.9602 5.1148 16.7431 3.37605 17.0497Z" fill="white"/>
<path d="M29.884 16.8745C29.9606 16.2604 30 15.6348 30 15C30 6.71573 23.2843 0 15 0C6.71573 0 0 6.71573 0 15C0 15.8147 0.06495 16.6142 0.18996 17.3937C0.87894 16.4505 1.95426 15.7772 3.11576 15.5724C4.37245 15.3508 5.51458 15.6556 6.48027 16.2253C6.42322 15.8251 6.3937 15.416 6.3937 15C6.3937 10.2469 10.2469 6.3937 15 6.3937C19.7531 6.3937 23.6063 10.2469 23.6063 15C23.6063 15.3134 23.5895 15.6229 23.5569 15.9276C24.5022 15.3243 25.6332 14.9796 26.8971 15.1573C28.0647 15.3214 29.1625 15.9564 29.884 16.8745Z" fill="white"/>
</svg>
