<svg width="256" height="256" viewBox="0 0 256 256" fill="none" xmlns="http://www.w3.org/2000/svg">
<rect width="256" height="256" rx="8" fill="#517DF5"/>
<path d="M52.8206 158.5H92.5406V146.646H67.417V98.1091H52.8206V158.5ZM100.097 158.5H114.693V139.746H124.601C138.431 139.746 147.071 131.548 147.071 119.016C147.071 106.602 138.608 98.1091 125.043 98.1091H100.097V158.5ZM114.693 128.246V109.875H121.888C128.435 109.875 131.944 113.413 131.944 119.016C131.944 124.589 128.435 128.246 121.888 128.246H114.693ZM160.112 158.5L164.093 145.82H184.94L188.921 158.5H204.609L184.233 98.1091H164.8L144.424 158.5H160.112ZM167.572 134.733L174.266 113.325H174.738L181.461 134.733H167.572Z" fill="white"/>
</svg>
