<svg width="127" height="30" viewBox="0 0 127 30" fill="none" xmlns="http://www.w3.org/2000/svg">
<path d="M35.9897 9.03061H39.1997V22.0306H35.9897V9.03061ZM40.4797 17.1406C40.4797 13.9206 42.4797 11.9906 45.4797 11.9906C48.4797 11.9906 50.4797 13.9206 50.4797 17.1406C50.4797 20.3606 48.5497 22.3106 45.4797 22.3106C42.4097 22.3106 40.4797 20.4306 40.4797 17.1406ZM47.2997 17.1406C47.2997 15.3706 46.6097 14.3306 45.5097 14.3306C44.4097 14.3306 43.7297 15.3306 43.7297 17.1406C43.7297 18.9506 44.4097 19.9406 45.5097 19.9406C46.6097 19.9406 47.3197 18.9506 47.3197 17.1506L47.2997 17.1406ZM51.7597 22.7006H54.8597C55.0008 23.0343 55.2473 23.3128 55.5615 23.4933C55.8757 23.6739 56.2403 23.7467 56.5997 23.7006C57.8297 23.7006 58.4697 23.0406 58.4697 22.0606V20.2606H58.4797C58.2148 20.8211 57.7864 21.2882 57.251 21.6006C56.7155 21.913 56.098 22.0559 55.4797 22.0106C53.1297 22.0106 51.5697 20.2206 51.5697 17.1406C51.5697 14.0606 53.0597 12.1406 55.5697 12.1406C56.2038 12.1067 56.8329 12.2702 57.3701 12.6087C57.9074 12.9472 58.3265 13.444 58.5697 14.0306H58.4797V12.2206H61.6597V21.9606C61.6597 24.3106 59.5797 25.7806 56.5197 25.7806C53.7397 25.7706 51.9597 24.5006 51.7797 22.7106L51.7597 22.7006ZM58.4797 17.1406C58.4797 15.5706 57.7597 14.5806 56.6197 14.5806C55.4797 14.5806 54.7797 15.5806 54.7797 17.1406C54.7797 18.7006 55.4697 19.6206 56.6197 19.6206C57.7697 19.6206 58.4797 18.7706 58.4797 17.1406ZM62.9297 17.1406C62.9297 13.9206 64.9297 11.9906 67.9297 11.9906C70.9297 11.9906 72.9297 13.9206 72.9297 17.1406C72.9297 20.3606 70.9897 22.3106 67.9297 22.3106C64.8697 22.3106 62.9497 20.4306 62.9497 17.1406H62.9297ZM69.7497 17.1406C69.7497 15.3706 69.0498 14.3306 67.9598 14.3306C66.8698 14.3306 66.1797 15.3306 66.1797 17.1406C66.1797 18.9506 66.8598 19.9406 67.9598 19.9406C69.0597 19.9406 69.7697 18.9506 69.7697 17.1506L69.7497 17.1406ZM74.2297 9.85061C74.2157 9.52361 74.2999 9.19991 74.4714 8.92121C74.6429 8.64241 74.894 8.42141 75.1922 8.28651C75.4903 8.15151 75.822 8.10891 76.1446 8.16411C76.4673 8.21921 76.7659 8.36961 77.0023 8.59591C77.2387 8.82231 77.4021 9.11411 77.4712 9.43401C77.5403 9.75391 77.5122 10.0872 77.3904 10.3909C77.2686 10.6947 77.0587 10.9551 76.7877 11.1386C76.5167 11.3221 76.197 11.4203 75.8697 11.4206C75.6606 11.4259 75.4524 11.3896 75.2575 11.3139C75.0625 11.2381 74.8843 11.1243 74.7336 10.9792C74.5829 10.8341 74.4626 10.6605 74.3796 10.4684C74.2965 10.2764 74.2523 10.0698 74.2497 9.86061L74.2297 9.85061ZM74.2297 12.2106H77.4797V22.0706H74.2798L74.2297 12.2106ZM89.1698 17.1406C89.1698 20.3506 87.7298 22.2106 85.2798 22.2106C84.6525 22.2493 84.0285 22.0945 83.492 21.7673C82.9555 21.44 82.5325 20.956 82.2798 20.3806H82.2197V25.2406H79.0097V12.2406H82.1997V14.0006H82.2597C82.5037 13.4139 82.9227 12.9166 83.4595 12.5766C83.9964 12.2366 84.625 12.0704 85.2597 12.1006C87.7797 12.0806 89.2297 13.9306 89.2297 17.1506L89.1698 17.1406ZM85.8997 17.1406C85.8997 15.5806 85.1697 14.5706 84.0397 14.5706C82.9097 14.5706 82.1997 15.5706 82.1897 17.1406C82.1797 18.7106 82.9097 19.7006 84.0397 19.7006C85.1697 19.7006 85.9598 18.7706 85.9598 17.1506L85.8997 17.1406ZM94.6497 11.9806C97.3397 11.9806 99.0098 13.2506 99.0298 15.2906H96.0998C96.0998 14.5806 95.5098 14.1406 94.6297 14.1406C93.7497 14.1406 93.3297 14.4806 93.3297 14.9906C93.3297 15.5006 93.6997 15.6606 94.4397 15.8106L96.4997 16.2306C98.4997 16.6506 99.2997 17.4506 99.2997 18.9406C99.2997 20.9406 97.4497 22.3006 94.6997 22.3006C91.9497 22.3006 90.1598 20.9806 90.0298 18.9706H93.1398C93.2298 19.7006 93.8097 20.1306 94.7497 20.1306C95.6897 20.1306 96.1297 19.8306 96.1297 19.3006C96.1297 18.7706 95.8298 18.6806 95.0597 18.5206L93.1997 18.1306C91.2697 17.7206 90.2597 16.7106 90.2597 15.2006C90.3197 13.2406 91.9998 11.9906 94.7098 11.9906L94.6497 11.9806ZM110.05 22.0606H106.94V20.2106H106.88C106.706 20.8277 106.327 21.367 105.805 21.7396C105.283 22.1123 104.65 22.296 104.01 22.2606C103.527 22.2763 103.045 22.1897 102.598 22.0063C102.151 21.823 101.747 21.5471 101.414 21.1968C101.08 20.8464 100.825 20.4295 100.664 19.9735C100.503 19.5175 100.44 19.0325 100.48 18.5506V12.2206H103.69V17.8606C103.69 19.0206 104.3 19.6506 105.3 19.6506C105.535 19.6488 105.766 19.5967 105.979 19.4979C106.192 19.399 106.381 19.2556 106.533 19.0774C106.686 18.8992 106.799 18.6903 106.864 18.4649C106.928 18.2394 106.944 18.0027 106.91 17.7706V12.2206H110.11L110.05 22.0606ZM111.6 12.2106H114.72V14.1106H114.79C114.962 13.5019 115.332 12.9676 115.84 12.5912C116.349 12.2149 116.968 12.0177 117.6 12.0306C118.235 11.9754 118.868 12.159 119.374 12.5455C119.881 12.932 120.225 13.4937 120.34 14.1206H120.48C120.68 13.4903 121.082 12.9437 121.625 12.5658C122.167 12.1878 122.82 11.9997 123.48 12.0306C123.919 12.0139 124.357 12.0901 124.764 12.2542C125.172 12.4182 125.54 12.6665 125.845 12.9828C126.15 13.299 126.384 13.6761 126.533 14.0893C126.683 14.5025 126.743 14.9425 126.71 15.3806V22.0706H123.48V16.2006C123.48 15.2006 123.01 14.6406 122.1 14.6406C121.898 14.6373 121.698 14.6777 121.513 14.7589C121.328 14.8402 121.164 14.9605 121.03 15.1115C120.896 15.2626 120.796 15.4407 120.737 15.6339C120.679 15.8271 120.663 16.0306 120.69 16.2306V22.0706H117.63V16.1706C117.63 15.1706 117.14 14.6406 116.26 14.6406C116.056 14.639 115.854 14.681 115.668 14.7638C115.481 14.8467 115.315 14.9684 115.179 15.1209C115.044 15.2734 114.943 15.4531 114.883 15.6479C114.822 15.8428 114.804 16.0483 114.83 16.2506V22.0706H111.62L111.6 12.2106Z" fill="#535868"/>
<path d="M29.64 9.88048C29.6401 7.89018 29.0391 5.94624 27.9157 4.3033C26.7923 2.66036 25.1988 1.39501 23.3441 0.673008C21.4894 -0.0490021 19.4598 -0.194002 17.5213 0.256988C15.5827 0.707978 13.8256 1.73394 12.48 3.20048H0V29.5405H26.35V17.2305C27.3842 16.3055 28.2118 15.1728 28.7787 13.9063C29.3456 12.6398 29.6391 11.2681 29.64 9.88048ZM24.57 9.88048C24.572 10.8342 24.291 11.7671 23.7626 12.5611C23.2341 13.355 22.4821 13.9744 21.6015 14.3407C20.7209 14.7071 19.7515 14.804 18.8158 14.6191C17.8802 14.4343 17.0204 13.976 16.3453 13.3023C15.6702 12.6286 15.2102 11.7698 15.0234 10.8345C14.8366 9.89928 14.9315 8.92958 15.296 8.04828C15.6605 7.16694 16.2783 6.41357 17.0711 5.8835C17.864 5.35343 18.7963 5.07049 19.75 5.07048C21.0266 5.07048 22.2511 5.57693 23.1547 6.47869C24.0584 7.38045 24.5674 8.60388 24.57 9.88048ZM21.28 24.4705H5.07V8.27048H10.01C9.91458 8.80198 9.86438 9.34058 9.85998 9.88048C9.86268 12.5027 10.9055 15.0167 12.7597 16.8709C14.6138 18.725 17.1278 19.7679 19.75 19.7705C20.2627 19.7678 20.7743 19.7243 21.28 19.6405V24.4705Z" fill="#535868"/>
</svg>
