<svg width="696" height="430" viewBox="0 0 696 430" fill="none" xmlns="http://www.w3.org/2000/svg">
<g clip-path="url(#clip0)">
<path fill-rule="evenodd" clip-rule="evenodd" d="M275.308 376.599C311.876 334.546 341.975 300.087 379.387 258.878C404.844 230.889 431.707 203.603 462.087 180.818C473.902 171.958 485.997 163.097 499.64 157.19C602.031 112.745 618.205 244.672 621.018 312.323C622.706 353.814 617.221 400.087 615.955 441.578C614.97 478.709 607.657 532.436 604.844 569.426L513.142 569.848L492.608 407.26L486.56 359.44L397.952 490.242L295.561 485.179L275.308 376.599Z" fill="#DFE6F2"/>
<path fill-rule="evenodd" clip-rule="evenodd" d="M513.142 570.973C512.579 570.973 512.158 570.551 512.158 570.129L485.997 362.394L398.796 490.945C398.655 491.226 398.233 491.367 397.952 491.367L295.561 486.304C295.139 486.304 294.717 485.882 294.577 485.46L274.323 376.88C274.323 376.599 274.323 376.318 274.605 376.037C308.641 336.937 340.006 301.072 378.684 258.315C401.468 233.28 429.176 204.307 461.525 180.115C474.323 170.551 485.997 162.112 499.218 156.346C526.644 144.391 549.992 144.391 568.698 156.065C608.36 180.959 619.612 254.799 622.003 312.464C623.128 338.624 621.3 366.754 619.471 394.039C618.487 409.932 617.361 426.388 616.94 441.719C616.377 464.785 613.283 494.039 610.329 522.169C608.501 539.328 606.813 555.643 605.828 569.567C605.828 570.129 605.406 570.411 604.844 570.411L513.142 570.973ZM486.56 358.596C486.7 358.596 486.7 358.596 486.841 358.596C487.263 358.737 487.544 359.018 487.544 359.44L513.986 569.004L604 568.582C605.125 554.799 606.672 538.906 608.501 522.028C611.454 493.758 614.408 464.644 615.111 441.719C615.533 426.248 616.658 409.792 617.643 393.899C619.471 366.613 621.159 338.484 620.174 312.464C617.783 255.361 606.813 182.084 567.854 157.752C549.851 146.36 527.066 146.641 500.203 158.174C487.122 163.8 475.589 172.098 462.931 181.662C430.723 205.713 403.156 234.546 380.371 259.581C341.693 302.056 310.47 337.921 276.574 376.88L296.546 484.335L397.671 489.398L485.997 359.159C485.857 358.737 486.278 358.596 486.56 358.596Z" fill="#101C3D"/>
<path fill-rule="evenodd" clip-rule="evenodd" d="M159.977 126.247C126.925 120.34 105.828 89.398 115.533 62.1125C124.816 36.0928 201.328 25.1223 201.328 25.1223C201.328 25.1223 220.456 137.218 159.977 126.247Z" fill="#DFE6F2"/>
<path fill-rule="evenodd" clip-rule="evenodd" d="M285.575 202.619L412.158 302.9L306.11 406.135L194.436 300.087L285.575 202.619Z" fill="#DFE6F2"/>
<path fill-rule="evenodd" clip-rule="evenodd" d="M306.11 407.119C305.828 407.119 305.688 406.979 305.406 406.838L193.733 300.79C193.311 300.368 193.311 299.806 193.733 299.384L284.872 201.916C285.153 201.494 285.857 201.494 286.138 201.775L412.72 302.056C413.001 302.197 413.142 302.478 413.142 302.759C413.142 303.041 413.001 303.322 412.861 303.463L306.813 406.698C306.672 406.979 306.391 407.119 306.11 407.119ZM195.842 300.087L306.11 404.869L410.751 303.041L285.716 204.025L195.842 300.087Z" fill="#101C3D"/>
<path fill-rule="evenodd" clip-rule="evenodd" d="M246.194 284.897C246.897 287.992 252.383 283.069 255.055 281.241C260.821 277.162 267.15 273.224 272.495 268.723C293.451 251.283 315.252 230.326 329.457 207.401C329.457 207.401 308.501 187.57 276.011 176.318C243.522 165.066 175.73 169.708 175.73 169.708L205.828 251.001L246.194 284.897Z" fill="#4070F4"/>
<path fill-rule="evenodd" clip-rule="evenodd" d="M110.751 170.129L149.007 103.041L177.136 116.543C177.136 116.543 176.996 143.828 175.449 161.972C173.902 180.115 190.92 211.058 190.92 211.058L141.834 214.855L110.751 170.129Z" fill="#DFE6F2"/>
<path fill-rule="evenodd" clip-rule="evenodd" d="M141.834 215.699C141.553 215.699 141.271 215.558 140.99 215.277L109.907 170.692C109.626 170.411 109.626 169.989 109.907 169.707L148.163 102.619C148.444 102.197 149.007 102.056 149.429 102.197L177.558 115.699C177.84 115.84 178.121 116.262 178.121 116.543C178.121 116.824 177.98 144.11 176.433 162.113C174.886 179.834 191.623 210.214 191.764 210.636C191.904 210.917 191.904 211.339 191.764 211.62C191.623 211.902 191.342 212.042 190.92 212.183L141.834 215.699C141.975 215.699 141.975 215.699 141.834 215.699ZM111.876 169.989L142.397 213.73L189.513 210.073C186.278 203.885 173.198 178.146 174.605 161.831C176.011 145.376 176.152 121.184 176.152 117.105L149.429 104.307L111.876 169.989Z" fill="#101C3D"/>
<path fill-rule="evenodd" clip-rule="evenodd" d="M196.264 191.789C198.796 202.9 243.1 255.502 243.1 255.502L292.889 420.2C292.889 420.2 17.6427 436.796 16.5176 425.966C16.0956 421.606 4.28129 287.851 20.8776 239.187C44.7876 169.285 92.4669 160.143 92.4669 160.143L196.264 191.789Z" fill="#4070F4"/>
<path fill-rule="evenodd" clip-rule="evenodd" d="M46.616 599.806L18.7679 428.638L268.979 407.401C369.682 392.07 391.342 446.501 492.608 453.111C504.985 453.955 565.885 477.302 565.885 477.302C565.885 477.302 601.75 502.197 608.501 520.34C621.44 554.939 570.385 654.799 570.385 654.799L362.228 662.394L46.616 599.806Z" fill="#2BD67B"/>
<path fill-rule="evenodd" clip-rule="evenodd" d="M492.889 449.736C492.467 449.736 492.045 449.454 491.904 448.892C487.404 419.778 484.028 392.211 480.512 362.816C478.965 349.876 477.277 336.515 475.589 322.872C475.449 321.888 475.308 320.903 475.167 319.918C474.605 315.84 474.042 312.324 475.449 307.682C475.589 307.26 476.152 306.979 476.574 307.12C476.996 307.26 477.277 307.823 477.136 308.245C475.871 312.324 476.293 315.558 476.855 319.637C476.996 320.622 477.136 321.606 477.277 322.591C478.965 336.234 480.653 349.595 482.2 362.535C485.716 391.789 489.091 419.497 493.592 448.47C493.733 449.032 493.311 449.454 492.748 449.595C493.03 449.736 493.03 449.736 492.889 449.736Z" fill="#101C3D"/>
<path fill-rule="evenodd" clip-rule="evenodd" d="M536.335 285.422C536.335 285.422 617.488 161.512 626.349 156.589C674.028 130.148 695.266 68.5442 695.266 68.5442L644.774 33.2418L614.113 57.8551C614.113 57.8551 624.52 -0.0914993 602.017 16.2236C599.063 18.3333 595.547 40.8368 581.623 66.4345C567.699 91.8916 546.18 118.333 546.18 118.333C546.18 118.333 483.873 186.547 475.997 194.705L536.335 285.422Z" fill="#DFE6F2"/>
<path fill-rule="evenodd" clip-rule="evenodd" d="M536.335 286.406C536.053 286.406 535.632 286.266 535.491 285.985L475.153 195.127C474.872 194.705 475.013 194.283 475.294 193.861C483.03 185.844 544.774 118.193 545.336 117.63C545.477 117.349 566.855 91.0478 580.639 65.872C589.218 50.2602 593.859 35.7735 596.813 26.3502C599.063 19.4585 600.048 16.3643 601.314 15.3797C605.674 12.1448 609.331 11.4416 612.003 13.1294C620.442 18.474 616.925 46.1814 615.378 55.3235L643.93 32.398C644.211 32.1167 644.774 32.1167 645.055 32.398L695.547 67.7004C695.969 67.9817 696.11 68.4036 695.969 68.8256C695.688 69.3882 674.028 130.992 626.63 157.293C619.738 161.09 564.886 243.087 536.897 285.844C537.038 286.266 536.757 286.406 536.335 286.406ZM477.263 194.705L536.335 283.594C545.336 269.81 617.207 160.387 625.927 155.605C669.949 131.132 691.609 75.7173 694.141 68.8256L644.774 34.3671L614.675 58.4177C614.394 58.699 613.972 58.699 613.55 58.5583C613.128 58.4177 612.987 57.9958 613.128 57.5738C614.956 47.1659 618.191 19.3178 611.018 14.8171C609.049 13.5513 606.236 14.2546 602.579 16.9268C601.736 17.4894 600.329 21.8495 598.782 26.9128C595.688 36.4768 591.046 50.9634 582.467 66.8565C568.543 92.173 547.024 118.615 546.883 118.896C546.18 119.599 486.968 184.578 477.263 194.705Z" fill="#101C3D"/>
<path fill-rule="evenodd" clip-rule="evenodd" d="M198.374 71.2546C208.36 87.1477 214.549 101.634 218.065 111.902C226.082 133.842 203.578 149.876 197.39 150.158C176.714 149.736 165.744 142.141 159.415 131.733C152.101 119.778 146.053 96.4304 144.647 91.0858C143.522 85.7412 161.384 81.0999 168.416 76.5992C175.589 72.3798 193.733 64.2222 198.374 71.2546Z" fill="#DFE6F2"/>
<path fill-rule="evenodd" clip-rule="evenodd" d="M197.39 151.142C178.684 150.861 166.025 144.532 158.571 132.155C153.789 124.278 148.585 109.792 143.662 91.2264C142.678 86.8664 150.273 83.6315 158.29 80.1153C161.947 78.5682 165.463 77.0211 167.854 75.6146C168.135 75.474 193.03 61.128 199.077 70.5513C209.345 86.8664 215.533 101.775 218.768 111.48C222.706 122.309 219.19 131.311 215.674 136.937C210.188 145.376 201.328 151.001 197.39 151.142ZM191.764 69.4261C185.013 69.4261 174.464 74.0675 168.838 77.3024C166.447 78.8495 162.79 80.3966 159.134 81.9437C153.226 84.4754 144.928 87.9915 145.631 90.6638C150.413 108.948 155.617 123.294 160.259 131.03C167.432 142.844 179.527 148.751 197.39 149.032C200.203 148.892 208.641 144.11 214.127 135.671C217.502 130.467 220.737 122.169 217.08 112.042C213.705 102.478 207.657 87.7103 197.53 71.5358C196.405 70.1294 194.436 69.4261 191.764 69.4261Z" fill="#101C3D"/>
<path fill-rule="evenodd" clip-rule="evenodd" d="M199.499 113.308C199.359 113.308 199.359 113.308 199.218 113.308C198.655 113.167 198.374 112.605 198.515 112.183L199.921 107.401L193.873 104.025C193.733 103.885 193.592 103.885 193.592 103.744L186.982 92.7735C186.7 92.3516 186.841 91.789 187.263 91.5077C187.685 91.2264 188.248 91.367 188.529 91.789L195.139 102.619L201.609 106.276C202.031 106.557 202.172 106.979 202.031 107.401L200.484 112.886C200.343 113.027 199.921 113.308 199.499 113.308Z" fill="#101C3D"/>
<path fill-rule="evenodd" clip-rule="evenodd" d="M200.765 124.278C197.53 124.278 194.155 122.731 191.764 120.2C191.482 119.778 191.482 119.215 191.764 118.934C192.186 118.653 192.748 118.653 193.03 118.934C195.139 121.184 198.233 122.591 201.187 122.309C201.75 122.309 202.172 122.731 202.172 123.153C202.172 123.716 201.75 124.138 201.328 124.138C201.046 124.278 200.906 124.278 200.765 124.278Z" fill="#101C3D"/>
<path fill-rule="evenodd" clip-rule="evenodd" d="M163.212 106.838C163.212 106.838 166.307 102.056 172.073 99.8059C177.98 97.2742 183.606 99.3839 183.606 99.3839C183.606 99.3839 181.496 104.869 174.323 107.682C168.979 109.932 163.212 106.838 163.212 106.838Z" fill="#D8D8D8"/>
<path fill-rule="evenodd" clip-rule="evenodd" d="M181.778 102.056C181.778 102.197 179.387 105.15 176.011 106.838C172.636 108.667 169.401 108.245 169.401 108.245C168.416 106.276 167.432 103.181 172.917 99.9466C177.277 98.3994 181.215 100.087 181.778 102.056Z" fill="#101C3D"/>
<path fill-rule="evenodd" clip-rule="evenodd" d="M207.938 88.5541C202.594 90.3825 199.499 93.8987 199.499 93.8987C199.499 93.8987 204.563 97.8368 210.751 96.2897C211.314 96.149 211.736 96.149 212.298 95.8677C211.876 95.1645 207.938 88.6947 207.938 88.5541Z" fill="#D8D8D8"/>
<path fill-rule="evenodd" clip-rule="evenodd" d="M211.314 93.4767C210.892 92.9141 210.329 92.0703 209.907 91.5077C209.767 91.367 209.485 90.9451 209.345 90.6638C209.204 90.6638 208.782 89.2573 208.501 89.2573C203.719 90.1012 202.594 93.758 203.015 95.8677C203.015 95.8677 205.828 97.2742 209.485 96.7116C210.61 96.571 211.595 96.2897 212.439 95.8677C212.298 95.0239 211.876 94.18 211.314 93.4767Z" fill="#101C3D"/>
<path fill-rule="evenodd" clip-rule="evenodd" d="M161.947 91.9297C161.103 91.9297 160.118 91.9297 159.415 91.5077C158.571 91.0858 157.868 90.3825 158.008 89.5387C158.008 88.4135 159.134 87.5696 160.118 87.1477C164.056 85.1786 168.698 84.616 173.058 85.3192C174.605 85.4599 176.433 86.3038 176.855 88.1322C176.996 89.6793 176.011 90.1012 174.745 90.5232C170.385 91.5077 166.166 91.9297 161.947 91.9297Z" fill="#101C3D"/>
<path fill-rule="evenodd" clip-rule="evenodd" d="M197.53 83.0689C196.968 83.2096 196.124 83.2096 195.561 83.0689C194.999 82.9283 194.436 82.2251 194.155 81.6625C194.014 80.6779 194.717 79.8341 195.28 79.2715C198.093 77.1618 201.187 76.1772 204.563 76.1772C205.688 76.1772 207.094 76.5992 207.657 78.0057C208.079 79.1308 207.235 79.8341 206.532 80.1154C203.859 81.5218 200.624 82.5064 197.53 83.0689Z" fill="#101C3D"/>
<path fill-rule="evenodd" clip-rule="evenodd" d="M153.789 111.48C151.961 108.104 148.304 105.994 144.506 105.994C140.709 106.135 137.052 108.807 136.067 112.323C135.083 115.84 136.911 120.2 140.146 121.887C142.537 122.872 145.069 122.872 147.46 122.028C149.851 121.184 151.961 119.918 153.93 118.231" fill="#DFE6F2"/>
<path fill-rule="evenodd" clip-rule="evenodd" d="M144.084 123.716C142.678 123.716 141.131 123.435 139.865 122.872C136.067 120.903 134.098 116.121 135.224 112.042C136.349 108.245 140.287 105.291 144.506 105.01C148.726 105.01 152.804 107.401 154.633 111.058C154.914 111.48 154.774 112.183 154.211 112.324C153.789 112.605 153.086 112.324 152.945 111.902C151.398 108.948 148.022 106.979 144.647 106.979C141.271 107.12 138.037 109.511 137.193 112.605C136.349 115.699 137.896 119.637 140.849 121.044C142.819 121.888 145.069 121.888 147.319 121.184C149.288 120.481 151.257 119.356 153.508 117.668C153.93 117.387 154.492 117.387 154.914 117.809C155.195 118.231 155.195 118.793 154.774 119.215C152.383 121.044 150.132 122.309 148.022 123.153C146.475 123.435 145.21 123.716 144.084 123.716Z" fill="#101C3D"/>
<path fill-rule="evenodd" clip-rule="evenodd" d="M148.866 117.809C148.444 117.809 148.163 117.527 148.022 117.246C147.179 114.855 144.647 113.167 142.115 113.308C141.553 113.308 141.131 112.886 141.131 112.464C141.131 112.042 141.553 111.48 141.975 111.48C145.35 111.198 148.726 113.449 149.851 116.684C149.992 117.106 149.71 117.668 149.288 117.809C149.007 117.809 148.866 117.809 148.866 117.809Z" fill="#101C3D"/>
<path fill-rule="evenodd" clip-rule="evenodd" d="M144.084 116.824C143.944 116.824 143.803 116.824 143.803 116.824C143.381 116.684 143.1 116.121 143.24 115.558C143.662 114.433 144.788 113.449 146.335 113.167C146.897 113.027 147.319 113.449 147.46 113.871C147.601 114.433 147.179 114.855 146.757 114.996C146.194 115.136 145.35 115.558 145.069 116.262C144.788 116.543 144.506 116.824 144.084 116.824Z" fill="#101C3D"/>
<path fill-rule="evenodd" clip-rule="evenodd" d="M588.515 130.992C588.374 130.992 588.093 130.992 587.952 130.851C587.53 130.57 587.39 130.007 587.812 129.585C596.672 117.911 611.44 108.347 626.349 104.831C630.709 103.847 634.928 103.284 639.007 103.284C639.57 103.284 639.992 103.706 639.992 104.269C639.992 104.831 639.57 105.253 639.007 105.253C635.069 105.253 630.99 105.816 626.771 106.8C612.143 110.316 597.797 119.458 589.218 130.851C589.077 130.851 588.796 130.992 588.515 130.992Z" fill="#101C3D"/>
<path fill-rule="evenodd" clip-rule="evenodd" d="M653.353 98.3614C653.072 98.3614 652.65 98.2208 652.509 97.9395C652.228 97.5176 652.369 96.955 652.79 96.6737C653.072 96.533 677.544 82.187 683.17 61.3713C683.311 60.8087 683.873 60.5274 684.295 60.668C684.858 60.8087 685.139 61.3713 684.999 61.7932C681.904 73.045 673.606 82.3277 667.136 88.2349C660.104 94.564 654.056 98.0801 653.775 98.2208C653.634 98.3614 653.494 98.3614 653.353 98.3614Z" fill="#101C3D"/>
<path fill-rule="evenodd" clip-rule="evenodd" d="M634.647 85.5625C634.225 85.5625 633.944 85.2812 633.803 84.9999C633.662 84.578 633.803 84.0154 634.366 83.7341C640.273 81.3431 644.352 79.5147 645.758 78.6708C650.821 75.2953 661.511 65.45 669.809 50.6821C670.09 50.2601 670.653 50.1195 671.075 50.2601C671.497 50.5414 671.637 51.104 671.497 51.526C663.058 66.7158 651.947 76.7018 646.743 80.2179C644.914 81.4838 639.288 83.7341 635.069 85.5625C634.788 85.5625 634.788 85.5625 634.647 85.5625Z" fill="#101C3D"/>
<path fill-rule="evenodd" clip-rule="evenodd" d="M623.255 71.6385C622.973 71.6385 622.692 71.4979 622.411 71.2166C622.129 70.7946 622.27 70.232 622.692 69.9507C624.239 68.9662 626.349 67.841 628.74 66.5752C632.959 64.3249 638.163 61.6526 643.226 57.7145C648.712 53.495 655.463 41.2588 655.463 41.1181C655.744 40.6962 656.307 40.5555 656.729 40.6962C657.15 40.9775 657.291 41.5401 657.15 41.962C656.869 42.5246 650.118 54.6202 644.352 59.1209C639.288 63.1997 633.944 65.872 629.584 68.1223C627.193 69.3882 625.224 70.3727 623.817 71.3572C623.677 71.4979 623.395 71.6385 623.255 71.6385Z" fill="#101C3D"/>
<path fill-rule="evenodd" clip-rule="evenodd" d="M437.896 699.103C428.754 701.494 423.128 694.461 423.128 694.461C423.128 694.461 417.502 702.056 407.797 698.962C389.232 693.055 376.293 678.568 362.509 678.287C339.865 677.865 319.049 693.899 296.405 694.18C280.09 694.321 261.243 690.945 249.429 679.553C177.136 610.214 96.9676 543.828 48.1631 456.346C33.5359 430.186 6.95358 349.173 9.62587 275.615C12.0169 212.323 42.1153 153.955 49.9916 148.47C68.8383 135.249 89.9353 130.186 112.158 145.797C134.38 161.409 135.646 186.444 139.162 211.058C149.007 279.271 139.724 350.579 158.149 416.965C170.948 463.378 201.89 503.181 230.442 542C252.242 571.536 275.449 602.9 307.797 620.2C332.833 633.561 366.588 617.105 392.467 628.779C413.142 638.062 421.44 659.581 433.676 678.709C437.333 684.335 445.35 697.274 437.896 699.103Z" fill="#DFE6F2"/>
<path fill-rule="evenodd" clip-rule="evenodd" d="M412.298 700.79C410.751 700.79 409.204 700.509 407.516 699.947C399.077 697.274 391.623 692.773 385.153 688.695C376.996 683.631 369.823 679.412 362.509 679.271C362.228 679.271 361.947 679.271 361.665 679.271C350.554 679.271 339.724 683.21 329.176 687.148C318.627 691.086 307.797 695.024 296.546 695.165C284.731 695.305 262.79 693.477 248.866 680.256C236.771 668.582 224.113 656.909 212.017 645.516C151.117 588.554 88.2475 529.764 47.4599 456.909C32.5513 430.326 5.96905 349.876 8.78199 275.615C11.173 211.902 41.834 153.111 49.5696 147.766C72.2138 131.873 92.8889 131.029 112.861 145.094C133.395 159.44 136.349 182.084 139.302 203.885C139.584 206.276 139.865 208.667 140.287 210.917C144.225 238.765 145.069 267.598 145.913 295.446C147.038 335.811 148.304 377.443 159.134 416.684C171.089 459.862 198.796 497.415 225.66 533.842C227.488 536.374 229.457 538.906 231.286 541.437C252.242 569.848 276.011 602.056 308.36 619.356C321.018 626.107 336.349 625.122 351.117 624.138C365.463 623.153 380.231 622.169 392.889 627.935C409.345 635.39 417.924 650.017 426.925 665.629C429.316 669.848 431.848 674.068 434.52 678.146C438.458 684.194 443.381 692.773 441.553 697.415C440.99 698.821 439.865 699.806 438.037 700.228C430.301 702.197 424.956 697.977 422.987 696.008C421.581 697.556 417.783 700.79 412.298 700.79ZM361.525 677.302C361.806 677.302 362.087 677.302 362.509 677.302C370.385 677.443 377.98 682.084 386.138 687.007C392.889 691.086 399.921 695.446 408.079 697.977C416.939 700.79 422.284 693.899 422.284 693.758C422.425 693.477 422.706 693.336 422.987 693.336C423.269 693.336 423.55 693.477 423.831 693.758C424.113 694.039 429.176 700.228 437.615 698.118C438.74 697.837 439.443 697.274 439.724 696.43C440.85 693.617 438.459 687.71 432.833 678.99C430.16 674.771 427.629 670.551 425.238 666.332C416.377 651.001 407.938 636.655 392.045 629.482C379.668 623.997 365.181 624.841 351.117 625.826C335.927 626.81 320.315 627.935 307.235 620.903C274.464 603.322 250.554 570.973 229.457 542.422C227.629 539.89 225.8 537.359 223.831 534.827C196.827 498.399 168.979 460.565 156.883 417.105C146.053 377.584 144.788 335.811 143.522 295.446C142.678 267.598 141.834 238.906 137.896 211.058C137.615 208.667 137.193 206.276 136.911 204.025C133.958 181.662 131.145 160.425 111.314 146.501C92.045 132.999 72.0731 133.983 50.2728 149.173C42.8186 154.377 12.7201 212.464 10.3291 275.474C7.65681 348.47 34.5204 430.186 48.7257 455.783C89.3727 528.498 152.101 587.148 212.861 643.969C225.097 655.361 237.615 667.176 249.71 678.709C263.072 691.508 284.45 693.195 295.983 693.055C306.954 692.914 317.643 688.976 328.051 685.179C339.162 681.381 350.132 677.302 361.525 677.302Z" fill="#101C3D"/>
<path fill-rule="evenodd" clip-rule="evenodd" d="M14.5485 344.391C58.7117 348.47 106.532 355.783 147.741 337.218C147.741 337.218 149.851 252.549 141.834 202.759C136.208 167.035 118.346 115.136 74.6048 130.748C39.7243 143.125 23.4093 166.332 8.64134 224.841C-6.12659 283.35 14.5485 344.391 14.5485 344.391Z" fill="#4070F4"/>
<path fill-rule="evenodd" clip-rule="evenodd" d="M610.892 223.997C631.426 293.617 638.459 352.689 645.772 429.201C646.616 438.624 506.672 452.267 502.031 453.533L488.107 457.049L482.059 374.068L445.632 494.18L310.048 481.241C310.048 481.241 294.717 464.222 283.887 435.53C273.058 406.838 266.729 366.473 266.729 366.473C266.729 366.473 438.74 168.442 511.454 150.017C593.733 129.201 610.892 223.997 610.892 223.997Z" fill="#254898"/>
<path fill-rule="evenodd" clip-rule="evenodd" d="M485.435 425.826C485.013 425.826 484.591 425.404 484.45 424.982L476.855 322.169C476.855 321.606 477.136 321.184 477.699 321.184C478.262 321.184 478.684 321.465 478.684 322.028L486.278 424.841C486.419 425.263 485.997 425.826 485.435 425.826Z" fill="#101C3D"/>
<path fill-rule="evenodd" clip-rule="evenodd" d="M39.0211 221.044C23.9719 221.044 10.751 217.949 10.6104 217.809C10.0478 217.668 9.76652 217.246 9.90716 216.684C10.0478 216.121 10.4698 215.84 11.0323 215.98C11.173 215.98 30.8636 220.622 49.2883 218.512C101.468 212.464 133.395 178.85 133.395 174.208C133.395 173.646 133.817 173.224 134.38 173.224C134.942 173.224 135.364 173.646 135.364 174.208C135.364 181.241 101.187 214.433 49.5696 220.481C45.9128 220.903 42.3966 221.044 39.0211 221.044Z" fill="#101C3D"/>
<path fill-rule="evenodd" clip-rule="evenodd" d="M282.34 261.409C282.2 261.409 281.918 261.409 281.778 261.269C270.807 253.814 259.977 245.376 248.163 225.685C236.208 205.713 228.613 178.568 228.613 170.973C228.613 170.411 229.035 169.989 229.598 169.989C230.16 169.989 230.582 170.411 230.582 170.973C230.582 178.287 238.177 205.01 249.992 224.7C261.665 244.11 272.214 252.267 283.044 259.722C283.466 260.003 283.606 260.565 283.325 260.987C283.044 261.269 282.622 261.409 282.34 261.409Z" fill="#101C3D"/>
<path fill-rule="evenodd" clip-rule="evenodd" d="M173.48 235.108C170.385 235.108 167.15 234.968 164.056 234.405C150.554 232.436 138.74 226.951 129.316 217.949C116.94 206.135 109.767 184.475 112.158 165.347C112.158 165.207 114.97 146.079 120.596 143.266C121.018 142.985 121.581 143.266 121.862 143.688C122.143 144.11 121.862 144.672 121.44 144.954C117.783 146.782 114.689 160.706 114.127 165.629C112.298 181.381 117.361 204.025 130.723 216.684C139.865 225.404 151.257 230.748 164.478 232.577C215.111 239.75 265.885 184.616 268.979 175.333C269.12 174.911 269.682 174.63 270.104 174.771C270.526 174.911 270.807 175.474 270.667 175.896C268.698 181.662 254.352 198.259 235.224 211.902C219.893 222.872 197.53 235.108 173.48 235.108Z" fill="#101C3D"/>
<path fill-rule="evenodd" clip-rule="evenodd" d="M270.807 365.488C270.526 365.488 270.385 365.347 270.245 365.207C226.082 325.404 166.025 300.087 101.328 293.899C59.9775 289.961 29.3164 293.899 7.79746 306.135C7.37552 306.416 6.81293 306.276 6.53164 305.854C6.25034 305.432 6.39099 304.869 6.95358 304.588C28.7539 292.211 59.6962 288.132 101.609 292.07C166.729 298.259 227.207 323.856 271.651 363.941C272.073 364.222 272.073 364.925 271.651 365.207C271.37 365.347 271.089 365.488 270.807 365.488Z" fill="#101C3D"/>
<path fill-rule="evenodd" clip-rule="evenodd" d="M149.148 334.827C148.866 334.827 148.585 334.827 148.444 334.827C147.882 334.827 147.601 334.264 147.601 333.842C147.601 333.421 148.163 332.999 148.585 332.999C154.633 333.702 208.641 318.512 228.332 303.744C236.208 297.837 250.413 284.053 250.554 283.913C250.976 283.491 251.539 283.631 251.82 283.913C252.242 284.335 252.242 284.897 251.82 285.179C251.679 285.319 237.333 299.243 229.316 305.291C211.173 318.934 158.571 334.827 149.148 334.827Z" fill="#101C3D"/>
<path fill-rule="evenodd" clip-rule="evenodd" d="M92.8889 348.61H92.7482C92.1856 348.47 91.9044 348.048 91.9044 347.485C103.437 271.677 92.1856 201.916 58.7117 140.031C58.4304 139.609 58.571 139.046 59.1336 138.765C59.5555 138.484 60.1181 138.625 60.3994 139.187C94.1547 201.494 105.406 271.677 93.8734 347.907C93.7328 348.329 93.4515 348.61 92.8889 348.61Z" fill="#101C3D"/>
<path fill-rule="evenodd" clip-rule="evenodd" d="M226.503 415.84C226.082 415.84 225.8 415.558 225.66 415.136C202.734 346.219 198.515 272.802 197.53 216.543C197.39 208.526 197.952 200.087 198.515 191.93C198.937 184.757 199.499 177.302 199.499 170.411C199.499 169.848 199.921 169.426 200.484 169.426C201.046 169.426 201.468 169.848 201.468 170.411C201.468 177.443 201.046 184.897 200.484 192.07C199.921 200.228 199.359 208.667 199.499 216.543C200.484 272.661 204.703 345.797 227.629 414.574C227.769 414.996 227.488 415.558 227.066 415.699C226.644 415.84 226.644 415.84 226.503 415.84Z" fill="#101C3D"/>
<path fill-rule="evenodd" clip-rule="evenodd" d="M147.741 338.203C147.179 338.203 146.757 337.781 146.757 337.218L146.194 267.598C146.194 267.035 146.616 266.613 147.179 266.613C147.741 266.613 148.163 267.035 148.163 267.598L148.726 337.218C148.585 337.781 148.304 338.203 147.741 338.203Z" fill="#101C3D"/>
<path d="M646.461 31.6947H487.53V89.7819H646.461V31.6947Z" fill="#DFE6F2"/>
<path fill-rule="evenodd" clip-rule="evenodd" d="M646.461 90.7665H487.53C486.968 90.7665 486.546 90.3445 486.546 89.7819V31.6947C486.546 31.1321 486.968 30.7102 487.53 30.7102H646.461C647.024 30.7102 647.446 31.1321 647.446 31.6947V89.7819C647.446 90.3445 647.024 90.7665 646.461 90.7665ZM488.515 88.9381H645.617V32.6793H488.515V88.9381Z" fill="#101C3D"/>
<path fill-rule="evenodd" clip-rule="evenodd" d="M634.647 75.7172H487.53C486.968 75.7172 486.546 75.2953 486.546 74.7327C486.546 74.1701 486.968 73.7482 487.53 73.7482H633.662V31.6947C633.662 31.1321 634.084 30.7102 634.647 30.7102C635.21 30.7102 635.632 31.1321 635.632 31.6947V74.7327C635.491 75.2953 635.069 75.7172 634.647 75.7172Z" fill="#101C3D"/>
<path fill-rule="evenodd" clip-rule="evenodd" d="M503.437 349.736C502.453 352.267 501.609 354.658 500.906 356.909C500.343 359.018 501.046 360.003 503.437 359.721C504.422 359.581 506.11 360.284 506.532 361.128C508.079 364.082 507.797 365.207 506.11 366.473C504.422 365.629 503.015 364.785 500.906 363.66C501.187 363.238 501.89 362.394 502.312 361.691C500.624 360.847 498.796 360.003 497.671 359.581C497.108 357.471 496.686 356.065 496.264 354.658C495.983 354.939 495.702 355.361 495.561 355.643C494.014 355.502 492.326 355.221 490.779 354.939C488.107 354.518 488.107 354.518 487.544 357.049C488.669 357.752 489.654 358.315 490.498 359.018C489.513 360.143 489.654 361.831 486.841 361.55C485.013 361.409 482.762 364.363 481.356 365.347C478.402 361.691 475.449 358.034 471.932 353.814C473.62 353.111 475.589 352.127 477.699 351.142C476.714 350.579 475.871 350.017 474.323 349.173C476.433 348.892 477.98 348.751 479.668 348.47C478.824 351.564 477.98 354.377 476.855 357.893C477.277 358.174 478.402 358.878 479.809 359.721C481.496 357.33 483.325 354.518 485.435 351.283C484.028 351.564 483.184 351.845 482.34 351.986C482.481 351.142 482.622 350.439 482.762 349.595C482.903 348.188 483.044 346.782 480.793 347.204C479.809 347.345 478.824 347.063 477.84 346.923C477.84 346.641 477.84 346.219 477.84 345.938C478.684 345.657 479.527 345.235 480.512 344.813C480.371 344.25 480.09 343.688 479.949 342.984C483.184 341.578 486.419 342.141 488.388 344.391C487.122 344.532 485.716 344.672 484.309 344.813C484.309 345.235 484.309 345.657 484.45 346.079C486.982 346.36 489.373 346.782 492.467 347.204C493.17 346.782 494.577 345.797 496.124 344.954C494.999 344.532 493.873 344.11 492.748 343.688C492.748 343.266 492.889 342.844 492.889 342.563C496.405 343.688 499.077 342.563 501.328 339.187C501.609 339.609 501.89 340.172 502.172 340.594C501.609 341.719 501.046 342.844 500.343 344.25C501.046 344.813 501.89 345.657 502.734 346.36C500.484 348.329 499.077 348.329 495.561 346.923C494.155 351.423 489.795 349.173 486.7 350.861C487.122 351.705 487.544 352.408 487.966 353.252C489.513 352.548 490.92 351.845 492.467 351.142C493.03 351.845 493.592 352.689 494.295 353.533C496.124 352.83 498.374 350.298 499.64 354.518C499.499 353.392 499.359 352.267 499.218 351.001C500.624 350.579 501.89 350.157 503.437 349.736Z" fill="#101C3D"/>
<path fill-rule="evenodd" clip-rule="evenodd" d="M464.338 319.356C466.166 320.34 468.557 320.903 469.823 322.309C470.807 323.435 472.073 325.404 470.104 327.654C469.12 328.779 469.541 331.17 469.12 333.28C470.104 332.858 471.089 332.436 472.636 331.733C471.792 333.702 471.089 335.108 470.245 337.077C468.698 335.671 467.432 333.983 466.025 333.561C465.041 333.28 463.494 334.686 462.368 335.249C463.634 334.124 462.368 329.764 466.307 331.17C467.01 329.06 468.698 326.81 468.416 324.841C467.994 323.013 465.463 321.747 463.775 320.2C464.056 319.918 464.197 319.637 464.338 319.356Z" fill="#101C3D"/>
<path fill-rule="evenodd" clip-rule="evenodd" d="M511.595 409.792C512.017 407.119 512.298 405.01 512.72 402.9C512.439 402.759 512.158 402.759 512.017 402.619C513.001 401.916 513.986 401.212 514.83 400.509C511.736 401.072 509.626 399.946 508.782 396.852C510.61 395.446 515.252 396.993 516.377 399.243C516.94 400.509 517.783 401.634 518.768 403.181C517.221 405.01 515.392 407.541 513.283 409.932C512.861 410.214 512.017 409.932 511.595 409.792Z" fill="#101C3D"/>
<path fill-rule="evenodd" clip-rule="evenodd" d="M499.077 368.02C501.89 368.864 504.985 366.473 507.657 369.708C508.079 370.27 510.048 369.567 510.751 369.989C512.439 371.114 514.267 372.239 515.955 373.364C516.799 373.927 517.643 374.63 518.487 375.193L517.924 376.177C517.08 375.755 516.096 375.193 515.252 374.63C514.689 374.208 514.127 373.786 513.564 373.505C513.283 373.646 513.142 373.927 512.861 374.068C513.564 375.333 514.127 376.459 514.83 377.724C513.001 376.177 509.767 376.177 509.485 372.38C509.485 371.677 505.406 370.27 505.125 370.551C503.156 373.224 502.312 370.833 501.046 369.989C500.343 369.426 499.64 369.145 498.937 368.582C498.937 368.723 498.937 368.442 499.077 368.02Z" fill="#101C3D"/>
<path fill-rule="evenodd" clip-rule="evenodd" d="M520.315 334.686C520.174 335.671 519.893 337.077 519.612 338.202C520.034 340.734 520.596 343.406 521.018 345.938C520.596 346.079 520.315 346.219 519.893 346.219C518.346 344.391 516.799 342.563 515.111 340.734C514.408 340.031 513.423 339.609 512.861 338.765C512.298 337.921 511.736 336.937 511.736 336.093C511.736 335.671 513.001 335.108 513.845 334.968C515.814 334.827 517.783 334.827 520.315 334.686Z" fill="#101C3D"/>
<path fill-rule="evenodd" clip-rule="evenodd" d="M481.918 340.593C482.481 339.609 482.903 338.624 483.325 337.64C481.356 335.671 479.668 341.437 477.98 337.359C478.965 335.952 482.762 335.952 480.653 333.42C479.668 333.139 478.262 333.28 477.84 332.577C475.167 329.06 475.308 327.091 478.262 325.263C479.387 327.091 480.09 329.342 481.496 330.889C482.762 332.155 484.872 332.717 486.278 333.42C484.591 334.124 483.184 335.53 484.309 338.484C484.591 339.046 483.184 340.312 482.622 341.156C482.481 340.875 482.2 340.734 481.918 340.593Z" fill="#101C3D"/>
<path fill-rule="evenodd" clip-rule="evenodd" d="M490.357 323.716C492.186 323.997 493.873 324.138 495.561 324.419C494.999 325.685 494.436 326.951 493.733 328.498C495.421 328.498 496.546 328.498 497.952 328.498C498.093 330.186 498.233 331.733 498.374 334.124C496.124 333.702 494.155 333.28 492.326 332.999C492.326 332.577 492.467 332.155 492.467 331.873C493.17 331.873 493.873 331.733 494.577 331.733C494.577 331.451 494.436 331.311 494.436 331.029C492.889 331.311 491.342 331.592 490.217 331.733C490.357 328.92 490.357 326.107 490.357 323.716Z" fill="#101C3D"/>
<path fill-rule="evenodd" clip-rule="evenodd" d="M440.99 384.616C440.709 383.631 440.428 382.647 440.146 381.662C442.819 379.412 445.632 378.006 449.148 379.693C449.71 379.975 450.695 380.678 450.695 381.1C450.413 382.366 449.71 383.631 449.288 384.897C448.585 384.053 448.022 383.35 447.46 382.506C446.757 383.069 445.632 384.053 444.647 385.038C444.788 383.913 444.788 382.788 444.928 380.537C443.1 382.225 442.115 383.491 440.99 384.616Z" fill="#101C3D"/>
<path fill-rule="evenodd" clip-rule="evenodd" d="M503.859 335.952C504.141 334.546 504.422 333.139 504.563 331.592C504.844 330.186 504.985 328.779 505.266 326.669C506.391 328.498 507.516 330.045 508.782 331.873C508.782 331.873 509.345 332.014 510.048 331.873C510.751 331.733 511.314 331.451 512.439 331.03C511.876 332.717 511.454 333.983 511.173 334.686C508.782 335.108 506.813 335.53 503.859 335.952Z" fill="#101C3D"/>
<path fill-rule="evenodd" clip-rule="evenodd" d="M158.852 357.049C157.868 357.19 157.165 357.331 156.461 357.331C156.461 357.049 156.18 356.909 156.321 356.768C158.43 353.392 161.806 351.564 165.744 349.595C165.463 352.689 164.759 354.658 162.228 354.799C159.556 354.94 159.977 356.065 160.821 357.752C161.103 358.456 161.243 359.722 160.821 360.143C160.259 360.706 159.134 360.565 157.868 360.847C158.43 359.3 158.571 358.315 158.852 357.049Z" fill="#101C3D"/>
<path fill-rule="evenodd" clip-rule="evenodd" d="M510.892 417.809C509.204 415.418 507.657 413.308 505.969 411.058C508.079 410.495 506.25 405.572 510.048 405.994C509.626 408.104 509.204 409.933 508.782 411.902C509.767 411.902 510.751 411.902 512.017 411.902C513.986 415.558 513.564 417.105 510.892 417.809Z" fill="#101C3D"/>
<path fill-rule="evenodd" clip-rule="evenodd" d="M464.759 314.293C465.322 312.323 465.885 310.776 466.447 308.667C466.869 310.214 467.15 311.198 467.572 313.027C468.135 312.042 468.416 311.62 468.698 311.198C469.12 310.636 469.682 310.214 470.245 309.792C470.526 310.354 471.089 311.058 471.229 311.62C471.37 312.183 471.511 313.027 471.229 313.589C470.667 314.714 469.963 315.98 468.979 316.543C468.416 316.824 467.15 315.84 466.166 315.277C465.603 315.136 465.041 314.574 464.759 314.293Z" fill="#101C3D"/>
<path fill-rule="evenodd" clip-rule="evenodd" d="M164.056 385.319C165.181 384.616 166.447 383.35 167.432 383.35C169.12 383.491 169.963 387.569 169.541 388.976C167.713 388.695 166.166 388.273 164.619 388.132C163.494 387.991 162.509 388.413 161.384 388.554C161.243 388.554 160.962 387.148 161.103 387.148C162.228 386.726 163.212 386.444 164.338 386.163C164.197 385.882 164.197 385.6 164.056 385.319Z" fill="#101C3D"/>
<path fill-rule="evenodd" clip-rule="evenodd" d="M488.248 341.859C487.404 340.031 486.419 338.202 485.153 335.671C486.841 335.249 488.529 334.686 490.217 334.546C490.498 334.546 491.623 336.093 491.342 336.515C490.357 338.202 492.186 341.578 488.248 341.859Z" fill="#101C3D"/>
<path fill-rule="evenodd" clip-rule="evenodd" d="M528.051 416.684C526.644 417.387 525.8 417.668 525.097 418.231C524.394 418.653 523.691 419.215 522.987 419.637C522.706 419.356 522.425 419.215 522.143 418.934C522.847 418.09 523.55 417.387 524.253 416.543C525.097 415.558 525.8 414.433 526.504 413.449C530.442 413.589 529.598 416.684 529.879 418.934C529.879 419.356 528.754 420.059 528.051 420.34C527.629 420.481 526.925 420.059 526.222 419.918C526.644 419.215 527.066 418.653 527.488 417.949C527.488 417.809 527.629 417.527 528.051 416.684Z" fill="#101C3D"/>
<path fill-rule="evenodd" clip-rule="evenodd" d="M462.65 346.641C463.072 344.391 467.572 342.985 471.089 344.391C469.823 345.797 468.979 347.907 467.432 348.329C466.307 348.751 464.478 347.345 462.65 346.641Z" fill="#101C3D"/>
<path fill-rule="evenodd" clip-rule="evenodd" d="M507.657 326.107C507.235 324.278 506.954 323.013 506.672 321.747C506.532 320.762 506.391 319.637 506.532 318.512C506.532 318.371 507.516 317.949 507.657 318.09C508.641 319.215 509.767 320.34 510.61 321.606C510.751 321.887 510.329 322.591 510.329 323.153C510.329 327.232 510.329 327.232 507.657 326.107Z" fill="#101C3D"/>
<path fill-rule="evenodd" clip-rule="evenodd" d="M498.655 398.259C501.328 397.415 502.453 393.195 505.688 395.305C506.532 395.868 505.828 398.681 505.828 400.368C503.156 399.806 501.046 399.103 498.655 398.259Z" fill="#101C3D"/>
<path fill-rule="evenodd" clip-rule="evenodd" d="M149.57 301.634C155.758 305.572 155.758 305.572 153.648 307.963C151.961 306.838 150.273 305.854 148.866 304.588C148.444 304.307 149.288 302.759 149.57 301.634Z" fill="#101C3D"/>
<path fill-rule="evenodd" clip-rule="evenodd" d="M413.564 386.163C415.533 385.319 417.361 384.475 419.19 383.632C419.471 383.913 419.752 384.194 419.893 384.475C418.768 386.726 417.643 388.976 416.236 391.789C415.392 389.961 414.549 388.273 413.564 386.163Z" fill="#101C3D"/>
<path fill-rule="evenodd" clip-rule="evenodd" d="M417.783 408.245C419.612 409.651 419.471 409.792 418.065 411.198C417.361 411.901 416.94 412.886 416.518 413.589C417.221 414.011 417.924 414.714 418.768 415.277C418.487 415.699 418.205 416.121 418.065 416.543C416.658 415.84 415.111 415.136 413.705 414.292C415.111 412.323 416.377 410.214 417.783 408.245Z" fill="#101C3D"/>
<path fill-rule="evenodd" clip-rule="evenodd" d="M161.525 377.443C162.228 381.24 158.149 381.381 157.446 383.772C157.024 383.772 156.743 383.631 156.321 383.631C156.18 381.803 156.039 379.975 155.899 378.287C158.008 377.865 159.415 377.724 161.525 377.443Z" fill="#101C3D"/>
<path fill-rule="evenodd" clip-rule="evenodd" d="M518.065 408.667C518.346 406.697 519.049 405.432 521.581 405.854C522.987 405.994 524.534 405.291 526.082 405.291C526.644 405.291 527.347 406.135 527.91 406.557C527.347 406.979 526.785 407.541 526.082 407.682C523.409 408.104 520.737 408.385 518.065 408.667Z" fill="#101C3D"/>
<path fill-rule="evenodd" clip-rule="evenodd" d="M498.374 428.639C496.546 427.654 494.999 426.81 493.592 426.107C493.733 425.685 494.014 425.122 494.155 424.7C495.28 424.982 496.405 425.404 497.53 425.544C497.812 425.544 498.233 424.7 498.796 424.279C499.218 423.857 499.781 423.435 500.343 423.153C500.484 423.857 500.765 424.56 500.484 425.122C499.921 426.248 499.077 427.232 498.374 428.639Z" fill="#101C3D"/>
<path fill-rule="evenodd" clip-rule="evenodd" d="M476.433 389.117C475.589 387.148 471.37 389.679 471.651 385.741C471.792 384.053 477.418 383.632 477.558 385.319C477.558 386.444 476.855 387.57 476.433 389.117Z" fill="#101C3D"/>
<path fill-rule="evenodd" clip-rule="evenodd" d="M161.665 316.121C162.228 316.402 163.212 317.105 164.9 318.09C162.65 319.778 160.821 321.184 158.852 322.591C158.43 322.169 158.149 321.888 157.727 321.466C158.993 319.918 160.118 318.231 161.665 316.121Z" fill="#101C3D"/>
<path fill-rule="evenodd" clip-rule="evenodd" d="M518.768 367.316C517.643 368.723 516.518 369.989 515.252 371.536C514.127 369.989 513.142 368.723 511.876 367.035C514.267 366.754 516.377 366.613 518.487 366.473C518.487 366.754 518.627 367.035 518.768 367.316Z" fill="#101C3D"/>
<path fill-rule="evenodd" clip-rule="evenodd" d="M499.499 384.616C500.343 382.788 500.906 381.522 501.89 379.693C502.734 380.678 503.297 381.522 503.859 382.225C504.422 382.928 504.985 383.772 505.547 384.475C504.563 384.757 503.578 385.038 502.594 385.179C501.75 385.179 500.765 384.757 499.499 384.616Z" fill="#101C3D"/>
<path fill-rule="evenodd" clip-rule="evenodd" d="M155.617 333.139C156.883 333.28 158.008 333.28 159.274 333.42C159.274 335.249 159.274 337.077 159.274 338.906C155.477 338.484 155.899 335.811 155.617 333.139Z" fill="#101C3D"/>
<path fill-rule="evenodd" clip-rule="evenodd" d="M512.439 345.797C511.736 347.063 510.892 348.188 510.188 349.454C509.063 348.61 507.797 347.766 506.672 347.063C508.219 346.219 509.767 345.375 511.173 344.532C511.595 344.954 512.017 345.375 512.439 345.797Z" fill="#101C3D"/>
<path fill-rule="evenodd" clip-rule="evenodd" d="M456.18 392.773C455.195 393.336 454.352 393.899 453.367 394.461C452.383 393.477 451.539 392.773 450.835 391.789C450.414 391.226 450.414 390.382 450.273 389.679C451.117 389.679 452.242 389.398 452.945 389.82C454.07 390.523 455.055 391.648 456.18 392.773Z" fill="#101C3D"/>
<path fill-rule="evenodd" clip-rule="evenodd" d="M493.592 378.709C493.873 377.584 494.014 376.599 494.295 375.615C494.577 374.63 494.858 373.646 495.28 372.661C495.842 373.505 496.968 374.208 497.108 375.052C497.39 377.724 495.561 379.131 493.592 378.709Z" fill="#101C3D"/>
<path fill-rule="evenodd" clip-rule="evenodd" d="M482.059 308.104C481.778 310.073 481.496 312.042 481.215 314.011C480.934 314.011 480.512 314.011 480.231 314.011C480.653 314.433 481.215 314.855 481.637 315.277C481.356 315.558 481.075 315.699 480.793 315.98C480.231 315.277 479.246 314.293 479.387 313.73C480.231 311.761 479.246 309.089 480.512 307.401C481.075 307.682 481.496 307.823 482.059 308.104Z" fill="#101C3D"/>
<path fill-rule="evenodd" clip-rule="evenodd" d="M463.494 387.148C463.634 385.882 463.634 384.475 463.775 382.928C465.885 383.35 467.854 383.631 470.667 384.194C467.713 385.319 465.744 386.163 463.494 387.148Z" fill="#101C3D"/>
<path fill-rule="evenodd" clip-rule="evenodd" d="M279.105 339.609C279.246 340.031 279.527 340.875 279.949 342C278.684 342.422 277.699 342.844 276.714 343.125C276.574 342.844 276.433 342.703 276.293 342.422C276.855 341.859 277.418 341.156 278.121 340.453C277.558 339.609 276.996 338.906 276.011 337.499C277.699 337.077 279.105 336.796 280.371 336.515C280.09 337.359 279.668 338.203 279.105 339.609Z" fill="#101C3D"/>
<path fill-rule="evenodd" clip-rule="evenodd" d="M395.28 403.744C396.546 403.603 397.812 403.463 399.077 403.322C399.64 404.307 400.343 405.432 400.906 406.557C400.765 406.838 400.624 407.119 400.343 407.541C398.374 406.698 396.546 405.854 394.577 405.01C394.858 404.447 395.139 404.166 395.28 403.744Z" fill="#101C3D"/>
<path fill-rule="evenodd" clip-rule="evenodd" d="M179.527 361.691C178.262 363.097 176.996 364.644 175.73 366.051C175.449 365.91 175.167 365.91 174.745 365.769C175.167 364.222 175.449 362.535 176.293 361.128C176.714 360.565 178.262 360.706 179.246 360.425C179.387 360.987 179.387 361.269 179.527 361.691Z" fill="#101C3D"/>
<path fill-rule="evenodd" clip-rule="evenodd" d="M491.201 369.004C491.482 369.567 492.045 370.411 492.467 371.255C487.404 371.958 487.404 371.958 485.435 369.285C487.263 369.145 489.232 369.145 491.201 369.004Z" fill="#101C3D"/>
<path fill-rule="evenodd" clip-rule="evenodd" d="M451.961 379.412C451.398 378.568 450.695 377.724 450.132 377.021C449.007 377.162 447.179 377.443 447.038 377.162C446.616 376.037 446.616 374.63 446.475 373.224C446.757 373.083 447.038 373.083 447.319 372.942C449.148 374.771 450.976 376.599 452.945 378.428C452.664 378.85 452.383 379.131 451.961 379.412Z" fill="#101C3D"/>
<path fill-rule="evenodd" clip-rule="evenodd" d="M519.049 359.862C516.799 360.987 515.111 361.831 513.564 362.816C513.283 362.675 513.142 362.534 512.861 362.534C513.283 361.691 513.564 360.565 514.267 360.003C515.533 359.3 517.08 358.878 518.487 358.456C518.487 358.456 519.049 359.722 519.049 359.862Z" fill="#101C3D"/>
<path fill-rule="evenodd" clip-rule="evenodd" d="M525.66 369.567C524.956 372.098 523.128 370.411 522.143 369.426C521.44 368.723 521.862 367.035 521.721 365.91C522.425 366.051 523.409 365.769 523.691 366.191C524.534 367.035 524.956 368.16 525.66 369.567Z" fill="#101C3D"/>
<path fill-rule="evenodd" clip-rule="evenodd" d="M471.651 341.297C471.511 339.75 471.511 338.624 471.511 337.499C473.339 337.64 475.167 337.781 476.996 337.781C476.996 338.062 477.136 338.484 477.136 338.765C475.589 339.468 474.042 340.172 471.651 341.297Z" fill="#101C3D"/>
<path fill-rule="evenodd" clip-rule="evenodd" d="M515.955 423.997C513.845 424.419 513.845 424.419 513.001 420.34C513.986 419.778 515.111 419.356 515.955 418.793C515.955 420.481 515.955 422.028 515.955 423.997Z" fill="#101C3D"/>
<path fill-rule="evenodd" clip-rule="evenodd" d="M462.65 393.477C461.525 391.789 460.681 390.945 460.259 389.961C459.977 389.117 459.977 388.132 460.118 387.148C460.118 387.007 461.384 386.726 461.525 386.866C462.087 387.57 462.79 388.414 462.931 389.257C462.931 390.383 462.79 391.508 462.65 393.477Z" fill="#101C3D"/>
<path fill-rule="evenodd" clip-rule="evenodd" d="M511.314 381.522C509.485 379.834 507.797 378.287 506.11 376.74C506.391 376.458 506.672 376.037 506.954 375.755C508.641 376.74 510.329 377.584 512.158 378.709C511.876 379.553 511.595 380.537 511.314 381.522Z" fill="#101C3D"/>
<path fill-rule="evenodd" clip-rule="evenodd" d="M467.713 367.879C467.713 367.176 467.854 366.332 467.994 364.644C470.104 366.051 471.651 367.176 473.198 368.301C473.058 368.723 472.917 369.004 472.776 369.426C471.229 368.864 469.682 368.442 467.713 367.879Z" fill="#101C3D"/>
<path fill-rule="evenodd" clip-rule="evenodd" d="M274.183 344.25C270.807 346.079 270.667 346.079 267.713 341.719C269.26 341.578 270.385 341.437 271.651 341.297C271.651 341.437 271.651 341.719 271.792 341.859C271.37 342.141 270.948 342.563 270.245 343.125C271.511 343.547 272.636 343.828 274.183 344.25Z" fill="#101C3D"/>
<path fill-rule="evenodd" clip-rule="evenodd" d="M464.619 322.591C462.509 323.435 461.384 323.997 459.415 324.7C459.696 322.872 459.977 321.184 460.259 319.637C461.665 320.622 462.931 321.465 464.619 322.591Z" fill="#101C3D"/>
<path fill-rule="evenodd" clip-rule="evenodd" d="M402.031 405.572C404.141 406.276 404.844 400.369 408.36 405.291C406.11 405.994 404.281 406.557 402.453 407.12C402.312 406.557 402.172 405.994 402.031 405.572Z" fill="#101C3D"/>
<path fill-rule="evenodd" clip-rule="evenodd" d="M447.601 364.785C444.788 363.238 442.678 361.972 440.428 360.706C442.256 359.159 446.616 361.409 447.601 364.785Z" fill="#101C3D"/>
<path fill-rule="evenodd" clip-rule="evenodd" d="M515.955 383.632C515.814 385.741 515.674 387.851 515.533 390.242C513.283 389.117 513.283 389.117 514.97 383.632C515.252 383.632 515.674 383.632 515.955 383.632Z" fill="#101C3D"/>
<path fill-rule="evenodd" clip-rule="evenodd" d="M512.579 352.408C514.549 353.674 516.096 354.658 517.924 355.783C514.408 357.752 512.579 356.627 512.579 352.408Z" fill="#101C3D"/>
<path fill-rule="evenodd" clip-rule="evenodd" d="M273.902 350.439C275.589 350.579 276.855 350.72 278.121 350.861C276.714 352.689 275.308 354.236 273.902 356.065C273.902 354.236 273.902 352.549 273.902 350.439Z" fill="#101C3D"/>
<path fill-rule="evenodd" clip-rule="evenodd" d="M577.558 164.082C577.558 164.082 577.98 159.44 579.105 157.049C579.246 158.315 579.809 159.721 579.527 160.987C579.387 162.253 578.262 163.097 577.558 164.082Z" fill="#101C3D"/>
<path fill-rule="evenodd" clip-rule="evenodd" d="M167.713 334.124C166.729 333.421 165.322 332.999 164.9 332.155C164.619 331.592 165.885 330.326 167.01 328.498C167.854 330.889 168.276 332.014 168.557 333.139C168.416 333.561 167.994 333.842 167.713 334.124Z" fill="#101C3D"/>
<path fill-rule="evenodd" clip-rule="evenodd" d="M434.52 359.581C433.536 360.284 432.551 360.847 431.285 361.831C431.004 360.425 430.582 359.159 430.301 357.893C431.707 358.174 433.114 358.315 434.52 358.596C434.52 358.878 434.52 359.159 434.52 359.581Z" fill="#101C3D"/>
<path fill-rule="evenodd" clip-rule="evenodd" d="M485.013 372.802C485.857 374.63 486.56 376.177 487.263 378.006C482.2 376.037 482.059 375.615 485.013 372.802Z" fill="#101C3D"/>
<path fill-rule="evenodd" clip-rule="evenodd" d="M459.556 343.406C460.962 346.923 460.821 347.204 455.758 346.923C456.883 345.797 458.149 344.672 459.556 343.406Z" fill="#101C3D"/>
<path fill-rule="evenodd" clip-rule="evenodd" d="M457.165 357.612C458.43 358.315 459.556 358.878 460.681 359.722C460.821 359.862 460.399 360.847 460.259 361.409C458.852 360.706 457.586 359.862 456.18 359.159C456.602 358.737 456.883 358.174 457.165 357.612Z" fill="#101C3D"/>
<path fill-rule="evenodd" clip-rule="evenodd" d="M521.44 293.758C522.565 292.211 523.269 291.086 524.113 289.679C525.238 290.664 526.222 291.367 527.207 292.211C525.519 292.774 523.972 293.195 521.44 293.758Z" fill="#101C3D"/>
<path fill-rule="evenodd" clip-rule="evenodd" d="M526.925 338.906C526.363 340.172 525.8 341.156 525.097 342.422C524.534 340.734 523.972 339.328 523.128 336.796C524.956 337.921 525.941 338.343 526.925 338.906Z" fill="#101C3D"/>
<path fill-rule="evenodd" clip-rule="evenodd" d="M455.195 359.722C456.039 360.847 457.024 361.972 457.727 363.238C457.868 363.378 456.743 364.222 456.321 364.785C455.617 363.378 454.774 361.972 454.07 360.565C454.492 360.284 454.914 360.003 455.195 359.722Z" fill="#101C3D"/>
<path fill-rule="evenodd" clip-rule="evenodd" d="M161.103 362.534C160.259 363.378 159.556 364.363 158.571 364.925C158.29 365.066 157.446 364.363 156.743 364.082C157.727 363.238 158.712 362.253 159.837 361.409C160.259 361.691 160.681 362.113 161.103 362.534Z" fill="#101C3D"/>
<path fill-rule="evenodd" clip-rule="evenodd" d="M471.932 315.418C473.761 316.121 474.886 316.402 476.011 316.965C476.433 317.246 476.855 318.09 476.714 318.512C476.574 318.934 476.011 319.778 475.449 319.778C475.027 319.778 474.464 319.215 474.042 318.653C473.48 317.949 472.917 316.965 471.932 315.418Z" fill="#101C3D"/>
</g>
<defs>
<clipPath id="clip0">
<rect width="696" height="430" fill="white"/>
</clipPath>
</defs>
</svg>
