<svg width="135" height="33" viewBox="0 0 135 33" fill="none" xmlns="http://www.w3.org/2000/svg">
<path fill-rule="evenodd" clip-rule="evenodd" d="M17.5995 0.03365L17.5801 0H9.53305L0 16.3424L6.54394 27.7924L6.55197 27.7785L9.02585 32.0634L27.9453 32.148L34.5894 20.7557H34.5452L36.9995 16.5046L27.6132 0.0775801L17.5995 0.03365ZM23.8243 10.932H23.8745L19.1441 2.71656L26.0563 2.74687L33.9135 16.4977L31.4542 20.7575L25.0092 20.7609L27.2563 16.869L23.8243 10.932ZM15.9607 2.67606L19.1862 8.25584L14.7203 8.25574L7.07481 21.5146L6.55329 22.4155L3.09016 16.356L11.0701 2.67606H15.9607ZM12.8596 16.8396L16.2663 10.9318L20.7333 10.932L24.1657 16.8698L21.9181 20.7626L15.1265 20.7663L12.8596 16.8396ZM8.09603 25.1007L9.39205 22.8532L11.3193 19.5241L13.5819 23.4432L20.3724 23.4395L20.3614 23.4585L29.9086 23.4698L26.4121 29.4651L10.5749 29.3942L8.09603 25.1007Z" fill="#535868"/>
<path d="M85.7386 9.79307C86.655 9.79307 87.3995 9.04847 87.3995 8.11307C87.3995 7.1776 86.655 6.45215 85.7386 6.45215C84.8032 6.45215 84.0586 7.1776 84.0586 8.11307C84.0586 9.04847 84.8032 9.79307 85.7386 9.79307ZM84.2495 20.8276H87.2086V11.2822H84.2495V20.8276Z" fill="#535868"/>
<path d="M88.9312 25.4094H91.8331V19.873C92.3867 20.5985 93.6467 21.0948 94.964 21.0948C97.8085 21.0948 99.5268 18.9185 99.4508 15.9021C99.3738 12.8284 97.5985 10.9766 94.9449 10.9766C93.5894 10.9766 92.3102 11.5684 91.7757 12.4466L91.6231 11.2821H88.9312V25.4094ZM91.8903 16.0548C91.8903 14.623 92.8449 13.6685 94.2194 13.6685C95.6131 13.6685 96.4912 14.6421 96.4912 16.0548C96.4912 17.4675 95.6131 18.4412 94.2194 18.4412C92.8449 18.4412 91.8903 17.4866 91.8903 16.0548Z" fill="#535868"/>
<path d="M99.7637 17.8112C99.8397 19.7394 101.368 21.0757 103.773 21.0757C106.083 21.0757 107.687 19.8539 107.687 17.8875C107.687 16.4748 106.847 15.5394 105.281 15.1575L103.582 14.7375C102.971 14.5848 102.589 14.4321 102.589 13.9357C102.589 13.4394 102.99 13.1148 103.582 13.1148C104.25 13.1148 104.689 13.5539 104.67 14.203H107.324C107.248 12.2175 105.739 10.9766 103.639 10.9766C101.52 10.9766 99.9357 12.2366 99.9357 14.1457C99.9357 15.4248 100.642 16.4748 102.532 16.9712L104.212 17.4103C104.708 17.5439 104.918 17.773 104.918 18.0975C104.918 18.5748 104.479 18.8803 103.735 18.8803C102.876 18.8803 102.418 18.4794 102.418 17.8112H99.7637Z" fill="#535868"/>
<path d="M112.187 21.0758C113.351 21.0758 114.516 20.5413 115.108 19.7586L115.299 20.8276H118.067V11.2822H115.127V16.2458C115.127 17.6776 114.707 18.4604 113.351 18.4604C112.301 18.4604 111.614 17.9831 111.614 16.2076V11.2822H108.674V17.2767C108.674 19.5486 109.934 21.0758 112.187 21.0758Z" fill="#535868"/>
<path d="M122.729 20.8275V15.6157C122.729 14.0121 123.588 13.5539 124.428 13.5539C125.364 13.5539 125.975 14.1266 125.975 15.3103V20.8275H128.876V15.6157C128.876 13.993 129.716 13.5348 130.556 13.5348C131.492 13.5348 132.122 14.1075 132.122 15.3103V20.8275H134.985V14.5848C134.985 12.4084 133.84 10.9575 131.377 10.9575C130.003 10.9575 128.876 11.6257 128.38 12.6566C127.807 11.6257 126.815 10.9575 125.23 10.9575C124.18 10.9575 123.206 11.4348 122.634 12.1984L122.519 11.2821H119.77V20.8275H122.729Z" fill="#535868"/>
<path d="M45.4165 6.70166H42.2856V20.829H50.9529V18.0608H45.4165V6.70166Z" fill="#535868"/>
<path d="M51.252 16.0372C51.252 19.0535 53.2757 21.0581 56.3302 21.0581C59.3657 21.0581 61.3893 19.0535 61.3893 16.0372C61.3893 13.0208 59.3657 10.9971 56.3302 10.9971C53.2757 10.9971 51.252 13.0208 51.252 16.0372ZM54.2111 16.0181C54.2111 14.5862 55.0511 13.6317 56.3302 13.6317C57.5902 13.6317 58.4302 14.5862 58.4302 16.0181C58.4302 17.469 57.5902 18.4235 56.3302 18.4235C55.0511 18.4235 54.2111 17.469 54.2111 16.0181Z" fill="#535868"/>
<path d="M61.8623 15.8844C61.8623 18.7672 63.7333 20.7144 66.3869 20.7144C67.666 20.7144 68.7733 20.2563 69.3269 19.5117V20.829C69.3269 22.1463 68.506 23.0244 67.0551 23.0244C65.7569 23.0244 64.8596 22.4135 64.8023 21.3253H61.8242C62.0914 23.9408 64.1151 25.6972 66.8833 25.6972C70.1478 25.6972 72.2096 23.5781 72.2096 20.2181V11.2835H69.556L69.4033 12.2572C68.8687 11.4744 67.7424 10.959 66.4442 10.959C63.7714 10.959 61.8623 12.9635 61.8623 15.8844ZM64.8405 15.8081C64.8405 14.4335 65.7569 13.5172 66.9214 13.5172C68.2769 13.5172 69.2696 14.4144 69.2696 15.8081C69.2696 17.2017 68.296 18.1562 66.9405 18.1562C65.776 18.1562 64.8405 17.2017 64.8405 15.8081Z" fill="#535868"/>
<path d="M73.0664 16.0372C73.0664 19.0535 75.09 21.0581 78.1446 21.0581C81.18 21.0581 83.2037 19.0535 83.2037 16.0372C83.2037 13.0208 81.18 10.9971 78.1446 10.9971C75.09 10.9971 73.0664 13.0208 73.0664 16.0372ZM76.0255 16.0181C76.0255 14.5862 76.8655 13.6317 78.1446 13.6317C79.4046 13.6317 80.2446 14.5862 80.2446 16.0181C80.2446 17.469 79.4046 18.4235 78.1446 18.4235C76.8655 18.4235 76.0255 17.469 76.0255 16.0181Z" fill="#535868"/>
</svg>
