<svg width="134" height="24" viewBox="0 0 134 24" fill="none" xmlns="http://www.w3.org/2000/svg">
<path d="M19.0027 22.1893L1.0627 9.8143C-0.755304 8.5603 -0.137304 5.94928 2.1297 5.33528L21.1967 0.160282C21.6006 0.0145418 22.0334 -0.0327682 22.4593 0.0222817C22.8851 0.0773318 23.2917 0.233152 23.6453 0.476812C23.9988 0.720472 24.2892 1.04494 24.4922 1.42329C24.6952 1.80164 24.8051 2.22296 24.8127 2.65228L23.6827 20.2013C23.5487 22.2843 20.8207 23.4433 19.0027 22.1893Z" fill="#535868"/>
<path d="M24.7647 3.34831L15.0007 1.84131L3.0127 5.09631L7.7977 14.4573L19.0027 22.1893C19.2499 22.358 19.5218 22.4872 19.8087 22.5723L24.0647 14.2493L24.7647 3.34831Z" fill="#535868"/>
<path d="M74.2217 5.7642C74.2217 5.40127 74.3293 5.0465 74.5309 4.74473C74.7326 4.44297 75.0192 4.20777 75.3545 4.06888C75.6898 3.93 76.0587 3.89366 76.4147 3.96446C76.7706 4.03527 77.0976 4.21004 77.3542 4.46666C77.6109 4.72329 77.7856 5.05026 77.8564 5.40621C77.9272 5.76217 77.8909 6.13113 77.752 6.46643C77.6131 6.80173 77.3779 7.08832 77.0762 7.28995C76.7744 7.49158 76.4196 7.5992 76.0567 7.5992C75.5715 7.59426 75.1077 7.39934 74.7646 7.05628C74.4216 6.71321 74.2266 6.24934 74.2217 5.7642ZM74.5277 8.49618H77.5867V18.6902H74.5277V8.49618Z" fill="#535868"/>
<path d="M90.7966 13.5933C90.8322 14.2671 90.7341 14.9413 90.5082 15.5771C90.2822 16.2128 89.9328 16.7977 89.4801 17.298C89.0273 17.7982 88.4801 18.204 87.8699 18.4921C87.2597 18.7801 86.5986 18.9447 85.9246 18.9763C85.3577 19.0071 84.791 18.9115 84.2655 18.6964C83.7401 18.4812 83.2691 18.1519 82.8866 17.7323V22.7683H79.8286V8.4963H82.8866V9.4543C83.2692 9.0348 83.7402 8.7057 84.2657 8.4907C84.7911 8.27575 85.3578 8.18029 85.9246 8.21128C86.5986 8.24277 87.2596 8.40721 87.8698 8.6951C88.48 8.9831 89.0272 9.3888 89.48 9.889C89.9328 10.3892 90.2822 10.9739 90.5082 11.6097C90.7341 12.2454 90.8322 12.9195 90.7966 13.5933ZM87.7386 13.5933C87.7266 13.116 87.5741 12.6529 87.3002 12.2618C87.0263 11.8708 86.6431 11.5692 86.1987 11.3949C85.7542 11.2205 85.2682 11.1812 84.8015 11.2817C84.3348 11.3822 83.908 11.6181 83.5747 11.9599C83.2414 12.3017 83.0163 12.7343 82.9276 13.2034C82.8389 13.6725 82.8906 14.1574 83.0761 14.5973C83.2616 15.0372 83.5727 15.4126 83.9705 15.6766C84.3684 15.9406 84.8352 16.0813 85.3126 16.0813C85.6405 16.0961 85.9677 16.0413 86.2729 15.9207C86.5781 15.8 86.8543 15.6161 87.0834 15.3812C87.3125 15.1462 87.4893 14.8655 87.6023 14.5573C87.7152 14.2492 87.7617 13.9206 87.7386 13.5933Z" fill="#535868"/>
<path d="M100.236 15.6303C100.236 17.9753 98.1967 18.9743 95.9948 18.9743C95.1053 19.0548 94.212 18.8665 93.4306 18.4338C92.6492 18.0012 92.0157 17.344 91.6118 16.5473L94.2618 15.0393C94.3696 15.4076 94.6004 15.7277 94.9159 15.9461C95.2313 16.1645 95.6122 16.268 95.9948 16.2393C96.7288 16.2393 97.0948 16.0143 97.0948 15.6073C97.0948 14.4853 92.0798 15.0773 92.0798 11.5493C92.0798 9.3273 93.9548 8.2063 96.0798 8.2063C96.8769 8.18128 97.666 8.37041 98.3647 8.754C99.0647 9.1376 99.6477 9.7016 100.055 10.3873L97.4458 11.7943C97.3317 11.5267 97.1413 11.2986 96.8984 11.1386C96.6554 10.9785 96.3707 10.8936 96.0798 10.8943C95.5498 10.8943 95.2238 11.0943 95.2238 11.4653C95.2208 12.6353 100.236 11.8603 100.236 15.6303Z" fill="#535868"/>
<path d="M111.412 8.49609V18.6901H108.354V17.7301C108.001 18.153 107.552 18.4862 107.045 18.7025C106.539 18.9187 105.988 19.0118 105.438 18.9741C103.379 18.9741 101.626 17.5061 101.626 14.7531V8.49609H104.684V14.3071C104.658 14.5501 104.686 14.7958 104.765 15.027C104.844 15.2582 104.972 15.4695 105.141 15.6461C105.31 15.8227 105.515 15.9603 105.742 16.0494C105.97 16.1386 106.214 16.177 106.458 16.1621C107.579 16.1621 108.358 15.5101 108.358 14.0621V8.49609H111.412Z" fill="#535868"/>
<path d="M128.941 12.4299V18.6899H125.883V12.6959C125.883 11.6769 125.393 11.0239 124.415 11.0239C123.395 11.0239 122.825 11.7379 122.825 12.9409V18.6899H119.766V12.6959C119.766 11.6769 119.277 11.0239 118.298 11.0239C117.279 11.0239 116.708 11.7379 116.708 12.9409V18.6899H113.65V8.49594H116.713V9.42994C117.03 9.01404 117.446 8.68424 117.923 8.47054C118.4 8.25694 118.924 8.1663 119.445 8.20695C119.968 8.18136 120.49 8.2918 120.958 8.52754C121.426 8.76324 121.825 9.11614 122.116 9.55194C122.455 9.09604 122.904 8.73344 123.421 8.49824C123.938 8.26299 124.507 8.16278 125.073 8.20695C127.413 8.21095 128.941 9.88194 128.941 12.4299Z" fill="#535868"/>
<path d="M131.532 8.43306C132.786 8.43306 133.802 7.41676 133.802 6.16307C133.802 4.90939 132.786 3.89307 131.532 3.89307C130.278 3.89307 129.262 4.90939 129.262 6.16307C129.262 7.41676 130.278 8.43306 131.532 8.43306Z" fill="#535868"/>
<path d="M32.4697 3.80713H35.5287V18.6902H32.4697V3.80713ZM37.2607 13.5932C37.2574 12.5244 37.5712 11.4787 38.1625 10.5885C38.7538 9.69818 39.596 9.00338 40.5824 8.59208C41.5689 8.18076 42.6551 8.07139 43.7038 8.27783C44.7524 8.48428 45.7162 8.99718 46.4731 9.75178C47.23 10.5063 47.746 11.4684 47.9557 12.5164C48.1654 13.5644 48.0595 14.651 47.6513 15.6387C47.2431 16.6264 46.551 17.4708 45.6626 18.0649C44.7742 18.659 43.7295 18.9762 42.6607 18.9762C41.9509 18.9837 41.2467 18.8498 40.5892 18.5822C39.9318 18.3146 39.3342 17.9186 38.8315 17.4175C38.3287 16.9163 37.9309 16.32 37.6612 15.6634C37.3915 15.0068 37.2554 14.303 37.2607 13.5932ZM45.0087 13.5932C44.9967 13.1321 44.8491 12.6849 44.5842 12.3074C44.3194 11.9299 43.9491 11.6388 43.5197 11.4706C43.0902 11.3025 42.6208 11.2646 42.17 11.3619C41.7192 11.4591 41.3071 11.6872 40.9852 12.0174C40.6633 12.3477 40.446 12.7655 40.3603 13.2186C40.2747 13.6718 40.3245 14.1401 40.5037 14.5651C40.6828 14.99 40.9833 15.3527 41.3675 15.6078C41.7517 15.8629 42.2026 15.999 42.6637 15.9992C42.9795 16.0082 43.2938 15.9516 43.5866 15.8331C43.8795 15.7147 44.1446 15.5368 44.3653 15.3107C44.586 15.0847 44.7575 14.8154 44.8689 14.5198C44.9803 14.2241 45.0293 13.9086 45.0127 13.5932H45.0087ZM60.2577 8.49318V18.1782C60.2577 21.6032 57.5867 23.0502 54.8757 23.0502C53.9215 23.1222 52.9658 22.9301 52.1134 22.4949C51.2611 22.0598 50.545 21.3983 50.0437 20.5832L52.6527 19.0742C52.8633 19.4996 53.1988 19.8506 53.6143 20.0803C54.0298 20.3099 54.5054 20.4072 54.9777 20.3592C55.2792 20.4003 55.586 20.3733 55.8756 20.28C56.1652 20.1867 56.4301 20.0297 56.6509 19.8203C56.8716 19.611 57.0425 19.3548 57.151 19.0705C57.2595 18.7863 57.3028 18.4813 57.2777 18.1782V17.2402C56.9195 17.6782 56.4636 18.0262 55.9467 18.2563C55.4297 18.4864 54.866 18.5922 54.3007 18.5652C52.9552 18.5233 51.6787 17.9594 50.7417 16.9928C49.8047 16.0262 49.2807 14.7329 49.2807 13.3867C49.2807 12.0404 49.8047 10.7471 50.7417 9.78048C51.6787 8.81388 52.9552 8.24995 54.3007 8.20813C54.866 8.18109 55.4297 8.28685 55.9467 8.51698C56.4636 8.74708 56.9195 9.09508 57.2777 9.53318V8.49318H60.2577ZM57.2817 13.3862C57.3019 12.8938 57.1743 12.4067 56.9154 11.9874C56.6565 11.5681 56.2781 11.2358 55.8288 11.0333C55.3796 10.8308 54.88 10.7673 54.3944 10.851C53.9088 10.9347 53.4593 11.1617 53.1037 11.5029C52.7481 11.8441 52.5027 12.2838 52.3991 12.7655C52.2954 13.2473 52.3382 13.749 52.522 14.2063C52.7057 14.6635 53.0221 15.0553 53.4303 15.3313C53.8385 15.6073 54.32 15.7549 54.8127 15.7552C55.134 15.7777 55.4565 15.7328 55.7594 15.6233C56.0623 15.5138 56.3389 15.3421 56.5715 15.1192C56.804 14.8964 56.9874 14.6273 57.1097 14.3294C57.232 14.0314 57.2906 13.7111 57.2817 13.3892V13.3862ZM61.9897 13.5862C61.9864 12.5174 62.3002 11.4717 62.8915 10.5815C63.4828 9.69118 64.325 8.99638 65.3114 8.58508C66.2979 8.17376 67.3841 8.06439 68.4328 8.27083C69.4814 8.47728 70.4451 8.99018 71.2021 9.74478C71.959 10.4993 72.475 11.4614 72.6847 12.5094C72.8944 13.5574 72.7885 14.644 72.3803 15.6317C71.9721 16.6194 71.28 17.4638 70.3916 18.0579C69.5032 18.652 68.4585 18.9692 67.3897 18.9692C66.6805 18.9767 65.9769 18.843 65.3199 18.5758C64.6629 18.3087 64.0656 17.9133 63.563 17.4129C63.0603 16.9125 62.6624 16.3171 62.3923 15.6612C62.1221 15.0054 61.9853 14.3024 61.9897 13.5932V13.5862ZM69.7377 13.5862C69.7259 13.1249 69.5783 12.6773 69.3135 12.2994C69.0486 11.9216 68.6781 11.6303 68.2485 11.4619C67.8188 11.2935 67.3491 11.2556 66.898 11.3529C66.4469 11.4501 66.0345 11.6783 65.7125 12.0087C65.3904 12.3392 65.1729 12.7573 65.0873 13.2107C65.0016 13.6641 65.0516 14.1328 65.2309 14.5579C65.4103 14.9831 65.711 15.3459 66.0955 15.6011C66.4801 15.8562 66.9313 15.9922 67.3927 15.9922C67.7076 16.0005 68.0207 15.9438 68.3126 15.8255C68.6045 15.7072 68.8688 15.5298 69.089 15.3046C69.3091 15.0794 69.4804 14.8111 69.592 14.5166C69.7037 14.2221 69.7533 13.9077 69.7377 13.5932V13.5862Z" fill="#535868"/>
</svg>
