<svg width="727" height="430" viewBox="0 0 727 430" fill="none" xmlns="http://www.w3.org/2000/svg">
<g clip-path="url(#clip0)">
<path fill-rule="evenodd" clip-rule="evenodd" d="M414.931 226.081C412.721 201.215 381.915 200.663 381.915 200.663C381.915 200.663 388.408 188.644 382.053 176.902C369.206 152.728 342.268 161.016 334.532 162.674C318.508 165.989 322.514 178.975 315.883 190.164C312.43 195.966 286.597 205.636 283.834 224.561C281.071 243.487 289.36 259.235 304.556 265.728C311.601 268.767 339.782 255.229 346.965 258.13C355.53 261.722 387.993 253.986 393.795 255.92C393.795 255.92 417.141 250.947 414.931 226.081Z" fill="#DFE6F2"/>
<path fill-rule="evenodd" clip-rule="evenodd" d="M505.69 317.531L601.423 220.141C601.423 220.141 620.763 240.033 624.216 238.376C629.88 235.751 622.144 228.015 622.144 228.015C622.144 228.015 640.931 232.436 649.634 232.712C658.476 232.988 654.746 222.904 654.746 222.904C654.746 222.904 665.245 221.799 667.869 217.931C670.494 214.063 662.482 211.991 662.205 210.333C661.929 208.813 685.828 202.044 678.092 196.242C674.224 193.203 645.214 196.38 645.214 196.38C645.214 196.38 619.381 189.059 620.486 186.987C620.486 186.987 646.595 168.2 640.931 165.713C637.754 164.332 621.592 170.824 606.949 174.14C594.654 177.041 584.155 179.527 578.768 183.81C542.298 213.648 479.444 259.788 479.444 259.788L378.185 254.262L394.762 317.669C394.762 317.669 418.799 323.747 446.428 323.609C474.47 323.747 505.69 317.531 505.69 317.531Z" fill="#DFE6F2"/>
<path fill-rule="evenodd" clip-rule="evenodd" d="M446.428 324.714C419.075 324.714 395.039 318.774 394.762 318.636C394.486 318.498 394.21 318.222 394.072 317.945L377.495 254.676C377.357 254.4 377.495 254.124 377.633 253.848C377.771 253.571 378.185 253.433 378.462 253.433L479.305 258.821C483.864 255.367 543.541 211.438 578.353 182.981C583.603 178.698 593.549 176.074 606.949 173.035C612.889 171.653 618.967 169.857 624.355 168.2C634.163 165.299 639.412 163.779 641.484 164.608C642.313 165.022 642.727 165.575 642.866 166.404C643.418 171.101 626.979 183.395 622.006 186.987C624.493 188.645 635.406 192.236 645.49 195.137C649.22 194.723 674.914 192.236 678.921 195.275C680.302 196.381 680.993 197.624 680.855 198.867C680.44 202.459 674.638 205.36 667.455 208.537C666.073 209.228 664.416 209.918 663.587 210.333C664.001 210.609 664.554 210.885 664.968 211.162C666.764 212.267 668.974 213.648 669.389 215.582C669.527 216.549 669.389 217.378 668.698 218.345C666.35 221.799 658.89 223.18 655.989 223.594C656.403 225.39 656.956 228.982 655.298 231.33C654.193 232.85 652.259 233.679 649.634 233.541C642.866 233.264 630.433 230.64 624.769 229.396C626.15 231.192 627.67 233.817 627.255 236.027C627.117 236.994 626.565 238.238 624.769 239.066C621.177 240.724 607.777 227.739 601.561 221.384L506.519 318.084C506.381 318.222 506.243 318.36 505.967 318.36C505.691 318.36 474.194 324.438 446.842 324.576C446.704 324.714 446.566 324.714 446.428 324.714ZM395.868 316.979C399.597 317.807 421.7 322.78 446.566 322.78C446.704 322.78 446.704 322.78 446.842 322.78C472.675 322.78 502.099 317.255 505.414 316.702L601.008 219.45C601.147 219.312 601.423 219.174 601.699 219.174C601.837 219.174 602.252 219.312 602.39 219.45C611.369 228.706 622.282 238.099 624.216 237.547C625.045 237.132 625.598 236.58 625.598 235.889C626.012 233.541 622.835 229.811 621.73 228.706C621.454 228.429 621.315 227.877 621.592 227.601C621.868 227.186 622.282 227.048 622.697 227.186C622.835 227.186 641.484 231.607 650.049 231.883C651.983 231.883 653.364 231.469 654.055 230.363C655.436 228.429 654.608 224.561 654.193 223.318C654.055 223.042 654.193 222.766 654.331 222.489C654.469 222.213 654.746 222.075 655.022 222.075C657.785 221.799 665.521 220.417 667.455 217.516C667.869 216.964 667.869 216.549 667.731 216.273C667.455 215.168 665.659 213.925 664.278 213.096C662.896 212.267 661.791 211.576 661.653 210.609C661.515 209.366 662.758 208.813 666.902 207.017C671.047 205.222 678.782 201.768 679.059 199.005C679.059 198.729 679.197 198.038 677.954 197.209C675.329 195.275 656.818 196.381 645.767 197.486C645.628 197.486 645.49 197.486 645.352 197.486C638.169 195.414 621.177 190.44 620.072 187.816C619.934 187.401 619.934 186.987 620.072 186.711C620.21 186.572 620.21 186.434 620.348 186.434C630.847 178.975 641.484 169.581 641.208 167.094C641.208 167.094 641.208 166.956 640.932 166.818C639.412 166.127 632.09 168.338 625.183 170.41C619.796 172.068 613.579 173.863 607.639 175.245C594.516 178.284 584.846 180.77 579.873 184.777C543.68 214.201 481.101 260.34 480.549 260.893C480.411 261.031 480.134 261.031 479.858 261.031L379.981 255.643L395.868 316.979Z" fill="#101C3D"/>
<path fill-rule="evenodd" clip-rule="evenodd" d="M307.733 245.145L202.607 286.311L96.5138 196.381L31.4489 142.92C31.4489 142.92 21.6408 147.34 29.5149 156.458C42.0858 171.101 56.1763 184.777 56.1763 184.777C56.1763 184.777 37.9416 212.129 42.0858 216.549C51.6176 226.772 81.3182 243.901 81.3182 243.901L174.84 344.607L336.605 292.251L307.733 245.145Z" fill="#DFE6F2"/>
<path fill-rule="evenodd" clip-rule="evenodd" d="M174.84 345.436C174.564 345.436 174.288 345.298 174.15 345.159L80.6275 244.592C78.2791 243.211 50.6507 227.186 41.3952 217.24C37.1128 212.681 51.0651 190.855 54.9331 184.915C52.1703 182.152 39.8756 169.995 28.8243 157.148C26.0614 153.971 25.0944 150.932 25.647 148.169C26.614 144.025 30.8964 142.091 31.0345 142.091C31.3108 141.953 31.7253 141.953 32.0015 142.229L97.0664 195.69L202.745 285.206L307.457 245.316C307.871 245.178 308.424 245.316 308.7 245.73L337.572 291.699C337.71 291.975 337.71 292.251 337.71 292.527C337.71 292.804 337.433 293.08 337.157 293.08L175.393 345.574C174.979 345.436 174.84 345.436 174.84 345.436ZM31.3108 144.025C30.3438 144.577 28.1336 146.097 27.581 148.583C27.1666 150.794 27.9954 153.142 30.3438 155.905C42.7766 170.41 56.8671 183.948 57.0052 184.086C57.2815 184.362 57.4197 184.915 57.1434 185.329C48.3023 198.453 40.5663 213.51 42.9148 215.997C52.3084 225.943 81.5945 242.934 81.8708 243.073C82.0089 243.073 82.0089 243.211 82.1471 243.211L175.255 343.364L335.085 291.56L307.319 247.25L202.883 287.002C202.607 287.14 202.192 287.002 201.916 286.864L95.8231 196.933L31.3108 144.025Z" fill="#101C3D"/>
<path fill-rule="evenodd" clip-rule="evenodd" d="M416.727 258.406C416.727 258.406 382.33 428.045 398.354 407.323C414.379 386.74 444.77 469.625 444.77 469.625L301.102 457.193L304.556 391.023L286.183 296.119L303.45 247.493L340.473 247.907L416.727 258.406Z" fill="#DFE6F2"/>
<path fill-rule="evenodd" clip-rule="evenodd" d="M444.77 470.592L300.964 458.16C300.411 458.16 299.997 457.607 300.135 457.193L303.451 391.161L285.078 296.395C285.078 296.257 285.078 296.119 285.078 295.843L302.345 247.217C302.484 246.802 302.76 246.526 303.312 246.526L340.334 246.94L416.865 257.301C417.141 257.301 417.418 257.439 417.556 257.716C417.694 257.992 417.832 258.268 417.694 258.406C417.556 258.821 410.234 295.428 403.88 332.036C392.138 400.278 394.901 407.323 396.006 407.876C396.006 407.876 396.42 407.876 397.525 406.494C399.736 403.593 402.36 402.488 405.261 402.903C422.115 405.527 444.632 466.448 445.599 468.935C445.737 469.211 445.599 469.625 445.461 469.902C445.322 470.454 445.046 470.592 444.77 470.592ZM302.069 456.364L443.25 468.52C441.593 464.238 436.619 451.252 430.265 438.267C420.181 417.546 411.478 406.08 404.985 405.113C402.775 404.699 400.841 405.666 399.045 408.014C398.492 408.705 396.973 410.777 395.177 409.948C393.381 409.119 389.099 407.185 401.946 332.036C407.61 298.744 414.379 265.313 415.622 259.235L340.196 249.013L304.003 248.598L287.012 296.257L305.385 390.884C305.385 391.023 305.385 391.023 305.385 391.161L302.069 456.364Z" fill="#101C3D"/>
<path fill-rule="evenodd" clip-rule="evenodd" d="M358.431 324.162L283.005 400.693L277.756 643.685L312.706 844.681C316.021 843.991 384.402 844.543 400.702 841.366C399.321 805.725 387.026 647.691 387.026 647.691L384.816 515.074C384.816 515.074 466.182 627.936 485.245 634.015C504.723 640.231 653.641 648.381 653.641 648.381L675.191 563.839L624.354 547.676L522.82 515.351C522.82 515.351 441.178 402.35 429.574 384.945C417.97 367.539 358.431 324.162 358.431 324.162Z" fill="#101C3D"/>
<path fill-rule="evenodd" clip-rule="evenodd" d="M312.706 845.648C312.568 845.648 312.292 845.648 312.154 845.51C311.877 845.372 311.739 845.095 311.739 844.957L276.789 643.822V643.684L282.039 400.693C282.039 400.416 282.177 400.278 282.315 400.002L357.741 323.609C358.017 323.333 358.569 323.195 358.984 323.471C361.47 325.267 418.937 367.124 430.541 384.53C441.731 401.383 519.367 508.72 523.649 514.66L675.605 563.009C676.02 563.148 676.296 563.7 676.158 564.115L654.608 648.657C654.47 649.072 654.055 649.348 653.641 649.348C647.563 649.072 504.309 641.06 484.969 634.981C467.425 629.456 399.321 536.624 385.783 517.975L387.994 647.69C388.132 649.21 400.288 806.001 401.67 841.366C401.67 841.78 401.393 842.194 400.979 842.333C389.928 844.405 355.53 844.819 332.599 845.095C322.652 845.234 313.95 845.372 312.983 845.51C312.706 845.648 312.706 845.648 312.706 845.648ZM278.585 643.546L313.397 843.576C315.745 843.438 321.962 843.299 332.322 843.161C354.563 842.885 387.855 842.471 399.598 840.537C398.078 803.791 386.198 649.348 386.06 647.69L383.849 515.074C383.849 514.66 384.126 514.245 384.54 514.245C385.231 513.969 385.507 514.522 385.783 514.798C394.072 526.264 467.84 627.522 485.66 633.186C504.033 639.126 641.622 646.862 653.088 647.414L674.224 564.391L522.682 516.179C522.544 516.179 522.268 516.041 522.268 515.903C521.439 514.798 440.488 402.765 429.022 385.497C418.247 369.334 365.062 330.102 358.569 325.405L283.973 400.969L278.585 643.546Z" fill="#101C3D"/>
<path fill-rule="evenodd" clip-rule="evenodd" d="M654.193 211.3C644.247 211.3 636.373 210.195 626.15 206.879C625.736 206.741 625.46 206.189 625.598 205.774C625.736 205.36 626.288 205.083 626.703 205.222C639.55 209.504 648.667 209.918 663.172 209.366C663.725 209.228 664.139 209.78 664.139 210.195C664.139 210.747 663.725 211.162 663.31 211.162C659.995 211.162 656.956 211.3 654.193 211.3Z" fill="#101C3D"/>
<path fill-rule="evenodd" clip-rule="evenodd" d="M651.016 224.147C640.793 224.147 628.222 219.865 620.348 217.24C619.934 217.102 619.657 216.549 619.795 216.135C619.934 215.582 620.486 215.444 620.901 215.582C629.604 218.483 644.108 223.318 654.193 222.213C654.745 222.213 655.16 222.489 655.16 223.042C655.16 223.595 654.884 224.009 654.331 224.009C653.364 224.147 652.121 224.147 651.016 224.147Z" fill="#101C3D"/>
<path fill-rule="evenodd" clip-rule="evenodd" d="M622.973 228.982C622.835 228.982 622.835 228.982 622.697 228.982C618.967 228.015 613.717 225.667 610.816 223.042C610.402 222.766 610.402 222.075 610.816 221.799C611.093 221.384 611.783 221.384 612.06 221.799C614.823 224.285 619.796 226.495 623.249 227.324C623.802 227.462 624.078 228.015 623.94 228.429C623.802 228.706 623.387 228.982 622.973 228.982Z" fill="#101C3D"/>
<path fill-rule="evenodd" clip-rule="evenodd" d="M337.433 249.427C350.557 256.611 370.173 251.637 370.173 251.637C370.173 251.637 352.767 193.065 339.92 190.026C335.499 188.921 326.935 223.733 326.935 223.733C326.935 223.733 338.677 245.283 337.433 249.427Z" fill="#DFE6F2"/>
<path fill-rule="evenodd" clip-rule="evenodd" d="M355.392 254.262C349.452 254.262 342.683 253.295 336.881 250.256C336.466 249.98 336.328 249.565 336.466 249.151C337.295 246.388 330.388 232.436 325.968 224.285C325.829 224.009 325.829 223.871 325.829 223.595C329.145 210.195 335.361 188.092 340.058 189.197C345.722 190.579 352.629 201.492 360.641 221.661C366.581 236.58 371.002 251.223 371.002 251.361C371.14 251.637 371.002 251.914 370.864 252.052C370.726 252.328 370.449 252.466 370.311 252.466C369.897 252.604 363.266 254.262 355.392 254.262ZM338.4 248.874C349.314 254.4 364.786 251.775 368.792 250.947C363.68 234.093 349.452 193.341 339.506 191.131C337.295 191.407 331.631 208.123 327.763 223.871C330.112 227.739 338.539 243.625 338.4 248.874Z" fill="#101C3D"/>
<path fill-rule="evenodd" clip-rule="evenodd" d="M346.965 187.678C350.971 191.131 361.885 195.828 360.641 199.143C359.26 202.321 353.182 216.549 347.518 223.456C342.545 229.396 334.947 233.264 321.823 231.469C317.955 230.64 305.246 218.483 312.43 205.36C315.607 199.281 320.856 190.717 328.592 181.599C332.184 177.455 342.959 184.5 346.965 187.678Z" fill="#DFE6F2"/>
<path fill-rule="evenodd" clip-rule="evenodd" d="M327.763 232.85C325.829 232.85 323.757 232.712 321.685 232.436C319.061 231.883 313.811 227.463 311.186 221.523C309.391 217.655 308.009 211.576 311.601 204.946C314.64 199.144 319.889 190.302 327.902 181.047C332.875 175.383 347.38 186.987 347.518 187.125C348.761 188.23 350.833 189.474 353.043 190.855C357.878 193.894 362.575 196.657 361.47 199.558C356.635 210.886 351.938 219.589 348.208 224.147C343.374 229.949 336.605 232.85 327.763 232.85ZM331.77 181.323C330.803 181.323 329.974 181.6 329.421 182.152C321.547 191.408 316.298 200.111 313.259 205.774C310.081 211.714 311.325 217.102 312.844 220.694C315.469 226.358 320.166 230.087 321.961 230.502C333.013 231.883 341.163 229.397 346.689 222.766C350.281 218.345 354.977 209.781 359.674 198.729C360.227 197.348 355.116 194.17 352.076 192.375C349.866 190.993 347.794 189.75 346.274 188.507C342.13 185.053 335.638 181.323 331.77 181.323Z" fill="#101C3D"/>
<path fill-rule="evenodd" clip-rule="evenodd" d="M322.514 207.57C322.1 207.57 321.685 207.294 321.547 206.741L321.133 203.149C321.133 202.735 321.271 202.321 321.685 202.182L325.968 200.525L331.079 194.447C331.355 194.032 332.046 194.032 332.322 194.308C332.737 194.585 332.737 195.275 332.46 195.552L327.211 201.906C327.073 202.044 326.935 202.182 326.797 202.182L322.929 203.702L323.343 206.603C323.619 207.017 323.205 207.432 322.514 207.57C322.652 207.57 322.652 207.57 322.514 207.57Z" fill="#101C3D"/>
<path fill-rule="evenodd" clip-rule="evenodd" d="M323.205 215.168C322.652 215.168 322.238 215.168 321.685 215.03C321.133 214.892 320.857 214.477 320.995 213.925C321.133 213.372 321.547 213.096 322.1 213.234C323.758 213.648 325.83 213.096 327.211 211.852C327.625 211.576 328.178 211.576 328.454 211.991C328.731 212.405 328.731 212.958 328.316 213.234C326.935 214.477 325.001 215.168 323.205 215.168Z" fill="#101C3D"/>
<path fill-rule="evenodd" clip-rule="evenodd" d="M347.518 207.294C347.518 207.294 343.512 208.675 340.335 206.741C339.782 206.465 339.229 206.051 338.677 205.636C337.434 204.669 336.605 203.426 336.052 202.597C335.361 201.492 335.223 200.663 335.223 200.663C335.223 200.663 335.638 200.525 336.328 200.525C337.71 200.387 340.196 200.525 342.545 202.045C342.959 202.321 343.236 202.459 343.65 202.735C346.275 204.669 347.518 207.294 347.518 207.294Z" fill="#D8D8D8"/>
<path fill-rule="evenodd" clip-rule="evenodd" d="M344.341 208.675C342.959 208.675 341.301 208.399 339.92 207.432C339.367 207.156 338.815 206.741 338.262 206.327C337.157 205.36 336.19 204.255 335.361 203.011V202.873C334.671 201.768 334.532 200.939 334.532 200.801C334.532 200.525 334.532 200.249 334.671 200.11C334.809 199.834 335.085 199.696 335.223 199.696C335.223 199.696 335.638 199.558 336.328 199.558C337.71 199.42 340.473 199.558 343.097 201.216C343.512 201.492 343.926 201.768 344.202 202.044C346.965 204.117 348.209 206.879 348.347 207.017C348.485 207.294 348.485 207.57 348.347 207.708C348.209 207.846 348.07 208.123 347.794 208.261C347.656 208.123 346.275 208.675 344.341 208.675ZM337.019 202.183C337.572 203.288 338.4 204.117 339.367 204.945C339.782 205.36 340.334 205.636 340.887 205.912C342.683 207.017 344.893 206.879 346.136 206.741C345.584 205.912 344.617 204.531 343.097 203.564C342.821 203.288 342.407 203.15 342.13 202.873C340.058 201.63 337.848 201.492 336.605 201.492C336.605 201.63 336.743 201.906 337.019 202.183C336.881 202.183 337.019 202.183 337.019 202.183Z" fill="#101C3D"/>
<path fill-rule="evenodd" clip-rule="evenodd" d="M321.547 191.822L318.508 196.104C318.508 196.104 318.508 196.104 318.646 196.104C322.376 197.624 325.968 195.69 325.968 195.69C325.968 195.69 324.31 193.48 321.547 191.822Z" fill="#D8D8D8"/>
<path fill-rule="evenodd" clip-rule="evenodd" d="M321.547 197.624C320.442 197.624 319.337 197.486 318.232 196.933C317.956 196.795 317.679 196.519 317.679 196.381C317.679 196.243 317.679 195.828 317.817 195.552L320.857 191.269C321.133 190.855 321.685 190.717 322.1 190.993C325.001 192.651 326.659 194.999 326.659 195.137C326.797 195.414 326.797 195.552 326.797 195.828C326.797 196.104 326.52 196.243 326.382 196.381C326.106 196.519 324.172 197.624 321.547 197.624ZM319.89 195.552C321.685 195.966 323.343 195.552 324.31 195.276C323.758 194.723 322.929 193.756 321.685 193.065L319.89 195.552Z" fill="#101C3D"/>
<path fill-rule="evenodd" clip-rule="evenodd" d="M321.547 191.684L318.508 196.104C318.646 196.243 318.922 196.243 319.061 196.381C319.337 196.519 319.613 196.519 319.751 196.519C322.514 196.933 324.034 193.065 321.547 191.684Z" fill="#101C3D"/>
<path fill-rule="evenodd" clip-rule="evenodd" d="M341.716 195.966C340.887 195.552 340.334 195.276 340.611 194.309C341.025 193.203 342.268 192.927 343.235 192.927C345.998 192.789 348.899 193.618 351.248 195.276C351.8 195.552 352.491 196.243 352.353 196.933C352.353 197.486 351.8 197.9 351.248 198.038C350.695 198.177 350.142 198.177 349.59 198.038C347.103 197.624 344.341 196.933 341.716 195.966Z" fill="#101C3D"/>
<path fill-rule="evenodd" clip-rule="evenodd" d="M322.652 186.296C322.238 186.02 321.685 185.467 322.1 184.777C322.652 183.948 323.481 183.81 324.31 183.948C326.382 184.224 328.316 185.191 329.836 186.849C330.112 187.263 330.526 187.816 330.388 188.506C330.25 188.921 329.836 189.197 329.421 189.197C329.007 189.197 328.592 189.197 328.178 189.059C326.106 188.368 324.31 187.401 322.652 186.296Z" fill="#101C3D"/>
<path fill-rule="evenodd" clip-rule="evenodd" d="M350.971 214.892C352.077 216.135 353.32 217.102 354.701 217.793C356.083 218.483 357.74 218.76 359.26 218.345C361.47 217.516 362.99 215.03 362.714 212.681C362.437 210.333 360.365 208.399 358.017 207.985C355.668 207.57 353.044 208.675 351.662 210.609" fill="#DFE6F2"/>
<path fill-rule="evenodd" clip-rule="evenodd" d="M357.741 219.588C356.497 219.588 355.392 219.312 354.287 218.76C352.906 218.069 351.662 216.964 350.281 215.582C349.866 215.168 350.005 214.615 350.281 214.201C350.695 213.787 351.248 213.925 351.662 214.201C352.906 215.444 354.011 216.411 355.116 216.964C356.359 217.654 357.741 217.793 358.984 217.516C360.78 216.964 362.023 214.754 361.747 212.958C361.47 211.162 359.813 209.504 357.741 209.09C355.807 208.813 353.596 209.642 352.353 211.3C352.077 211.714 351.386 211.853 350.972 211.438C350.557 211.162 350.419 210.471 350.833 210.057C352.491 207.846 355.392 206.741 358.155 207.018C361.056 207.57 363.404 209.919 363.681 212.681C364.095 215.444 362.161 218.483 359.536 219.45C358.984 219.588 358.431 219.588 357.741 219.588Z" fill="#101C3D"/>
<path fill-rule="evenodd" clip-rule="evenodd" d="M354.287 215.306C354.149 215.306 354.011 215.306 353.872 215.168C353.458 214.892 353.32 214.339 353.458 213.925C354.563 211.991 357.05 210.747 359.26 211.3C359.813 211.438 360.089 211.853 359.951 212.405C359.813 212.958 359.398 213.234 358.846 213.096C357.464 212.82 355.806 213.51 355.116 214.892C354.978 215.168 354.701 215.306 354.287 215.306Z" fill="#101C3D"/>
<path fill-rule="evenodd" clip-rule="evenodd" d="M357.464 215.168C357.05 215.168 356.635 214.892 356.635 214.477C356.497 214.201 356.221 213.925 355.944 213.787C355.53 213.648 355.254 213.096 355.392 212.543C355.53 211.991 356.083 211.853 356.635 211.991C357.602 212.405 358.293 213.096 358.569 213.925C358.707 214.477 358.431 214.892 357.878 215.03C357.602 215.168 357.464 215.168 357.464 215.168Z" fill="#101C3D"/>
<path fill-rule="evenodd" clip-rule="evenodd" d="M343.65 202.735C343.235 204.807 341.301 206.051 339.367 205.774C339.091 205.774 338.953 205.636 338.815 205.636C337.572 204.669 336.743 203.426 336.19 202.597C336.19 202.183 336.19 201.768 336.19 201.492C336.19 201.216 336.328 200.939 336.466 200.663C337.848 200.525 340.334 200.663 342.683 202.183C342.959 202.183 343.374 202.459 343.65 202.735Z" fill="#101C3D"/>
<path fill-rule="evenodd" clip-rule="evenodd" d="M329.559 231.745L341.163 228.706L349.175 221.108L335.776 243.763L329.559 231.745Z" fill="#101C3D"/>
<path fill-rule="evenodd" clip-rule="evenodd" d="M425.706 253.572L457.479 451.253C457.479 451.253 413.412 428.459 396.558 432.051C379.705 435.643 359.398 439.373 344.34 435.643C304.417 425.835 294.471 399.311 294.471 399.311L275.96 318.36L292.675 245.836L314.364 246.112L305.384 275.812C305.384 275.812 325.553 283.272 348.485 285.206C371.416 287.278 397.111 283.963 397.111 283.963L402.498 253.848L425.706 253.572Z" fill="#4070F4"/>
<path fill-rule="evenodd" clip-rule="evenodd" d="M370.587 280.371L399.045 267.938C399.735 264.208 362.161 242.52 362.161 242.52C362.161 242.52 351.938 238.928 338.4 243.487C334.671 244.73 332.737 246.941 329.145 249.427C319.889 255.782 310.634 264.208 310.634 264.208L370.587 280.371Z" fill="#DFE6F2"/>
<path fill-rule="evenodd" clip-rule="evenodd" d="M353.872 182.014C352.629 179.527 350.419 162.398 352.215 159.773C359.26 149.274 378.185 152.037 379.291 165.713C379.705 170.272 375.146 173.863 373.35 177.593" fill="#DFE6F2"/>
<path fill-rule="evenodd" clip-rule="evenodd" d="M92.2313 266.142L127.319 218.207L204.126 282.719L296.405 243.625C296.405 243.625 290.88 282.167 297.372 312.143C303.727 342.12 322.514 433.985 322.514 433.985L275.27 492.281L265.876 343.64C265.876 343.64 195.009 361.046 174.978 352.895C157.434 345.85 92.2313 266.142 92.2313 266.142Z" fill="#254898"/>
<path fill-rule="evenodd" clip-rule="evenodd" d="M418.523 249.289L453.473 451.943L510.111 479.433L457.341 325.129C457.341 325.129 502.513 322.919 512.321 315.459C522.129 307.999 597.417 228.429 597.417 228.429L575.59 172.896C575.59 172.896 492.014 237.823 483.312 241.415C474.747 245.145 418.523 249.289 418.523 249.289Z" fill="#254898"/>
<path fill-rule="evenodd" clip-rule="evenodd" d="M55.6238 215.444C55.4856 215.444 55.2093 215.444 55.0712 215.306L43.8817 207.432C43.4673 207.156 43.3291 206.603 43.6054 206.189C43.8817 205.774 44.4343 205.636 44.8487 205.912L56.0382 213.786C56.4526 214.063 56.5908 214.615 56.3145 215.03C56.1763 215.306 55.9 215.444 55.6238 215.444Z" fill="#101C3D"/>
<path fill-rule="evenodd" clip-rule="evenodd" d="M61.1495 205.222C61.0113 205.222 60.7351 205.222 60.5969 205.083L48.8548 196.657C48.4404 196.381 48.3023 195.828 48.5786 195.414C48.8548 194.999 49.4074 194.861 49.8218 195.137L61.5639 203.564C61.9783 203.84 62.1165 204.393 61.8402 204.807C61.8402 205.083 61.4258 205.222 61.1495 205.222Z" fill="#101C3D"/>
<path fill-rule="evenodd" clip-rule="evenodd" d="M67.5039 194.999C67.3658 194.999 67.0895 194.999 66.9513 194.861L55.7618 185.882C55.3474 185.606 55.3474 185.053 55.6237 184.639C55.9 184.224 56.4526 184.224 56.867 184.5L68.0565 193.48C68.4709 193.756 68.4709 194.308 68.1946 194.723C68.0565 194.861 67.7802 194.999 67.5039 194.999Z" fill="#101C3D"/>
<path fill-rule="evenodd" clip-rule="evenodd" d="M208.685 354.415C208.271 354.415 207.856 354.139 207.718 353.586C207.58 353.034 207.994 352.619 208.547 352.481C209.238 352.343 271.263 343.778 280.933 336.595C281.348 336.318 281.9 336.318 282.177 336.733C282.453 337.147 282.453 337.7 282.038 337.976C271.954 345.574 211.31 354.001 208.685 354.415Z" fill="#101C3D"/>
<path fill-rule="evenodd" clip-rule="evenodd" d="M427.916 303.302L455.269 454.844L435.79 448.352L427.916 303.302Z" fill="#101C3D"/>
<path fill-rule="evenodd" clip-rule="evenodd" d="M472.674 366.986C472.26 366.986 471.984 366.71 471.846 366.295L450.019 301.368C449.881 300.954 450.157 300.401 450.572 300.263C450.986 300.125 451.539 300.401 451.677 300.816L473.503 365.743C473.641 366.157 473.365 366.71 472.951 366.848C472.813 366.986 472.674 366.986 472.674 366.986Z" fill="#101C3D"/>
<path fill-rule="evenodd" clip-rule="evenodd" d="M354.425 220.694L351.248 222.075C350.419 222.489 349.314 222.075 349.037 221.246L347.656 218.069C347.242 217.24 347.656 216.135 348.485 215.859L351.662 214.477C352.491 214.063 353.596 214.477 353.872 215.306L355.254 218.483C355.668 219.312 355.254 220.417 354.425 220.694Z" fill="#4070F4"/>
<path d="M601 121.662C601 87.0699 629.186 59 663.779 59C698.487 59 726.557 87.0699 726.557 121.662C726.557 156.255 698.487 184.324 663.779 184.324C629.07 184.208 601 156.138 601 121.662Z" fill="#2BD67B"/>
<path fill-rule="evenodd" clip-rule="evenodd" d="M648.637 119.566C629.536 127.02 616.374 96.1547 641.765 84.158C664.478 75.6555 671.466 94.99 671.466 94.99C672.281 95.2229 678.454 88.2346 684.278 94.99C689.752 101.279 687.889 109.2 686.258 107.802C686.491 108.268 695.925 106.987 696.973 125.972C695.925 138.434 681.25 151.246 668.904 144.957C664.128 142.511 675.542 135.755 674.611 131.679C672.864 124.341 665.642 121.895 659.003 120.614C657.023 120.148 650.617 118.867 648.637 119.566Z" fill="#DFE6F2"/>
<path fill-rule="evenodd" clip-rule="evenodd" d="M660.867 108.734C666.574 110.481 679.852 110.131 680.085 113.975C680.201 117.935 680.667 135.173 678.105 144.84C675.892 153.226 669.835 160.68 655.742 165.106C651.433 166.038 632.797 159.632 633.962 142.977C634.311 135.289 635.592 124.108 639.319 111.18C640.95 105.24 655.16 107.336 660.867 108.734Z" fill="#DFE6F2"/>
<path fill-rule="evenodd" clip-rule="evenodd" d="M654.81 165.922C651.433 165.922 645.259 163.825 640.368 159.749C636.757 156.604 632.564 151.13 633.146 142.86C633.496 135.639 634.777 124.108 638.504 110.83C640.834 103.027 660.867 107.918 661.1 107.918C662.963 108.501 665.642 108.85 668.554 109.2C674.843 110.015 680.784 110.714 680.9 113.975C681.249 127.719 680.551 138.784 678.92 145.073C676.241 155.09 668.787 161.962 655.975 165.922C655.626 165.922 655.276 165.922 654.81 165.922ZM648.87 108.035C644.561 108.035 640.834 108.85 640.135 111.296C636.408 124.458 635.126 135.755 634.777 142.977C634.311 150.664 638.155 155.672 641.532 158.584C646.89 163.126 653.645 164.757 655.626 164.408C667.739 160.681 674.843 154.158 677.406 144.724C679.036 138.551 679.735 127.602 679.386 114.092C679.269 112.228 672.98 111.413 668.438 110.947C665.526 110.597 662.73 110.248 660.75 109.666C657.606 108.734 652.947 108.035 648.87 108.035Z" fill="#101C3D"/>
<path fill-rule="evenodd" clip-rule="evenodd" d="M646.657 140.181C646.424 140.181 646.191 140.065 645.958 139.832L643.745 136.338C643.512 135.988 643.629 135.639 643.862 135.406L647.589 131.679L649.918 122.943C650.035 122.478 650.501 122.245 650.85 122.361C651.316 122.478 651.549 122.943 651.433 123.293L648.987 132.145C648.987 132.261 648.87 132.378 648.754 132.494L645.376 135.988L647.24 138.9C647.473 139.25 647.356 139.715 647.007 139.948C647.007 140.181 646.89 140.181 646.657 140.181Z" fill="#101C3D"/>
<path fill-rule="evenodd" clip-rule="evenodd" d="M647.705 148.101C647.356 148.101 647.006 147.869 647.006 147.519C646.89 147.053 647.123 146.704 647.589 146.587C649.569 146.121 651.432 144.607 652.364 142.627C652.597 142.278 653.063 142.045 653.412 142.278C653.762 142.511 653.995 142.977 653.762 143.326C652.597 145.656 650.384 147.519 647.938 148.101C647.822 148.101 647.705 148.101 647.705 148.101Z" fill="#101C3D"/>
<path fill-rule="evenodd" clip-rule="evenodd" d="M663.08 131.213C657.722 130.747 655.043 127.369 655.043 127.369C655.043 127.369 658.537 124.691 663.08 125.273C667.506 125.739 670.534 128.418 670.534 128.418C670.534 128.418 667.156 131.795 663.08 131.213Z" fill="#D8D8D8"/>
<path fill-rule="evenodd" clip-rule="evenodd" d="M662.497 125.622C666.923 126.671 666.807 129 666.574 130.631C666.574 130.631 664.361 131.562 661.682 130.98C659.12 130.514 656.907 129 656.79 128.884C656.79 127.486 659.12 125.389 662.497 125.622Z" fill="#101C3D"/>
<path fill-rule="evenodd" clip-rule="evenodd" d="M634.66 130.631C635.126 130.631 635.359 130.514 635.825 130.631C640.368 130.514 643.046 126.787 643.046 126.787C643.046 126.787 640.135 125.04 636.175 124.807C636.175 124.923 634.777 130.165 634.66 130.631Z" fill="#D8D8D8"/>
<path fill-rule="evenodd" clip-rule="evenodd" d="M634.544 130.864C635.126 130.98 635.825 130.864 636.757 130.864C639.436 130.514 641.066 129 641.066 129C640.95 127.486 639.319 125.156 635.942 125.506C635.825 125.506 635.825 126.554 635.709 126.554C635.592 126.671 635.592 127.02 635.476 127.253C635.359 127.719 635.126 128.418 634.893 128.884C634.66 129.466 634.544 130.165 634.544 130.864Z" fill="#101C3D"/>
<path fill-rule="evenodd" clip-rule="evenodd" d="M659.353 119.566C658.304 119.566 657.606 119.449 657.373 118.401C657.256 117.12 658.304 116.188 659.353 115.722C662.148 114.325 665.526 113.742 668.554 114.325C669.253 114.441 670.301 114.674 670.534 115.489C670.883 115.955 670.418 116.654 669.952 117.12C669.486 117.586 668.787 117.702 668.321 117.935C665.526 118.75 662.497 119.333 659.353 119.566Z" fill="#101C3D"/>
<path fill-rule="evenodd" clip-rule="evenodd" d="M635.476 118.75C634.893 118.634 634.195 118.401 634.195 117.469C634.311 116.421 635.243 115.839 635.942 115.606C638.271 114.907 640.601 115.023 642.93 115.955C643.396 116.188 644.095 116.654 644.211 117.353C644.211 117.819 643.862 118.284 643.512 118.517C643.163 118.75 642.581 118.983 642.115 118.867C639.902 119.216 637.572 119.1 635.476 118.75Z" fill="#101C3D"/>
<path fill-rule="evenodd" clip-rule="evenodd" d="M679.269 134.474C680.9 135.173 682.647 135.639 684.511 135.755C686.258 135.872 688.005 135.29 689.519 134.125C691.499 132.261 691.848 128.884 690.451 126.671C689.053 124.458 686.025 123.409 683.346 123.992C680.784 124.691 678.687 127.02 678.105 129.582" fill="#DFE6F2"/>
<path fill-rule="evenodd" clip-rule="evenodd" d="M684.744 136.571C684.627 136.571 684.511 136.571 684.394 136.571C682.764 136.454 680.9 136.105 678.92 135.29C678.454 135.173 678.338 134.591 678.454 134.241C678.571 133.892 679.153 133.659 679.502 133.775C681.366 134.474 682.997 134.94 684.394 134.94C686.025 134.94 687.539 134.474 688.82 133.542C690.451 132.028 690.8 129.117 689.519 127.136C688.354 125.273 685.675 124.341 683.346 124.923C681.017 125.622 679.153 127.602 678.687 129.932C678.571 130.398 678.221 130.631 677.755 130.514C677.289 130.398 677.057 130.048 677.173 129.582C677.755 126.671 680.085 124.225 682.997 123.293C686.141 122.594 689.403 123.875 691.033 126.321C692.664 128.884 692.198 132.611 689.985 134.824C688.471 135.988 686.607 136.571 684.744 136.571Z" fill="#101C3D"/>
<path fill-rule="evenodd" clip-rule="evenodd" d="M682.414 133.193C681.948 133.193 681.599 132.844 681.599 132.378C681.715 129.932 683.695 127.719 686.025 127.136C686.491 127.02 686.84 127.253 686.957 127.719C687.073 128.185 686.84 128.534 686.374 128.651C684.627 129 683.229 130.631 683.113 132.378C683.113 132.844 682.88 133.193 682.414 133.193Z" fill="#101C3D"/>
<path fill-rule="evenodd" clip-rule="evenodd" d="M685.443 131.562C685.21 131.562 684.977 131.446 684.86 131.213C684.511 130.864 684.045 130.747 683.579 130.747C683.113 130.747 682.764 130.514 682.764 130.048C682.764 129.582 682.997 129.233 683.463 129.233C684.511 129.116 685.559 129.582 686.141 130.281C686.374 130.631 686.374 131.096 686.025 131.329C685.792 131.562 685.675 131.562 685.443 131.562Z" fill="#101C3D"/>
<path fill-rule="evenodd" clip-rule="evenodd" d="M76.406 89.3482C76.406 39.8474 116.705 -0.335571 166.323 -0.335571C216.056 -0.335571 256.24 39.8474 256.24 89.3482C256.24 138.849 215.94 179.032 166.323 179.032C116.705 179.032 76.406 138.849 76.406 89.3482Z" fill="#2BD67B"/>
<path fill-rule="evenodd" clip-rule="evenodd" d="M138.602 70.2467C147.92 68.7326 132.313 73.275 151.298 50.2134C170.283 27.0354 186.938 43.691 192.063 45.904C235.507 65.0054 206.273 151.661 170.865 97.2683C168.769 94.1236 166.789 90.8623 165.158 87.3682C160.849 78.0504 161.431 77.2351 160.15 67.8008" fill="#DFE6F2"/>
<path fill-rule="evenodd" clip-rule="evenodd" d="M192.879 53.3583C192.762 53.3583 192.879 53.0089 192.762 52.8924C189.501 52.0771 186.123 51.3782 182.745 50.6794C178.669 49.8641 174.709 48.9323 170.516 48.4664C155.491 46.7193 134.875 40.6628 122.413 53.0089C119.85 55.5712 118.569 59.1819 117.055 62.4431C114.842 67.102 113.328 74.2068 115.89 79.2152C118.453 84.34 125.441 87.2518 130.566 88.7659C134.526 89.9306 138.253 92.0271 142.562 91.9107C148.735 91.6777 153.394 84.6894 158.752 82.0105C164.11 79.2152 169.933 77.934 175.874 76.6528C181.93 75.3716 198.702 76.5363 202.895 72.6927C209.418 66.2867 199.284 50.4465 192.879 53.3583Z" fill="#DFE6F2"/>
<path fill-rule="evenodd" clip-rule="evenodd" d="M205.574 83.6411C202.779 86.32 204.992 91.3283 205.225 95.2884C205.458 99.2484 204.992 102.976 206.389 106.819C207.554 110.313 211.514 111.711 214.309 113.342C221.414 117.535 227.121 116.603 233.411 111.012C246.689 99.2485 232.363 84.6894 220.133 81.1952C216.522 80.147 214.309 78.7493 210.349 80.2634C208.369 80.9623 206.972 82.3599 205.574 83.6411Z" fill="#DFE6F2"/>
<path fill-rule="evenodd" clip-rule="evenodd" d="M223.511 104.49C220.25 108.333 217.338 113.574 215.591 118.35C208.835 137.218 227.354 157.252 227.354 157.252C229.8 156.553 243.893 138.5 245.524 136.403C248.785 131.861 247.504 125.105 246.456 120.097C245.408 115.438 245.757 115.089 243.195 110.779C240.283 106.004 240.632 106.936 236.206 104.49" fill="#DFE6F2"/>
<path fill-rule="evenodd" clip-rule="evenodd" d="M163.178 77.0021C168.303 80.2634 181.115 83.6411 180.299 87.4847C179.251 91.3282 174.942 108.1 169.7 116.836C165.158 124.29 157.238 129.881 142.446 130.114C138.02 129.881 121.83 118.35 127.537 102.51C130.1 95.1718 134.526 84.6893 141.631 73.1585C144.892 68.1502 158.053 74.0903 163.178 77.0021Z" fill="#DFE6F2"/>
<path fill-rule="evenodd" clip-rule="evenodd" d="M142.446 130.929C139.534 130.696 133.012 126.736 129.052 120.679C126.373 116.603 123.927 110.197 126.722 102.277C129.168 95.2883 133.594 84.5728 140.932 72.8091C145.358 65.8208 163.411 76.3033 163.527 76.3033C165.158 77.3515 167.72 78.3998 170.399 79.5645C176.223 82.0104 181.697 84.4564 180.998 87.6011C177.504 100.995 173.777 111.478 170.283 117.185C165.042 126.153 155.84 130.696 142.446 130.929ZM146.406 71.9938C144.542 71.9938 143.145 72.4597 142.446 73.6244C135.108 85.2717 130.799 95.8707 128.353 102.743C125.674 109.964 128.003 116.02 130.449 119.748C134.293 125.688 140.466 129.182 142.446 129.298C155.258 129.065 163.877 124.872 169.002 116.37C172.379 110.779 176.106 100.53 179.484 87.2517C179.95 85.3881 174.01 82.9422 169.817 81.0787C167.138 79.9139 164.576 78.8657 162.712 77.7009C158.752 75.3715 151.181 71.9938 146.406 71.9938Z" fill="#101C3D"/>
<path fill-rule="evenodd" clip-rule="evenodd" d="M140.815 103.558C140.466 103.558 140.116 103.325 140.116 102.975L138.952 99.0154C138.835 98.666 138.952 98.3165 139.301 98.0836L143.96 95.5212L148.619 87.7175C148.852 87.3681 149.318 87.2516 149.667 87.4846C150.017 87.7175 150.133 88.1834 149.9 88.5328L145.125 96.453C145.008 96.5694 145.008 96.6859 144.892 96.6859L140.582 99.1318L141.514 102.51C141.631 102.975 141.398 103.325 140.932 103.441C140.932 103.558 140.932 103.558 140.815 103.558Z" fill="#101C3D"/>
<path fill-rule="evenodd" clip-rule="evenodd" d="M140 111.478C139.883 111.478 139.651 111.478 139.534 111.478C139.068 111.478 138.835 111.129 138.835 110.663C138.835 110.197 139.185 109.847 139.651 109.964C141.747 110.08 143.96 109.149 145.358 107.518C145.591 107.169 146.173 107.169 146.406 107.518C146.755 107.751 146.755 108.333 146.406 108.566C144.775 110.43 142.329 111.478 140 111.478Z" fill="#101C3D"/>
<path fill-rule="evenodd" clip-rule="evenodd" d="M158.985 99.3648C153.86 97.3848 152.346 93.4247 152.346 93.4247C152.346 93.4247 156.423 91.9106 160.732 93.6576C164.809 95.4047 167.138 98.7824 167.138 98.7824C167.138 98.7824 162.829 101.112 158.985 99.3648Z" fill="#D8D8D8"/>
<path fill-rule="evenodd" clip-rule="evenodd" d="M159.917 93.8906C163.877 96.1036 163.178 98.433 162.479 99.8307C162.479 99.8307 160.033 100.064 157.704 98.7824C155.258 97.6177 153.627 95.5212 153.627 95.4047C153.977 94.0071 156.888 92.7259 159.917 93.8906Z" fill="#101C3D"/>
<path fill-rule="evenodd" clip-rule="evenodd" d="M131.614 90.8624C132.08 90.9788 132.313 90.9788 132.779 91.0953C137.205 92.26 140.815 89.3482 140.815 89.3482C140.815 89.3482 138.602 86.7858 134.759 85.5046C134.759 85.8541 131.963 90.513 131.614 90.8624Z" fill="#D8D8D8"/>
<path fill-rule="evenodd" clip-rule="evenodd" d="M131.497 91.0953C132.08 91.3283 132.779 91.5612 133.594 91.6777C136.273 92.1436 138.253 91.0953 138.253 91.0953C138.486 89.5812 137.67 86.9023 134.293 86.3199C134.176 86.3199 133.827 87.3682 133.71 87.3682C133.594 87.4847 133.477 87.8341 133.245 87.9506C133.012 88.4165 132.546 88.9988 132.196 89.3482C131.963 89.8141 131.614 90.3965 131.497 91.0953Z" fill="#101C3D"/>
<path fill-rule="evenodd" clip-rule="evenodd" d="M158.636 87.1352C157.587 86.9022 156.888 86.5528 157.121 85.3881C157.354 84.1069 158.636 83.5245 159.8 83.408C162.945 82.8257 166.323 83.2916 169.118 84.6892C169.817 84.9222 170.632 85.5046 170.632 86.4363C170.749 87.0187 170.166 87.6011 169.584 87.834C169.002 88.0669 168.303 88.0669 167.72 88.0669C164.925 88.0669 161.78 87.834 158.636 87.1352Z" fill="#101C3D"/>
<path fill-rule="evenodd" clip-rule="evenodd" d="M135.807 79.5645C135.225 79.3316 134.642 78.8657 134.992 78.0504C135.457 77.0021 136.389 76.7692 137.205 76.7692C139.65 76.7692 141.863 77.468 143.844 78.9821C144.309 79.448 144.892 80.0304 144.659 80.7292C144.542 81.1951 144.076 81.5445 143.611 81.7775C143.145 81.894 142.562 81.894 142.213 81.7775C140 81.3116 137.787 80.6128 135.807 79.5645Z" fill="#101C3D"/>
<path fill-rule="evenodd" clip-rule="evenodd" d="M173.661 107.168C175.058 108.333 176.689 109.265 178.319 109.847C179.95 110.43 181.814 110.43 183.561 109.731C186.007 108.45 187.288 105.305 186.589 102.742C185.89 100.18 183.211 98.3165 180.532 98.2001C177.854 98.2001 175.175 99.7142 173.893 102.16" fill="#DFE6F2"/>
<path fill-rule="evenodd" clip-rule="evenodd" d="M180.765 111.128C179.834 111.128 178.902 111.012 178.086 110.663C176.456 110.08 174.825 109.148 173.195 107.867C172.845 107.634 172.729 107.052 173.078 106.703C173.311 106.353 173.893 106.237 174.243 106.586C175.757 107.867 177.271 108.683 178.669 109.148C180.299 109.731 181.814 109.614 183.328 109.032C185.308 107.984 186.472 105.305 185.774 103.092C185.191 100.995 182.862 99.2483 180.416 99.1318C178.086 99.1318 175.641 100.53 174.476 102.626C174.243 102.975 173.777 103.208 173.428 102.975C173.078 102.742 172.845 102.277 173.078 101.927C174.476 99.2483 177.388 97.5012 180.416 97.5012C183.677 97.6177 186.472 99.8307 187.288 102.626C188.103 105.654 186.589 109.032 183.91 110.546C182.978 110.896 181.814 111.128 180.765 111.128Z" fill="#101C3D"/>
<path fill-rule="evenodd" clip-rule="evenodd" d="M177.388 106.819C177.271 106.819 177.271 106.819 177.155 106.819C176.805 106.703 176.572 106.237 176.689 105.887C177.504 103.558 179.95 101.927 182.396 102.16C182.862 102.16 183.095 102.51 183.095 102.976C183.095 103.441 182.745 103.674 182.279 103.674C180.532 103.558 178.669 104.723 178.086 106.47C177.97 106.586 177.621 106.819 177.388 106.819Z" fill="#101C3D"/>
<path fill-rule="evenodd" clip-rule="evenodd" d="M180.765 106.12C180.416 106.12 180.183 105.887 180.066 105.654C179.833 105.188 179.368 104.955 178.902 104.839C178.436 104.723 178.203 104.373 178.319 103.907C178.436 103.441 178.785 103.208 179.251 103.325C180.299 103.558 181.115 104.14 181.464 105.072C181.581 105.421 181.464 105.887 180.998 106.12C180.998 106.12 180.882 106.12 180.765 106.12Z" fill="#101C3D"/>
<path fill-rule="evenodd" clip-rule="evenodd" d="M51.015 64.0737C51.015 64.0737 60.0999 37.9839 82.4626 37.9839C104.825 37.9839 113.561 63.1419 113.561 63.1419C113.561 63.1419 104.01 84.8058 81.7637 84.3399C65.6905 84.107 51.015 64.0737 51.015 64.0737Z" fill="#4070F4"/>
<path fill-rule="evenodd" clip-rule="evenodd" d="M66.5059 61.1619C66.5059 52.4265 73.6107 45.3217 82.3461 45.3217C91.0816 45.3217 98.1864 52.4265 98.1864 61.1619C98.1864 69.8973 91.0816 77.0022 82.3461 77.0022C73.6107 77.0022 66.5059 69.8973 66.5059 61.1619Z" fill="#DFE6F2"/>
<path fill-rule="evenodd" clip-rule="evenodd" d="M71.3977 61.3949C71.3977 55.2218 76.406 50.2135 82.4626 50.2135C88.5192 50.2135 93.5275 55.2218 93.5275 61.3949C93.5275 67.5679 88.5192 72.5762 82.4626 72.5762C76.406 72.5762 71.3977 67.5679 71.3977 61.3949Z" fill="#4070F4"/>
<path fill-rule="evenodd" clip-rule="evenodd" d="M272.429 415.937C271.963 417.568 271.73 418.849 271.148 420.014C271.031 420.363 269.867 420.363 269.168 420.247C268.935 420.247 268.702 419.548 268.586 419.082C268.236 417.801 267.304 415.588 267.77 415.238C269.284 413.957 271.264 413.957 272.429 415.937Z" fill="#101C3D"/>
<path fill-rule="evenodd" clip-rule="evenodd" d="M318.319 422.692C319.368 422.11 320.299 420.945 321.348 420.945C322.163 420.945 323.444 422.227 323.561 423.042C323.794 425.022 322.046 425.488 320.532 425.371C319.833 425.371 319.135 424.323 318.436 423.857C318.319 423.508 318.319 423.042 318.319 422.692Z" fill="#101C3D"/>
<path fill-rule="evenodd" clip-rule="evenodd" d="M450.399 364.223C448.186 365.737 446.323 367.135 444.459 368.533C445.624 366.553 446.672 364.922 444.692 362.826C446.555 363.175 448.303 363.641 450.399 364.223Z" fill="#101C3D"/>
<path fill-rule="evenodd" clip-rule="evenodd" d="M434.093 365.039C436.422 364.34 439.917 364.456 437.121 360.846C439.101 360.38 440.266 363.291 438.868 365.155C438.519 365.621 437.587 365.854 436.888 365.97C436.19 366.087 435.491 365.737 434.792 365.621C434.559 365.388 434.326 365.155 434.093 365.039Z" fill="#101C3D"/>
<path fill-rule="evenodd" clip-rule="evenodd" d="M264.625 425.837C264.742 423.857 264.858 422.46 264.975 421.178C264.975 420.829 265.557 420.479 265.907 420.479C266.256 420.479 267.071 420.712 267.071 420.945C267.071 422.227 267.188 423.624 266.838 424.905C266.838 425.255 265.674 425.371 264.625 425.837Z" fill="#101C3D"/>
<path fill-rule="evenodd" clip-rule="evenodd" d="M423.61 349.198C421.747 350.363 420.233 351.411 418.719 352.343C418.486 352.227 418.369 352.11 418.136 351.994C418.835 350.712 419.417 349.431 420.116 348.034C421.397 348.383 422.562 348.849 423.61 349.198Z" fill="#101C3D"/>
<path fill-rule="evenodd" clip-rule="evenodd" d="M118.802 160.28C115.541 159.348 118.802 155.388 114.26 156.32C114.609 155.854 114.842 155.505 115.191 155.039C116.007 155.039 117.404 154.806 117.404 155.039C117.987 156.553 118.22 158.067 118.802 160.28Z" fill="#101C3D"/>
<path fill-rule="evenodd" clip-rule="evenodd" d="M109.95 149.797C110.183 147.701 110.416 145.954 110.649 144.323C110.998 144.323 111.231 144.323 111.581 144.44C111.814 146.07 112.047 147.701 112.28 149.681C111.231 149.797 110.416 149.797 109.95 149.797Z" fill="#101C3D"/>
<path fill-rule="evenodd" clip-rule="evenodd" d="M254.259 413.724C253.561 412.676 252.745 411.86 252.862 411.511C253.095 410.812 254.026 410.346 254.609 409.764C255.075 410.346 256.007 410.929 256.007 411.395C255.89 412.093 255.075 412.676 254.259 413.724Z" fill="#101C3D"/>
<path fill-rule="evenodd" clip-rule="evenodd" d="M462.163 381.927C464.609 380.296 466.705 381.228 467.055 383.907C465.424 383.208 463.793 382.626 462.163 381.927Z" fill="#101C3D"/>
<path fill-rule="evenodd" clip-rule="evenodd" d="M463.677 349.781C462.279 349.664 460.998 349.664 459.717 349.198C459.368 349.082 459.251 347.917 459.018 346.985C460.882 347.801 462.279 348.383 463.677 348.965C463.56 349.198 463.56 349.431 463.677 349.781Z" fill="#101C3D"/>
<path fill-rule="evenodd" clip-rule="evenodd" d="M410.449 322.526C411.497 321.827 412.545 321.128 413.71 320.43C413.827 320.663 414.06 320.895 414.176 321.128C412.895 321.711 413.128 324.506 410.449 322.526Z" fill="#101C3D"/>
<path fill-rule="evenodd" clip-rule="evenodd" d="M464.026 378.549C462.745 379.015 461.464 379.598 460.416 380.064C460.416 379.947 460.183 379.132 459.833 378.2C460.998 377.851 461.93 377.618 462.862 377.385C463.211 377.851 463.677 378.2 464.026 378.549Z" fill="#101C3D"/>
<path fill-rule="evenodd" clip-rule="evenodd" d="M284.076 417.451C285.008 417.451 285.94 417.451 286.988 417.451C286.872 418.15 286.872 418.732 286.755 419.431C285.824 419.315 284.892 419.082 283.96 418.965C283.96 418.383 284.076 417.917 284.076 417.451Z" fill="#101C3D"/>
<path fill-rule="evenodd" clip-rule="evenodd" d="M520.748 302.842C521.564 302.609 522.146 302.143 522.612 302.26C523.544 302.376 524.359 302.842 525.174 303.192C524.708 303.774 524.476 304.589 523.893 305.055C522.146 306.569 520.399 307.851 518.303 309.015C518.07 306.453 518.419 304.24 516.206 302.493C515.74 302.143 516.439 299.814 516.905 298.533C517.021 298.183 518.535 297.834 518.652 297.95C519.351 299.115 519.933 300.28 520.515 301.561C520.748 301.794 520.748 302.143 520.748 302.842Z" fill="#101C3D"/>
<path fill-rule="evenodd" clip-rule="evenodd" d="M524.01 294.806C522.845 294.223 521.913 293.641 520.981 293.408C519.933 293.059 518.885 292.826 517.837 292.942C516.788 293.059 515.857 293.641 514.808 293.99C515.041 292.942 515.274 291.894 515.391 290.846C515.857 288.633 516.905 286.769 519.467 287.584C520.748 288.05 522.03 289.332 522.845 290.496C523.544 291.312 523.544 292.709 524.01 294.806Z" fill="#101C3D"/>
<path fill-rule="evenodd" clip-rule="evenodd" d="M558.02 399.514C557.554 398.699 557.204 398.117 556.855 397.534C556.971 397.302 557.088 397.185 557.088 397.185C558.719 397.185 560.466 397.185 562.096 397.185C562.446 397.185 562.795 397.302 563.145 397.534C563.96 397.884 564.892 398.233 565.707 398.583C565.008 399.165 564.309 399.747 563.61 400.33C563.261 400.679 563.028 401.262 562.562 401.495C561.63 401.96 560.582 402.193 559.417 402.426C558.719 402.543 558.02 402.426 557.321 402.193C556.506 401.96 555.807 401.495 555.108 401.145C555.69 400.796 556.389 400.446 556.971 400.097C557.204 399.747 557.437 399.747 558.02 399.514Z" fill="#101C3D"/>
<path fill-rule="evenodd" clip-rule="evenodd" d="M526.456 335.105C526.572 335.222 526.805 335.455 526.805 335.455C529.367 334.173 531.231 334.639 531.813 338.017C532.629 336.969 533.094 336.153 533.793 335.222C534.609 335.804 535.307 336.386 535.773 336.736C534.725 337.784 533.793 338.832 532.862 339.881C525.757 339.065 525.174 338.716 526.456 335.105Z" fill="#101C3D"/>
<path fill-rule="evenodd" clip-rule="evenodd" d="M552.895 367.368C552.895 370.28 555.574 372.143 553.361 374.706C552.545 375.638 548.236 376.453 547.654 375.521C547.304 375.055 547.421 373.425 547.537 373.425C550.565 372.726 550.798 369.697 552.895 367.368Z" fill="#101C3D"/>
<path fill-rule="evenodd" clip-rule="evenodd" d="M532.862 360.263C532.862 359.564 532.745 358.982 532.862 358.4C532.978 357.934 533.444 357.468 533.793 357.002C534.259 357.468 535.308 358.05 535.308 358.283C534.958 359.681 535.657 360.38 536.589 361.195C537.171 361.661 537.753 362.942 537.52 363.175C536.938 363.874 536.006 364.573 535.191 364.689C534.492 364.689 533.444 363.99 533.095 363.291C532.629 362.476 532.745 361.311 532.745 360.38C532.745 360.263 532.745 360.263 532.862 360.263Z" fill="#101C3D"/>
<path fill-rule="evenodd" clip-rule="evenodd" d="M526.456 335.105C525.291 336.386 524.243 337.784 522.961 338.949C522.496 339.298 521.447 339.065 520.632 339.065C520.748 337.551 520.399 334.989 520.981 334.756C522.612 334.29 524.708 333.475 526.456 335.105Z" fill="#101C3D"/>
<path fill-rule="evenodd" clip-rule="evenodd" d="M626.738 203.375C625.69 204.19 624.642 205.471 623.594 205.471C622.895 205.471 621.264 203.724 621.381 203.025C621.614 201.977 622.895 200.812 623.943 200.463C624.642 200.23 625.807 201.511 626.738 202.094C626.738 202.56 626.738 203.025 626.738 203.375Z" fill="#101C3D"/>
<path fill-rule="evenodd" clip-rule="evenodd" d="M524.01 342.792C522.845 345.005 522.379 347.568 519.584 347.102C518.885 346.985 517.72 345.122 517.953 344.423C518.885 341.045 521.564 343.025 524.01 342.792Z" fill="#101C3D"/>
<path fill-rule="evenodd" clip-rule="evenodd" d="M533.677 276.403C532.629 276.752 531.697 276.985 530.416 277.451C530.532 275.238 530.532 273.375 530.765 271.395C530.882 270.929 531.93 270.346 532.629 270.23C532.978 270.23 533.677 271.162 533.677 271.744C533.793 273.375 533.677 274.889 533.677 276.403Z" fill="#101C3D"/>
<path fill-rule="evenodd" clip-rule="evenodd" d="M541.481 337.551C539.966 336.503 538.452 335.338 537.055 334.29C536.822 334.523 536.589 334.639 536.239 334.872C537.171 333.707 538.103 332.543 539.268 331.029C541.015 333.824 541.946 336.27 541.481 337.551Z" fill="#101C3D"/>
<path fill-rule="evenodd" clip-rule="evenodd" d="M521.331 351.062C523.544 351.411 524.476 351.994 524.359 354.09C524.243 356.07 523.078 356.07 521.797 356.07C519.817 356.07 519.234 354.556 519.584 353.042C519.7 352.343 520.748 351.761 521.331 351.062Z" fill="#101C3D"/>
<path fill-rule="evenodd" clip-rule="evenodd" d="M618.935 204.19C617.071 205.355 615.907 206.52 614.858 206.52C614.043 206.52 613.228 205.005 612.412 204.074C613.228 203.375 614.043 201.977 614.858 201.977C615.907 202.21 617.071 203.258 618.935 204.19Z" fill="#101C3D"/>
<path fill-rule="evenodd" clip-rule="evenodd" d="M536.006 257.418C537.87 256.952 539.501 256.486 541.83 256.02C541.131 258 540.665 259.748 539.85 261.262C539.733 261.378 537.87 261.029 537.288 260.446C536.705 259.747 536.472 258.699 536.006 257.418Z" fill="#101C3D"/>
<path fill-rule="evenodd" clip-rule="evenodd" d="M523.893 364.34C525.873 360.962 526.339 360.962 528.436 363.757C528.902 364.456 529.95 364.573 530.765 364.922C531.231 365.155 531.813 365.155 532.163 365.504C532.279 365.621 532.046 366.436 531.813 366.669C531.464 366.902 530.765 367.019 530.416 366.786C528.203 366.087 525.99 365.155 523.893 364.34Z" fill="#101C3D"/>
<path fill-rule="evenodd" clip-rule="evenodd" d="M527.62 384.839C526.106 386.12 525.174 386.935 524.359 387.634C523.66 386.47 522.728 385.421 522.379 384.257C522.263 383.907 523.777 382.393 524.359 382.51C525.291 382.742 526.106 383.791 527.62 384.839Z" fill="#101C3D"/>
<path fill-rule="evenodd" clip-rule="evenodd" d="M542.878 382.16C544.043 384.024 544.742 385.188 545.324 386.353C544.392 386.936 543.228 387.984 542.645 387.867C541.714 387.518 540.782 386.237 540.549 385.305C540.549 384.606 541.714 383.674 542.878 382.16Z" fill="#101C3D"/>
<path fill-rule="evenodd" clip-rule="evenodd" d="M546.023 367.717C546.955 367.717 548.003 367.834 549.75 367.95C548.469 369.697 547.421 371.212 546.256 372.493C546.023 372.726 544.625 372.26 544.159 371.794C543.927 371.561 544.159 370.513 544.392 369.93C544.742 369.115 545.441 368.416 546.023 367.717Z" fill="#101C3D"/>
<path fill-rule="evenodd" clip-rule="evenodd" d="M506.539 279.781C503.86 279.897 503.394 277.451 503.045 275.471C502.928 274.889 504.093 274.074 504.675 273.375C505.141 273.957 506.073 274.423 506.189 275.122C506.422 276.52 506.422 278.15 506.539 279.781Z" fill="#101C3D"/>
<path fill-rule="evenodd" clip-rule="evenodd" d="M530.066 314.14C531.114 315.654 532.279 316.47 532.163 317.168C532.163 318.1 531.114 319.032 530.532 319.964C529.717 319.265 528.436 318.566 528.203 317.634C528.086 316.935 529.134 315.771 530.066 314.14Z" fill="#101C3D"/>
<path fill-rule="evenodd" clip-rule="evenodd" d="M529.134 345.005C528.669 347.102 528.319 348.616 527.737 350.713C526.456 349.431 525.407 348.5 524.476 347.568C525.873 346.752 527.271 345.937 529.134 345.005Z" fill="#101C3D"/>
<path fill-rule="evenodd" clip-rule="evenodd" d="M535.075 393.109C533.677 392.526 532.512 392.06 531.115 391.594C531.347 390.779 531.697 389.847 531.93 389.032C534.842 389.265 535.54 390.08 535.075 393.109Z" fill="#101C3D"/>
<path fill-rule="evenodd" clip-rule="evenodd" d="M569.783 261.378C571.065 261.262 572.346 261.262 573.627 261.145C573.51 262.193 573.394 263.125 573.278 264.173C572.113 263.824 570.832 263.475 569.667 263.125C569.55 262.543 569.667 261.96 569.783 261.378Z" fill="#101C3D"/>
<path fill-rule="evenodd" clip-rule="evenodd" d="M538.336 340.579C539.85 340.812 541.015 340.812 541.83 341.162C542.529 341.511 542.995 342.443 543.46 343.142C543.577 343.375 542.878 344.306 542.645 344.306C541.946 344.19 541.015 343.957 540.549 343.491C539.733 342.676 539.151 341.628 538.336 340.579Z" fill="#101C3D"/>
<path fill-rule="evenodd" clip-rule="evenodd" d="M530.649 323.807C531.697 323.109 532.512 322.293 533.56 321.711C534.143 321.361 535.075 321.129 535.424 321.361C535.89 321.711 536.356 322.643 536.239 323.225C536.123 323.691 535.191 324.157 534.609 324.157C533.211 324.273 531.93 324.04 530.649 323.807Z" fill="#101C3D"/>
<path fill-rule="evenodd" clip-rule="evenodd" d="M543.461 358.866C540.199 360.496 539.733 357.584 538.103 356.536C537.986 356.42 538.103 355.721 538.336 355.604C538.685 355.488 539.268 355.371 539.5 355.604C540.782 356.653 541.946 357.701 543.461 358.866Z" fill="#101C3D"/>
<path fill-rule="evenodd" clip-rule="evenodd" d="M524.709 331.96C523.66 332.077 522.612 332.193 521.447 332.31C521.331 331.145 521.331 329.98 521.214 328.816C521.447 328.699 521.797 328.583 522.03 328.466C522.961 329.281 523.893 330.097 524.825 330.912C524.825 331.262 524.709 331.611 524.709 331.96Z" fill="#101C3D"/>
<path fill-rule="evenodd" clip-rule="evenodd" d="M514.342 334.872C511.547 336.037 510.615 334.989 510.149 333.358C510.033 333.009 511.314 332.31 511.896 331.844C512.595 332.659 513.294 333.591 514.342 334.872Z" fill="#101C3D"/>
<path fill-rule="evenodd" clip-rule="evenodd" d="M556.506 382.626C555.457 383.441 554.409 384.257 553.361 385.072C552.895 384.373 552.545 383.558 552.08 382.859C553.244 382.277 554.409 381.811 555.574 381.228C555.923 381.694 556.273 382.16 556.506 382.626Z" fill="#101C3D"/>
<path fill-rule="evenodd" clip-rule="evenodd" d="M523.777 364.223C523.427 364.689 522.961 365.621 522.612 365.621C521.68 365.621 520.632 365.388 520.05 364.806C519.7 364.456 519.933 363.408 519.933 362.593C520.748 362.709 521.68 362.709 522.496 362.942C522.961 363.291 523.427 363.874 523.777 364.223C523.893 364.34 523.777 364.223 523.777 364.223Z" fill="#101C3D"/>
<path fill-rule="evenodd" clip-rule="evenodd" d="M558.136 396.137C557.787 394.856 557.321 393.691 556.971 392.41C557.67 392.293 558.835 391.944 558.835 392.06C559.184 393.225 559.417 394.506 559.767 395.787C559.184 395.787 558.719 395.904 558.136 396.137Z" fill="#101C3D"/>
<path fill-rule="evenodd" clip-rule="evenodd" d="M536.123 276.519C535.54 275.471 534.958 274.423 534.376 273.375C535.191 273.142 536.006 272.909 536.938 272.676C537.171 273.841 537.288 274.889 537.52 276.054C537.055 276.287 536.589 276.403 536.123 276.519Z" fill="#101C3D"/>
<path fill-rule="evenodd" clip-rule="evenodd" d="M550.099 263.591C549.634 264.639 549.284 265.804 548.585 266.619C548.236 266.969 547.071 266.503 546.256 266.386C546.139 266.153 546.139 265.804 546.023 265.571C547.071 264.756 548.119 263.824 549.284 263.009C549.517 263.125 549.867 263.358 550.099 263.591Z" fill="#101C3D"/>
<path fill-rule="evenodd" clip-rule="evenodd" d="M529.251 378.2C528.319 378.899 527.62 379.947 527.271 379.831C526.572 379.598 525.64 378.782 525.524 378.084C525.407 377.618 526.456 376.336 527.038 376.453C527.737 376.336 528.319 377.385 529.251 378.2Z" fill="#101C3D"/>
<path fill-rule="evenodd" clip-rule="evenodd" d="M537.055 264.523C535.773 264.989 534.609 265.455 533.327 265.92C533.095 265.222 532.978 264.406 532.745 263.708C534.026 263.708 535.424 263.708 536.705 263.708C536.822 263.94 536.938 264.173 537.055 264.523Z" fill="#101C3D"/>
<path fill-rule="evenodd" clip-rule="evenodd" d="M520.748 324.856C521.447 324.04 522.263 323.225 522.961 322.41C523.544 322.992 524.126 323.458 524.592 324.04C523.66 324.739 522.728 325.321 521.68 326.02C521.447 325.554 521.098 325.205 520.748 324.856Z" fill="#101C3D"/>
<path fill-rule="evenodd" clip-rule="evenodd" d="M596.455 225.738C596.106 227.252 595.99 228.416 595.64 229.698C594.825 228.766 593.893 227.718 592.379 225.97C594.126 225.854 595.407 225.738 596.455 225.738Z" fill="#101C3D"/>
<path fill-rule="evenodd" clip-rule="evenodd" d="M619.633 211.644C618.935 210.48 618.352 209.897 618.352 209.198C618.352 208.849 619.284 208.034 619.633 208.034C620.216 208.15 621.148 208.849 621.148 209.315C621.264 210.014 620.449 210.713 619.633 211.644Z" fill="#101C3D"/>
<path fill-rule="evenodd" clip-rule="evenodd" d="M539.734 331.029C536.705 329.514 537.521 327.534 537.521 325.904C537.753 325.787 538.103 325.787 538.336 325.671C538.802 327.185 539.151 328.699 539.734 331.029Z" fill="#101C3D"/>
<path fill-rule="evenodd" clip-rule="evenodd" d="M526.689 311.927C526.922 313.558 527.154 314.49 527.038 315.305C526.922 315.771 526.339 316.237 525.757 316.586C525.524 316.702 524.941 316.353 524.476 316.237C524.709 315.654 524.825 315.072 525.058 314.606C525.524 313.907 525.99 313.325 526.689 311.927Z" fill="#101C3D"/>
<path fill-rule="evenodd" clip-rule="evenodd" d="M540.665 369.814C541.015 370.746 541.364 371.678 541.597 372.609C541.597 372.726 540.782 373.075 540.316 373.308C539.966 372.376 539.501 371.328 539.151 370.396C539.733 370.163 540.199 370.047 540.665 369.814Z" fill="#101C3D"/>
<path fill-rule="evenodd" clip-rule="evenodd" d="M630.116 190.679C629.534 190.912 628.951 191.495 628.369 191.495C627.67 191.378 627.088 190.796 626.505 190.446C626.971 189.98 627.437 189.282 627.903 189.165C628.602 189.165 629.301 189.631 630 189.864C630.116 190.097 630.116 190.446 630.116 190.679Z" fill="#101C3D"/>
</g>
<defs>
<clipPath id="clip0">
<rect width="727" height="430" fill="white"/>
</clipPath>
</defs>
</svg>
