<svg width="136" height="27" viewBox="0 0 136 27" fill="none" xmlns="http://www.w3.org/2000/svg">
<path d="M20.4191 11.7028C20.0401 12.0841 19.7499 12.5443 19.569 13.0505C19.3882 13.5568 19.3213 14.0967 19.373 14.6318L19.355 14.6138C19.4082 15.2437 19.3232 15.8775 19.1061 16.4712C18.889 17.0648 18.5451 17.6039 18.0982 18.0509C17.6512 18.4978 17.112 18.8419 16.5183 19.0589C15.9247 19.276 15.2908 19.361 14.661 19.3078L14.6791 19.3258C13.9257 19.2557 13.1689 19.4196 12.512 19.7953C11.8552 20.171 11.3302 20.7401 11.0087 21.4251C10.6872 22.1101 10.5847 22.8775 10.7153 23.6229C10.846 24.3682 11.2033 25.0551 11.7386 25.5899C12.2739 26.1247 12.9611 26.4814 13.7065 26.6113C14.452 26.7413 15.2193 26.6381 15.904 26.316C16.5887 25.9938 17.1573 25.4684 17.5324 24.8112C17.9075 24.154 18.0708 23.3972 18 22.6438L18.019 22.6618C17.9658 22.032 18.0507 21.3981 18.2678 20.8044C18.4849 20.2108 18.829 19.6717 19.2759 19.2247C19.7229 18.7778 20.262 18.4337 20.8556 18.2167C21.4494 17.9996 22.0831 17.9146 22.713 17.9678L22.694 17.9498C23.3095 18.0051 23.929 17.9042 24.4951 17.6564C25.0611 17.4086 25.5554 17.0219 25.9322 16.5322C26.309 16.0425 26.5562 15.4655 26.6507 14.8549C26.7451 14.2442 26.684 13.6196 26.4727 13.0388C26.2615 12.4581 25.9071 11.9401 25.4424 11.5328C24.9777 11.1255 24.4178 10.8421 23.8144 10.7089C23.2109 10.5757 22.5837 10.5969 21.9907 10.7706C21.3976 10.9444 20.8582 11.265 20.4221 11.7028H20.4191Z" fill="#535868"/>
<path d="M13.0422 16.9683L13.0232 16.9503C13.5585 17.0042 14.0991 16.9385 14.606 16.7579C15.1128 16.5773 15.5732 16.2864 15.9538 15.9061C16.3343 15.5258 16.6257 15.0656 16.8066 14.5589C16.9876 14.0522 17.0537 13.5117 17.0002 12.9763L17.0192 12.9943C16.966 12.3644 17.051 11.7306 17.268 11.1369C17.4851 10.5433 17.8292 10.0042 18.2761 9.55717C18.7231 9.11027 19.2622 8.76617 19.8558 8.54917C20.4495 8.33203 21.0833 8.2471 21.7132 8.30027L21.6942 8.28227C22.4477 8.35307 23.2046 8.18963 23.8618 7.81437C24.5191 7.43911 25.0445 6.87024 25.3665 6.18537C25.6885 5.50051 25.7914 4.73298 25.6612 3.98747C25.531 3.24196 25.174 2.55478 24.6388 2.01964C24.1037 1.48451 23.4165 1.12747 22.671 0.997251C21.9255 0.867021 21.158 0.969932 20.4731 1.29195C19.7882 1.61396 19.2194 2.13941 18.8441 2.79662C18.4688 3.45382 18.3054 4.21079 18.3762 4.96427L18.3582 4.94527C18.4115 5.57516 18.3267 6.2091 18.1097 6.80282C17.8927 7.39654 17.5486 7.93573 17.1017 8.38277C16.6547 8.82967 16.1155 9.17377 15.5218 9.39077C14.928 9.60777 14.2941 9.69257 13.6642 9.63927L13.6822 9.65827C13.1469 9.60437 12.6062 9.67007 12.0994 9.85067C11.5926 10.0312 11.1322 10.3222 10.7516 10.7025C10.371 11.0828 10.0797 11.543 9.89865 12.0497C9.71776 12.5564 9.65165 13.0969 9.70515 13.6323L9.68715 13.6143C9.74016 14.2441 9.65506 14.8779 9.43795 15.4715C9.22075 16.065 8.87675 16.6041 8.42985 17.051C7.98291 17.4979 7.44387 17.8419 6.85031 18.0591C6.25675 18.2762 5.62296 18.3613 4.99315 18.3083L5.01115 18.3263C4.25767 18.2555 3.5007 18.4189 2.84349 18.7942C2.18629 19.1695 1.66084 19.7383 1.33883 20.4232C1.01681 21.1081 0.913895 21.8756 1.04412 22.6211C1.17435 23.3666 1.53139 24.0538 2.06652 24.5889C2.60166 25.1241 3.28884 25.4811 4.03435 25.6113C4.77986 25.7415 5.54739 25.6386 6.23226 25.3166C6.91712 24.9946 7.48599 24.4692 7.86125 23.812C8.23655 23.1547 8.39995 22.3978 8.32915 21.6443L8.34815 21.6623C8.29495 21.0324 8.37995 20.3986 8.59705 19.8049C8.81405 19.2113 9.15815 18.6722 9.60505 18.2252C10.0521 17.7783 10.5912 17.4342 11.1848 17.2172C11.7785 17.0001 12.4123 16.9151 13.0422 16.9683Z" fill="#535868"/>
<path d="M6.34021 14.961C6.71923 14.5798 7.00941 14.1196 7.19005 13.6133C7.37069 13.107 7.43733 12.567 7.38521 12.032L7.4042 12.05C7.351 11.42 7.43596 10.7859 7.65317 10.1921C7.87038 9.59827 8.21461 9.05907 8.66181 8.61207C9.10901 8.16509 9.64831 7.8211 10.2422 7.60415C10.8361 7.38719 11.4702 7.30249 12.1002 7.35597L12.0812 7.33797C12.8344 7.40854 13.5911 7.24505 14.248 6.86981C14.9049 6.49458 15.43 5.92585 15.7519 5.2412C16.0737 4.55654 16.1765 3.78929 16.0463 3.04406C15.9161 2.29883 15.5591 1.61191 15.0242 1.07697C14.4893 0.54203 13.8023 0.18511 13.0571 0.0548905C12.3119 -0.0753395 11.5446 0.0274805 10.86 0.3493C10.1753 0.67112 9.60661 1.19629 9.23141 1.85319C8.85611 2.51009 8.69261 3.26675 8.76321 4.01997L8.74521 4.00197C8.79841 4.63182 8.71341 5.26569 8.49631 5.85933C8.27921 6.45297 7.93523 6.99208 7.48827 7.43904C7.04132 7.886 6.5022 8.23003 5.90856 8.44707C5.31492 8.66417 4.68106 8.74917 4.05121 8.69597L4.06921 8.71397C3.45378 8.65877 2.83437 8.75987 2.26839 9.00777C1.70241 9.25567 1.20816 9.64247 0.831451 10.1323C0.454741 10.622 0.207761 11.199 0.113381 11.8096C0.0190114 12.4203 0.0803014 13.0449 0.291571 13.6255C0.502841 14.2062 0.857271 14.7241 1.322 15.1313C1.78673 15.5386 2.34673 15.8219 2.95011 15.9551C3.55348 16.0882 4.18071 16.0669 4.77368 15.8932C5.36664 15.7194 5.90614 15.3988 6.3422 14.961H6.34021Z" fill="#535868"/>
<path d="M37.3169 4.98682H40.2869V19.4398H37.3169V4.98682Z" fill="#535868"/>
<path d="M41.9689 14.4911C41.9648 13.4525 42.269 12.4359 42.843 11.5703C43.417 10.7047 44.235 10.0289 45.1934 9.62863C46.1518 9.22823 47.2074 9.12133 48.2266 9.32143C49.2458 9.52153 50.1827 10.0195 50.9186 10.7525C51.6545 11.4854 52.1563 12.4203 52.3605 13.4387C52.5647 14.4571 52.462 15.5132 52.0655 16.4732C51.669 17.4331 50.9965 18.2539 50.1332 18.8313C49.2698 19.4088 48.2546 19.7171 47.2159 19.7171C46.5265 19.725 45.8424 19.5953 45.2036 19.3357C44.5648 19.0761 43.9842 18.6918 43.4957 18.2053C43.0071 17.7187 42.6205 17.1396 42.3584 16.5019C42.0962 15.8642 41.9638 15.1806 41.9689 14.4911ZM49.4929 14.4911C49.4805 14.0434 49.3364 13.6093 49.0787 13.243C48.8209 12.8768 48.4609 12.5946 48.0437 12.4319C47.6264 12.2691 47.1705 12.2329 46.7328 12.3279C46.2951 12.4229 45.8951 12.6447 45.5828 12.9658C45.2706 13.2868 45.0598 13.6928 44.9771 14.133C44.8943 14.5731 44.943 15.0279 45.1173 15.4405C45.2916 15.8531 45.5836 16.2051 45.9568 16.4526C46.3301 16.7001 46.7681 16.8321 47.2159 16.8321C47.5226 16.8403 47.8277 16.7848 48.112 16.6692C48.3962 16.5536 48.6534 16.3804 48.8673 16.1605C49.0812 15.9405 49.2473 15.6786 49.3549 15.3913C49.4626 15.104 49.5096 14.7975 49.4929 14.4911Z" fill="#535868"/>
<path d="M64.2999 9.54084V18.9408C64.2999 22.2668 61.7059 23.6728 59.0729 23.6728C58.1459 23.7422 57.2176 23.5549 56.3899 23.1316C55.5623 22.7082 54.8672 22.0651 54.3809 21.2728L56.9149 19.8078C57.1193 20.2208 57.445 20.5615 57.8483 20.7844C58.2517 21.0072 58.7135 21.1016 59.1719 21.0548C59.4649 21.0954 59.7633 21.0696 60.045 20.9793C60.3266 20.889 60.5844 20.7365 60.7992 20.5332C61.014 20.3298 61.1803 20.0808 61.2859 19.8044C61.3914 19.5281 61.4334 19.2316 61.4089 18.9368V18.0318C61.0611 18.4573 60.6185 18.7954 60.1164 19.0189C59.6143 19.2424 59.0669 19.3451 58.5179 19.3188C57.2117 19.2776 55.9728 18.7298 55.0634 17.7912C54.154 16.8527 53.6455 15.5971 53.6455 14.2903C53.6455 12.9835 54.154 11.7279 55.0634 10.7894C55.9728 9.85084 57.2117 9.30304 58.5179 9.26184C59.0669 9.23554 59.6143 9.33824 60.1164 9.56174C60.6185 9.78524 61.0611 10.1233 61.4089 10.5488V9.53884L64.2999 9.54084ZM61.4099 14.2918C61.4299 13.8132 61.3061 13.3395 61.0546 12.9318C60.8031 12.524 60.4353 12.2009 59.9986 12.004C59.5619 11.807 59.0763 11.7453 58.6042 11.8267C58.1321 11.9081 57.6952 12.1289 57.3496 12.4608C57.0041 12.7926 56.7658 13.2202 56.6653 13.6886C56.5649 14.157 56.6069 14.6448 56.7861 15.0891C56.9652 15.5334 57.2732 15.914 57.6704 16.1818C58.0676 16.4496 58.5359 16.5924 59.0149 16.5918C59.327 16.6136 59.6401 16.5698 59.9342 16.4632C60.2283 16.3566 60.4968 16.1895 60.7224 15.9729C60.948 15.7562 61.1258 15.4947 61.2442 15.2051C61.3626 14.9156 61.4191 14.6045 61.4099 14.2918Z" fill="#535868"/>
<path d="M65.9821 14.4911C65.978 13.4525 66.2821 12.4359 66.8562 11.5703C67.4302 10.7047 68.2482 10.0289 69.2066 9.62863C70.165 9.22823 71.2206 9.12133 72.2398 9.32143C73.259 9.52153 74.1959 10.0195 74.9318 10.7525C75.6677 11.4854 76.1695 12.4203 76.3737 13.4387C76.5779 14.4571 76.4752 15.5132 76.0787 16.4732C75.6822 17.4331 75.0097 18.2539 74.1464 18.8313C73.283 19.4088 72.2678 19.7171 71.2291 19.7171C70.5397 19.725 69.8555 19.5953 69.2168 19.3357C68.578 19.0761 67.9974 18.6918 67.5089 18.2053C67.0203 17.7187 66.6337 17.1396 66.3716 16.5019C66.1094 15.8642 65.977 15.1806 65.9821 14.4911ZM73.5061 14.4911C73.4937 14.0434 73.3496 13.6093 73.0919 13.243C72.8341 12.8768 72.4741 12.5946 72.0569 12.4319C71.6396 12.2691 71.1836 12.2329 70.746 12.3279C70.3083 12.4229 69.9083 12.6447 69.596 12.9658C69.2838 13.2868 69.073 13.6928 68.9902 14.133C68.9074 14.5731 68.9562 15.0279 69.1305 15.4405C69.3048 15.8531 69.5968 16.2051 69.97 16.4526C70.3433 16.7001 70.7812 16.8321 71.2291 16.8321C71.5358 16.8403 71.8409 16.7848 72.1251 16.6692C72.4094 16.5536 72.6666 16.3804 72.8805 16.1605C73.0944 15.9405 73.2605 15.6786 73.3681 15.3913C73.4758 15.104 73.5228 14.7975 73.5061 14.4911Z" fill="#535868"/>
<path d="M77.8608 6.88796C77.8608 6.53551 77.9653 6.19098 78.1611 5.89794C78.3569 5.60489 78.6353 5.37648 78.9609 5.24161C79.2865 5.10673 79.6448 5.07144 79.9905 5.1402C80.3361 5.20896 80.6537 5.37868 80.9029 5.6279C81.1521 5.87711 81.3218 6.19463 81.3906 6.54031C81.4593 6.88598 81.424 7.24428 81.2892 7.5699C81.1543 7.89552 80.9259 8.17383 80.6328 8.36966C80.3398 8.56546 79.9953 8.66996 79.6428 8.66996C79.1717 8.66526 78.7211 8.47606 78.3879 8.14284C78.0548 7.80966 77.8655 7.35912 77.8608 6.88796ZM78.1608 9.54096H81.1318V19.441H78.1568L78.1608 9.54096Z" fill="#535868"/>
<path d="M93.9562 14.4908C93.9905 15.1451 93.8952 15.7997 93.6756 16.417C93.4561 17.0343 93.1167 17.6021 92.6769 18.0878C92.2372 18.5734 91.7057 18.9674 91.1132 19.247C90.5206 19.5265 89.8787 19.6862 89.2242 19.7168C88.6738 19.7468 88.1237 19.654 87.6136 19.4451C87.1035 19.2361 86.6464 18.9163 86.2752 18.5088V23.3998H83.3052V9.54081H86.2752V10.4708C86.6465 10.0636 87.1038 9.74401 87.6138 9.53531C88.1239 9.32651 88.6739 9.23381 89.2242 9.26381C89.8788 9.29431 90.5209 9.45391 91.1136 9.73351C91.7063 10.0131 92.2378 10.4071 92.6776 10.8929C93.1174 11.3787 93.4568 11.9467 93.6762 12.5642C93.8956 13.1816 93.9908 13.8364 93.9562 14.4908ZM90.9862 14.4908C90.9746 14.0275 90.8266 13.5779 90.5607 13.1982C90.2948 12.8186 89.9229 12.5258 89.4915 12.3566C89.06 12.1873 88.5882 12.149 88.1351 12.2466C87.682 12.3441 87.2678 12.5731 86.9442 12.9049C86.6206 13.2368 86.4021 13.6566 86.316 14.1121C86.2299 14.5675 86.28 15.0381 86.4601 15.4652C86.6401 15.8923 86.9422 16.2567 87.3284 16.513C87.7146 16.7692 88.1677 16.9059 88.6312 16.9058C88.9494 16.92 89.267 16.8667 89.5632 16.7495C89.8593 16.6324 90.1274 16.4539 90.3497 16.2259C90.5721 15.9978 90.7437 15.7254 90.8534 15.4264C90.9631 15.1274 91.0084 14.8085 90.9862 14.4908Z" fill="#535868"/>
<path d="M103.121 16.4699C103.121 18.7469 101.142 19.7169 99.0041 19.7169C98.1401 19.7951 97.2728 19.6125 96.5139 19.1924C95.755 18.7724 95.1396 18.1344 94.7471 17.3609L97.3201 15.8959C97.4242 16.2534 97.6478 16.5645 97.9535 16.777C98.2591 16.9896 98.6291 17.0909 99.0001 17.0639C99.7121 17.0639 100.069 16.8459 100.069 16.4509C100.069 15.3609 95.1981 15.9359 95.1981 12.5109C95.1981 10.3519 97.0201 9.26389 99.0791 9.26389C99.8531 9.23939 100.619 9.42299 101.298 9.79549C101.977 10.1681 102.544 10.7159 102.939 11.3819L100.405 12.7479C100.294 12.4886 100.109 12.2677 99.8731 12.1128C99.6371 11.9579 99.3611 11.8759 99.0791 11.8769C98.5641 11.8769 98.2471 12.0769 98.2471 12.4309C98.2511 13.5599 103.121 12.8069 103.121 16.4699Z" fill="#535868"/>
<path d="M113.97 9.54102V19.441H111V18.51C110.657 18.9208 110.222 19.2445 109.73 19.4545C109.238 19.6645 108.704 19.7548 108.17 19.718C106.17 19.718 104.47 18.293 104.47 15.618V9.54102H107.44V15.183C107.415 15.4188 107.442 15.6572 107.519 15.8815C107.595 16.1059 107.72 16.3109 107.884 16.4822C108.048 16.6535 108.247 16.787 108.468 16.8735C108.688 16.96 108.925 16.9974 109.162 16.983C110.251 16.983 111.003 16.35 111.003 14.944V9.54402L113.97 9.54102Z" fill="#535868"/>
<path d="M131 13.3623V19.4403H128.03V13.6193C128.03 12.6293 127.555 11.9963 126.605 11.9963C125.615 11.9963 125.06 12.6893 125.06 13.8573V19.4403H122.091V13.6193C122.091 12.6293 121.616 11.9963 120.665 11.9963C119.675 11.9963 119.121 12.6893 119.121 13.8573V19.4403H116.151V9.54026H119.121V10.4503C119.429 10.0466 119.833 9.72636 120.296 9.51906C120.76 9.31166 121.268 9.22376 121.774 9.26326C122.282 9.23836 122.788 9.34566 123.243 9.57456C123.697 9.80336 124.084 10.1462 124.367 10.5693C124.696 10.1266 125.132 9.77456 125.634 9.54616C126.136 9.31776 126.688 9.22046 127.238 9.26326C129.511 9.26426 131 10.8873 131 13.3623Z" fill="#535868"/>
<path d="M133.512 9.48027C134.729 9.48027 135.716 8.49347 135.716 7.27627C135.716 6.05903 134.729 5.07227 133.512 5.07227C132.295 5.07227 131.308 6.05903 131.308 7.27627C131.308 8.49347 132.295 9.48027 133.512 9.48027Z" fill="#535868"/>
</svg>
