<svg width="123" height="35" viewBox="0 0 123 35" fill="none" xmlns="http://www.w3.org/2000/svg">
<path d="M17.5 0C15.2019 0 12.9262 0.4527 10.803 1.3321C8.6798 2.2116 6.7507 3.5006 5.1256 5.1256C3.5006 6.7507 2.2116 8.6798 1.3321 10.803C0.4527 12.9262 0 15.2019 0 17.5C0 19.7981 0.4527 22.0738 1.3321 24.197C2.2116 26.3202 3.5006 28.2493 5.1256 29.8744C6.7507 31.4994 8.6798 32.7884 10.803 33.6679C12.9262 34.5473 15.2019 35 17.5 35V26.25C16.3509 26.25 15.2131 26.0237 14.1515 25.5839C13.0899 25.1442 12.1253 24.4997 11.3128 23.6872C10.5003 22.8747 9.8558 21.9101 9.4161 20.8485C8.9763 19.7869 8.75 18.6491 8.75 17.5C8.75 16.3509 8.9763 15.2131 9.4161 14.1515C9.8558 13.0899 10.5003 12.1253 11.3128 11.3128C12.1253 10.5003 13.0899 9.8558 14.1515 9.4161C15.2131 8.9763 16.3509 8.75 17.5 8.75V0Z" fill="#535868"/>
<path d="M17.5003 23.3331C20.722 23.3331 23.3336 20.7215 23.3336 17.4998C23.3336 14.2781 20.722 11.6665 17.5003 11.6665C14.2786 11.6665 11.667 14.2781 11.667 17.4998C11.667 20.7215 14.2786 23.3331 17.5003 23.3331Z" fill="#535868"/>
<path d="M0 17.5C0 19.7981 0.4527 22.0738 1.3321 24.197C2.2116 26.3202 3.5006 28.2493 5.1256 29.8744C6.7507 31.4994 8.6798 32.7884 10.803 33.6679C12.9262 34.5473 15.2019 35 17.5 35C19.7981 35 22.0738 34.5473 24.197 33.6679C26.3202 32.7884 28.2493 31.4994 29.8744 29.8744C31.4994 28.2493 32.7884 26.3202 33.6679 24.197C34.5473 22.0738 35 19.7981 35 17.5H26.25C26.25 18.6491 26.0237 19.7869 25.5839 20.8485C25.1442 21.9101 24.4997 22.8747 23.6872 23.6872C22.8747 24.4997 21.9101 25.1442 20.8485 25.5839C19.7869 26.0237 18.6491 26.25 17.5 26.25C16.3509 26.25 15.2131 26.0237 14.1515 25.5839C13.0899 25.1442 12.1253 24.4997 11.3128 23.6872C10.5003 22.8747 9.8558 21.9101 9.4161 20.8485C8.9763 19.7869 8.75 18.6491 8.75 17.5H0Z" fill="#535868"/>
<path d="M23.3332 17.4999C23.3332 15.9528 22.7186 14.4691 21.6247 13.3751C20.5307 12.2811 19.047 11.6665 17.4999 11.6665C15.9528 11.6665 14.4691 12.2811 13.3751 13.3751C12.2811 14.4691 11.6665 15.9528 11.6665 17.4999H17.4999H23.3332Z" fill="#535868"/>
<path d="M44.1398 10.9248H41.9663V22.9998H44.1398V10.9248Z" fill="#535868"/>
<path d="M45.5591 18.7221C45.5591 21.5166 47.4911 23.2416 50.0441 23.2416C52.5971 23.2416 54.5291 21.5166 54.5291 18.7221C54.5291 15.9276 52.5971 14.2026 50.0441 14.2026C47.4911 14.2026 45.5591 15.9276 45.5591 18.7221ZM47.7326 18.7221C47.7326 17.0661 48.6986 16.1001 50.0441 16.1001C51.3896 16.1001 52.3556 17.0661 52.3556 18.7221C52.3556 20.3781 51.3896 21.3441 50.0441 21.3441C48.6986 21.3441 47.7326 20.3781 47.7326 18.7221Z" fill="#535868"/>
<path d="M62.2962 14.4441V15.5998H62.1237C61.6062 14.8581 60.7782 14.2026 59.2947 14.2026C57.2592 14.2026 55.4307 15.9276 55.4307 18.5841C55.4307 21.2406 57.2592 22.9656 59.2947 22.9656C60.7782 22.9656 61.6062 22.2928 62.0892 21.6201H62.2617V22.4481C62.2617 24.1041 61.2957 24.8631 59.8812 24.8631C58.4667 24.8631 57.7422 24.1041 57.4489 23.1208L55.4997 23.9661C55.9482 25.2598 57.2592 26.6916 59.9157 26.6916C62.6412 26.6916 64.4352 25.2598 64.4352 22.4998V14.4441H62.2962ZM59.9502 21.1026C58.6047 21.1026 57.6042 20.1366 57.6042 18.5841C57.6042 17.0316 58.6047 16.0656 59.9502 16.0656C61.2957 16.0656 62.2962 17.0316 62.2962 18.5841C62.2962 20.1366 61.2957 21.1026 59.9502 21.1026Z" fill="#535868"/>
<path d="M65.8413 18.7221C65.8413 21.5166 67.7733 23.2416 70.3263 23.2416C72.8793 23.2416 74.8112 21.5166 74.8112 18.7221C74.8112 15.9276 72.8793 14.2026 70.3263 14.2026C67.7733 14.2026 65.8413 15.9276 65.8413 18.7221ZM68.0148 18.7221C68.0148 17.0661 68.9808 16.1001 70.3263 16.1001C71.6718 16.1001 72.6378 17.0661 72.6378 18.7221C72.6378 20.3781 71.6718 21.3441 70.3263 21.3441C68.9808 21.3441 68.0148 20.3781 68.0148 18.7221Z" fill="#535868"/>
<path d="M76.5171 11.9601C76.5171 12.8399 77.1901 13.4436 78.0531 13.4436C78.9151 13.4436 79.5881 12.8399 79.5881 11.9601C79.5881 11.0804 78.9151 10.4766 78.0531 10.4766C77.1901 10.4766 76.5171 11.0804 76.5171 11.9601ZM79.1391 14.4441H76.9661V23.0001H79.1391V14.4441Z" fill="#535868"/>
<path d="M81.0762 26.4501H83.2502V21.8961H83.4222C83.9052 22.5861 84.7332 23.2416 86.2172 23.2416C88.2522 23.2416 90.0812 21.5166 90.0812 18.7221C90.0812 15.9276 88.2522 14.2026 86.2172 14.2026C84.7332 14.2026 83.9052 14.8581 83.3882 15.5999H83.2152V14.4441H81.0762V26.4501ZM85.5612 21.3786C84.2162 21.3786 83.2152 20.4126 83.2152 18.7221C83.2152 17.0316 84.2162 16.0656 85.5612 16.0656C86.9072 16.0656 87.9072 17.0316 87.9072 18.7221C87.9072 20.4126 86.9072 21.3786 85.5612 21.3786Z" fill="#535868"/>
<path d="M91.3491 16.8419C91.3491 18.5324 92.7631 19.1534 94.5571 19.4984L95.0061 19.5846C96.0751 19.7916 96.5581 20.0504 96.5581 20.6024C96.5581 21.1544 96.0751 21.5856 95.0751 21.5856C94.0741 21.5856 93.2641 21.1716 93.0391 19.9296L91.0381 20.4471C91.3321 22.2411 92.8321 23.2416 95.0751 23.2416C97.2481 23.2416 98.6631 22.2239 98.6631 20.4299C98.6631 18.6358 97.2141 18.1529 95.2821 17.7734L94.8331 17.6871C93.9361 17.5146 93.4531 17.2731 93.4531 16.7039C93.4531 16.1864 93.9021 15.8586 94.7301 15.8586C95.5581 15.8586 96.1441 16.2036 96.3511 17.1351L98.3181 16.5314C97.9041 15.1514 96.6451 14.2026 94.7301 14.2026C92.6941 14.2026 91.3491 15.1514 91.3491 16.8419Z" fill="#535868"/>
<path d="M108.426 22.9998V14.4438H106.253V18.8598C106.253 20.4468 105.477 21.3783 104.148 21.3783C102.975 21.3783 102.32 20.7401 102.32 19.4463V14.4438H100.146V19.5498C100.146 21.6716 101.475 23.1378 103.476 23.1378C105.045 23.1378 105.77 22.4478 106.115 21.7233H106.287V22.9998H108.426Z" fill="#535868"/>
<path d="M110.354 14.4442V23.0002H112.528V17.8942C112.528 16.7212 113.08 16.0657 114.08 16.0657C114.943 16.0657 115.46 16.5487 115.46 17.4802V23.0002H117.634V17.8942C117.634 16.7212 118.186 16.0657 119.186 16.0657C120.049 16.0657 120.566 16.5487 120.566 17.4802V23.0002H122.74V17.3767C122.74 15.3067 121.463 14.3062 119.876 14.3062C118.479 14.3062 117.841 14.9272 117.427 15.6517H117.254C116.857 14.841 116.15 14.3062 114.908 14.3062C113.666 14.3062 112.993 14.8582 112.666 15.5137H112.493V14.4442H110.354Z" fill="#535868"/>
</svg>
