<svg xmlns="http://www.w3.org/2000/svg" width="435" height="591" viewBox="0 0 435 591">
  <g id="Group_1" data-name="Group 1" transform="translate(-743 -1355)">
    <path id="Rectangle_11" data-name="Rectangle 11" d="M56,0H379a56,56,0,0,1,56,56V591a0,0,0,0,1,0,0H0a0,0,0,0,1,0,0V56A56,56,0,0,1,56,0Z" transform="translate(743 1355)" fill="#f6f8fb"/>
    <path id="Rectangle_12" data-name="Rectangle 12" d="M56,0H327a56,56,0,0,1,56,56V566a0,0,0,0,1,0,0H0a0,0,0,0,1,0,0V56A56,56,0,0,1,56,0Z" transform="translate(769 1380)" fill="#dee7f3"/>
  </g>
</svg>
